<svg width="288" height="44" viewBox="0 0 288 44" fill="none" xmlns="http://www.w3.org/2000/svg">
<rect y="36" width="288" height="8" rx="4" fill="#F5F5F5"/>
<rect y="36" width="172.8" height="8" rx="4" fill="#39D3C6"/>
<path d="M162.339 19.6753V5.89803C162.339 4.95654 162.703 4.05361 163.351 3.38788C163.999 2.72215 164.877 2.34814 165.794 2.34814H179.206C180.122 2.34814 181.001 2.72215 181.649 3.38788C182.297 4.05361 182.661 4.95654 182.661 5.89803V19.6753C182.661 20.1415 182.572 20.6031 182.399 21.0339C182.226 21.4648 181.971 21.8563 181.651 22.1861C181.33 22.516 180.949 22.7777 180.53 22.9564C180.111 23.1351 179.662 23.2272 179.208 23.2275H166.943C166.906 23.2274 166.87 23.2367 166.837 23.2545C166.805 23.2723 166.777 23.2981 166.756 23.3296C165.927 24.6034 164.868 25.4456 163.307 25.6498C163.235 25.659 163.162 25.6382 163.104 25.5921C163.047 25.546 163.009 25.4783 163 25.4038C162.996 25.365 162.999 25.3255 163.01 25.288C163.021 25.2505 163.039 25.2157 163.064 25.1857C163.579 24.5606 163.983 23.8465 164.256 23.0767C164.272 23.0241 164.27 22.9671 164.25 22.916C164.229 22.865 164.191 22.8232 164.143 22.7983C163.596 22.4928 163.14 22.0415 162.823 21.4918C162.505 20.9421 162.338 20.3145 162.339 19.6753Z" fill="white"/>
<path d="M163.274 26H163.348C164.882 25.7981 166.045 25.0302 167.002 23.58H179.197C179.696 23.5804 180.191 23.4796 180.652 23.2835C181.114 23.0874 181.533 22.7998 181.886 22.4372C182.239 22.0745 182.519 21.644 182.71 21.17C182.902 20.6961 183 20.1882 183 19.6752V5.89791C182.999 4.8645 182.599 3.87376 181.887 3.14303C181.176 2.41229 180.212 2.00123 179.206 2H165.796C164.79 2.00061 163.825 2.41133 163.113 3.14207C162.4 3.8728 162 4.86388 161.998 5.89791V19.6752C161.996 20.3612 162.171 21.0354 162.505 21.6295C162.839 22.2236 163.32 22.7164 163.899 23.058C163.643 23.7541 163.273 24.4005 162.806 24.9698C162.73 25.0616 162.682 25.1737 162.666 25.293C162.65 25.4122 162.668 25.5336 162.717 25.6429C162.766 25.7522 162.845 25.8447 162.943 25.9096C163.042 25.9745 163.157 26.0091 163.274 26.0093V26ZM166.941 22.8817C166.849 22.8817 166.759 22.905 166.677 22.9495C166.596 22.994 166.527 23.0584 166.476 23.1369C165.661 24.3898 164.69 25.0742 163.427 25.2831C163.92 24.6571 164.307 23.9514 164.574 23.1949C164.616 23.0639 164.611 22.9219 164.56 22.7943C164.509 22.6668 164.416 22.562 164.297 22.4988C163.803 22.223 163.391 21.8146 163.106 21.3174C162.82 20.8201 162.672 20.2525 162.675 19.6752V5.89791C162.676 5.04851 163.005 4.23411 163.589 3.63372C164.174 3.03332 164.967 2.69606 165.794 2.69606H179.206C180.032 2.69667 180.825 3.03421 181.409 3.63454C181.993 4.23487 182.322 5.04892 182.323 5.89791V19.6752C182.323 20.5246 181.995 21.3395 181.411 21.9407C180.827 22.542 180.035 22.8804 179.208 22.8817H166.941Z" fill="#39D3C6" stroke="#39D3C6" stroke-width="0.3"/>
<path d="M174.364 6.73096C174.31 6.73096 174.257 6.74182 174.208 6.76292C174.158 6.78403 174.113 6.81496 174.075 6.85396C174.037 6.89296 174.007 6.93925 173.986 6.9902C173.966 7.04115 173.955 7.09576 173.955 7.15091V8.18107C173.955 8.23622 173.966 8.29083 173.986 8.34178C174.007 8.39273 174.037 8.43903 174.075 8.47803C174.113 8.51702 174.158 8.54796 174.208 8.56906C174.257 8.59017 174.31 8.60103 174.364 8.60103C174.472 8.60042 174.575 8.5559 174.652 8.47721C174.728 8.39852 174.771 8.29205 174.771 8.18107V7.15091C174.771 7.03993 174.728 6.93347 174.652 6.85478C174.575 6.77609 174.472 6.73157 174.364 6.73096Z" fill="#39D3C6" stroke="#39D3C6" stroke-width="0.1"/>
<path d="M170.637 6.73096C170.529 6.73096 170.425 6.7752 170.348 6.85396C170.272 6.93272 170.229 7.03953 170.229 7.15091V8.18107C170.229 8.29245 170.272 8.39927 170.348 8.47803C170.425 8.55678 170.529 8.60103 170.637 8.60103C170.745 8.60042 170.849 8.5559 170.925 8.47721C171.001 8.39852 171.044 8.29205 171.044 8.18107V7.15091C171.044 7.03993 171.001 6.93347 170.925 6.85478C170.849 6.77609 170.745 6.73157 170.637 6.73096Z" fill="#39D3C6" stroke="#39D3C6" stroke-width="0.1"/>
<path d="M170.921 10.6475H174.005C174.108 10.6558 174.202 10.7049 174.269 10.7843C174.337 10.8637 174.371 10.9671 174.365 11.0721V13.0048C174.371 13.1098 174.337 13.2131 174.269 13.2925C174.202 13.3719 174.108 13.421 174.005 13.4294H170.921C170.818 13.4216 170.724 13.3726 170.657 13.293C170.59 13.2133 170.556 13.1097 170.564 13.0048V11.0721C170.556 10.9671 170.59 10.8635 170.657 10.7839C170.724 10.7042 170.818 10.6552 170.921 10.6475Z" fill="#39D3C6"/>
<path d="M174.005 13.6612C174.086 13.6568 174.166 13.6358 174.24 13.5995C174.313 13.5633 174.379 13.5124 174.434 13.4499C174.488 13.3873 174.53 13.3143 174.557 13.2351C174.583 13.1559 174.595 13.0721 174.59 12.9884V11.0719C174.597 10.9078 174.542 10.7471 174.435 10.6244C174.329 10.5017 174.18 10.4266 174.021 10.4153H170.904C170.742 10.4278 170.592 10.5055 170.486 10.6316C170.379 10.7577 170.326 10.9218 170.337 11.0881V13.0046C170.329 13.1685 170.384 13.3292 170.49 13.4519C170.596 13.5747 170.745 13.6499 170.904 13.6612H174.005ZM174.005 10.877C174.045 10.8838 174.08 10.9058 174.105 10.9384C174.13 10.9711 174.141 11.0121 174.138 11.0533V13.0023C174.141 13.025 174.139 13.0481 174.133 13.0702C174.127 13.0923 174.117 13.1129 174.103 13.1309C174.089 13.1488 174.072 13.1638 174.052 13.1747C174.033 13.1857 174.011 13.1926 173.989 13.1949H170.92C170.881 13.1875 170.845 13.1654 170.821 13.1327C170.797 13.1001 170.786 13.0594 170.789 13.0185V11.0719C170.783 11.0274 170.795 10.9822 170.821 10.9462C170.847 10.9102 170.886 10.8862 170.929 10.8793L174.005 10.877Z" fill="#39D3C6"/>
<path d="M173.389 10.7542H171.537V11.5941C171.537 11.6488 171.558 11.7013 171.596 11.7401C171.633 11.7788 171.685 11.8006 171.738 11.8006H173.188C173.241 11.8006 173.292 11.7788 173.33 11.7401C173.367 11.7013 173.389 11.6488 173.389 11.5941V10.7542Z" fill="white"/>
<path d="M174.005 13.6612C174.086 13.6568 174.166 13.6358 174.24 13.5995C174.313 13.5633 174.379 13.5124 174.434 13.4499C174.488 13.3873 174.53 13.3143 174.557 13.2351C174.583 13.1559 174.595 13.0721 174.59 12.9884V11.0719C174.597 10.9078 174.542 10.7471 174.435 10.6244C174.329 10.5017 174.18 10.4266 174.021 10.4153H170.904C170.742 10.4278 170.592 10.5055 170.486 10.6316C170.379 10.7577 170.326 10.9218 170.337 11.0881V13.0046C170.329 13.1685 170.384 13.3292 170.49 13.4519C170.596 13.5747 170.745 13.6499 170.904 13.6612H174.005ZM174.005 10.877C174.045 10.8838 174.08 10.9058 174.105 10.9384C174.13 10.9711 174.141 11.0121 174.138 11.0533V13.0023C174.141 13.025 174.139 13.0481 174.133 13.0702C174.127 13.0923 174.117 13.1129 174.103 13.1309C174.089 13.1488 174.072 13.1638 174.052 13.1747C174.033 13.1857 174.011 13.1926 173.989 13.1949H170.92C170.881 13.1875 170.845 13.1654 170.821 13.1327C170.797 13.1001 170.786 13.0594 170.789 13.0185V11.0719C170.783 11.0274 170.795 10.9822 170.821 10.9462C170.847 10.9102 170.886 10.8862 170.929 10.8793L174.005 10.877Z" fill="#39D3C6" stroke="#39D3C6" stroke-width="0.1"/>
<path d="M262.529 21.5523L268.115 11.7106L273.711 1.86893C273.837 1.65756 274.041 1.50568 274.277 1.44666C274.513 1.38764 274.763 1.42631 274.971 1.55416C275.097 1.6325 275.204 1.74042 275.281 1.86893L280.872 11.7106L286.47 21.5523C286.587 21.7687 286.615 22.0236 286.548 22.261C286.48 22.4984 286.323 22.6988 286.11 22.8183C285.98 22.8926 285.834 22.9327 285.686 22.9349H268.214C268.197 22.9346 268.181 22.9385 268.166 22.9462C268.151 22.9539 268.139 22.9653 268.129 22.9792C267.069 24.5927 266.459 25.3108 264.382 25.5766C264.314 25.5839 264.245 25.5635 264.191 25.5199C264.137 25.4763 264.102 25.413 264.093 25.3434C264.09 25.308 264.093 25.2722 264.103 25.2382C264.114 25.2041 264.13 25.1725 264.153 25.1453C264.667 24.5181 264.997 24.3059 265.041 23.0468C265.041 23.033 265.039 23.0193 265.034 23.0065C265.029 22.9936 265.022 22.9819 265.012 22.9719C265.003 22.962 264.992 22.954 264.979 22.9484C264.967 22.9429 264.953 22.9399 264.94 22.9396H263.318C263.16 22.9368 263.005 22.8926 262.869 22.8114C262.733 22.7301 262.619 22.6145 262.54 22.4756C262.461 22.3368 262.418 22.1795 262.416 22.019C262.414 21.8584 262.453 21.7001 262.529 21.5593V21.5523Z" fill="white"/>
<path d="M264.355 25.9286H264.417C266.537 25.6534 267.266 24.9072 268.345 23.2843H285.686C285.903 23.2814 286.117 23.2211 286.305 23.1094C286.493 22.9976 286.649 22.8383 286.759 22.6468C286.868 22.4553 286.926 22.2383 286.929 22.017C286.931 21.7956 286.876 21.5775 286.771 21.3838L281.17 11.5343L275.579 1.69166C275.467 1.50241 275.308 1.34586 275.119 1.23719C274.929 1.12852 274.716 1.07141 274.498 1.07141C274.281 1.07141 274.067 1.12852 273.878 1.23719C273.688 1.34586 273.53 1.50241 273.418 1.69166L267.817 11.5343L262.226 21.3838C262.129 21.5663 262.077 21.7692 262.072 21.9761C262.069 22.1446 262.098 22.3119 262.159 22.4687C262.22 22.6255 262.31 22.7686 262.425 22.8899C262.54 23.0111 262.678 23.1082 262.83 23.1754C262.982 23.2427 263.145 23.2789 263.311 23.2819H264.674C264.671 23.5445 264.616 23.8038 264.513 24.0442C264.409 24.2847 264.258 24.5013 264.07 24.681C264.008 24.751 263.946 24.8256 263.88 24.9142C263.806 25.0039 263.759 25.113 263.743 25.2288C263.728 25.3447 263.746 25.4626 263.794 25.5688C263.842 25.675 263.918 25.7652 264.015 25.8289C264.111 25.8925 264.224 25.9271 264.339 25.9286H264.355ZM268.205 22.5847C268.134 22.5856 268.064 22.6038 268.002 22.6379C267.94 22.672 267.886 22.721 267.847 22.7806C266.823 24.3359 266.284 24.9399 264.552 25.201L264.598 25.1451C265.029 24.6414 265.344 24.2753 265.385 23.0464C265.389 22.9339 265.352 22.8237 265.281 22.7374C265.21 22.6512 265.109 22.5951 264.999 22.5801H264.937H263.318C263.243 22.5786 263.17 22.5621 263.102 22.5317C263.034 22.5013 262.972 22.4575 262.921 22.4028C262.815 22.2916 262.757 22.1423 262.76 21.9878C262.762 21.8941 262.786 21.8023 262.829 21.7196L268.413 11.884L274.01 2.04143C274.061 1.95656 274.133 1.88646 274.218 1.83784C274.304 1.78921 274.4 1.76368 274.498 1.76368C274.596 1.76368 274.693 1.78921 274.778 1.83784C274.864 1.88646 274.936 1.95656 274.987 2.04143L280.574 11.884L286.172 21.7266C286.243 21.8617 286.258 22.0195 286.215 22.1661C286.172 22.3126 286.074 22.4362 285.943 22.5101C285.862 22.556 285.771 22.5808 285.679 22.5824H268.205V22.5847Z" fill="#39D3C6" stroke="#39D3C6" stroke-width="0.3"/>
<path d="M275.745 9.40918C275.635 9.40918 275.529 9.45364 275.452 9.53279C275.374 9.61193 275.33 9.71927 275.33 9.8312V10.8664C275.33 10.9784 275.374 11.0857 275.452 11.1648C275.529 11.244 275.635 11.2884 275.745 11.2884C275.855 11.2878 275.96 11.2431 276.037 11.164C276.115 11.0849 276.158 10.9779 276.158 10.8664V9.8312C276.158 9.71967 276.115 9.61268 276.037 9.53361C275.96 9.45453 275.855 9.4098 275.745 9.40918Z" fill="#39D3C6"/>
<path d="M273.092 9.40918C272.982 9.4098 272.877 9.45453 272.799 9.53361C272.722 9.61268 272.679 9.71967 272.679 9.8312V10.8664C272.679 10.9779 272.722 11.0849 272.799 11.164C272.877 11.2431 272.982 11.2878 273.092 11.2884C273.202 11.2884 273.307 11.244 273.385 11.1648C273.463 11.0857 273.507 10.9784 273.507 10.8664V9.8312C273.507 9.71927 273.463 9.61193 273.385 9.53279C273.307 9.45364 273.202 9.40918 273.092 9.40918Z" fill="#39D3C6"/>
<path d="M272.038 13.1119C271.954 13.1109 271.87 13.1269 271.792 13.159C271.714 13.191 271.643 13.2384 271.583 13.2984C271.523 13.3584 271.476 13.4299 271.443 13.5087C271.411 13.5876 271.394 13.6722 271.393 13.7577C271.392 13.8095 271.397 13.8613 271.409 13.9116C271.585 14.6075 271.983 15.2242 272.542 15.6646C273.1 16.105 273.787 16.344 274.494 16.344C275.201 16.344 275.888 16.105 276.446 15.6646C277.005 15.2242 277.403 14.6075 277.579 13.9116C277.618 13.7434 277.589 13.5666 277.5 13.4197C277.41 13.2729 277.267 13.1681 277.102 13.1282C277.052 13.1169 277.001 13.1114 276.95 13.1119H272.038Z" fill="#39D3C6"/>
<path d="M274.489 16.5789C274.777 16.5782 275.064 16.5414 275.343 16.4693C275.935 16.3147 276.476 16.0012 276.909 15.5615C277.342 15.1218 277.65 14.5721 277.802 13.9698C277.829 13.8565 277.833 13.739 277.815 13.624C277.797 13.509 277.757 13.3988 277.697 13.2996C277.637 13.2004 277.558 13.1142 277.465 13.046C277.372 12.9778 277.267 12.9288 277.155 12.902C277.087 12.8871 277.018 12.8792 276.949 12.8787H272.039C271.925 12.8759 271.811 12.8971 271.705 12.9408C271.6 12.9845 271.504 13.0499 271.424 13.1328C271.342 13.2136 271.277 13.3104 271.232 13.4173C271.188 13.5243 271.165 13.6392 271.165 13.7553C271.163 13.826 271.171 13.8966 271.188 13.9652C271.375 14.711 271.801 15.3724 272.399 15.8455C272.996 16.3185 273.732 16.5765 274.489 16.5789ZM276.956 13.345C276.987 13.3453 277.019 13.3492 277.05 13.3566C277.103 13.3687 277.152 13.3913 277.196 13.4231C277.241 13.455 277.278 13.4953 277.307 13.542C277.335 13.5886 277.354 13.6406 277.363 13.6948C277.372 13.749 277.37 13.8045 277.357 13.8579C277.198 14.5086 276.829 15.0865 276.31 15.4995C275.79 15.9126 275.149 16.1369 274.489 16.1369C273.829 16.1369 273.189 15.9126 272.669 15.4995C272.149 15.0865 271.78 14.5086 271.621 13.8579C271.618 13.8262 271.618 13.7941 271.621 13.7623C271.622 13.7076 271.632 13.6535 271.653 13.6031C271.674 13.5527 271.705 13.507 271.743 13.4685C271.781 13.43 271.827 13.3996 271.877 13.3791C271.927 13.3587 271.98 13.3487 272.034 13.3496H276.956V13.345Z" fill="#39D3C6"/>
<path d="M275.034 13.1467H273.742V13.5431C273.742 13.7169 273.81 13.8835 273.931 14.0064C274.052 14.1293 274.216 14.1983 274.387 14.1983C274.558 14.1983 274.722 14.1293 274.843 14.0064C274.964 13.8835 275.032 13.7169 275.032 13.5431V13.1467H275.034Z" fill="white"/>
<path d="M274.489 16.5789C274.777 16.5782 275.064 16.5414 275.343 16.4693C275.935 16.3147 276.476 16.0012 276.909 15.5615C277.342 15.1218 277.65 14.5721 277.802 13.9698C277.829 13.8565 277.833 13.739 277.815 13.624C277.797 13.509 277.757 13.3988 277.697 13.2996C277.637 13.2004 277.558 13.1142 277.465 13.046C277.372 12.9778 277.267 12.9288 277.155 12.902C277.087 12.8871 277.018 12.8792 276.949 12.8787H272.039C271.925 12.8759 271.811 12.8971 271.705 12.9408C271.6 12.9845 271.504 13.0499 271.424 13.1328C271.342 13.2136 271.277 13.3104 271.232 13.4173C271.188 13.5243 271.165 13.6392 271.165 13.7553C271.163 13.826 271.171 13.8966 271.188 13.9652C271.375 14.711 271.801 15.3724 272.399 15.8455C272.996 16.3185 273.732 16.5765 274.489 16.5789ZM276.956 13.345C276.987 13.3453 277.019 13.3492 277.05 13.3566C277.103 13.3687 277.152 13.3913 277.196 13.4231C277.241 13.455 277.278 13.4953 277.307 13.542C277.335 13.5886 277.354 13.6406 277.363 13.6948C277.372 13.749 277.37 13.8045 277.357 13.8579C277.198 14.5086 276.829 15.0865 276.31 15.4995C275.79 15.9126 275.149 16.1369 274.489 16.1369C273.829 16.1369 273.189 15.9126 272.669 15.4995C272.149 15.0865 271.78 14.5086 271.621 13.8579C271.618 13.8262 271.618 13.7941 271.621 13.7623C271.622 13.7076 271.632 13.6535 271.653 13.6031C271.674 13.5527 271.705 13.507 271.743 13.4685C271.781 13.43 271.827 13.3996 271.877 13.3791C271.927 13.3587 271.98 13.3487 272.034 13.3496H276.956V13.345Z" fill="#39D3C6"/>
</svg>
