<svg width="288" height="44" viewBox="0 0 288 44" fill="none" xmlns="http://www.w3.org/2000/svg">
<rect y="36" width="288" height="8" rx="4" fill="#F5F5F5"/>
<path d="M47.3386 19.6753V5.89803C47.3386 4.95654 47.7027 4.05361 48.3506 3.38788C48.9986 2.72215 49.8775 2.34814 50.7938 2.34814H64.2059C65.1223 2.34814 66.0011 2.72215 66.6491 3.38788C67.2971 4.05361 67.6611 4.95654 67.6611 5.89803V19.6753C67.6614 20.1415 67.5724 20.6031 67.399 21.0339C67.2256 21.4648 66.9714 21.8563 66.6507 22.1861C66.3301 22.516 65.9494 22.7777 65.5303 22.9564C65.1112 23.1351 64.6619 23.2272 64.2082 23.2275H51.9433C51.9063 23.2274 51.8699 23.2367 51.8372 23.2545C51.8045 23.2723 51.7766 23.2981 51.7559 23.3296C50.9271 24.6034 49.8679 25.4456 48.3074 25.6498C48.235 25.659 48.1619 25.6382 48.1043 25.5921C48.0468 25.546 48.0093 25.4783 48.0003 25.4038C47.9957 25.365 47.999 25.3255 48.0098 25.288C48.0207 25.2505 48.039 25.2157 48.0635 25.1857C48.5791 24.5606 48.9828 23.8465 49.2559 23.0767C49.2725 23.0241 49.2702 22.9671 49.2495 22.916C49.2288 22.865 49.191 22.8232 49.143 22.7983C48.5964 22.4928 48.1403 22.0415 47.8227 21.4918C47.5051 20.9421 47.3378 20.3145 47.3386 19.6753Z" fill="white"/>
<path d="M48.2737 26H48.3482C49.8816 25.7981 51.0446 25.0302 52.0022 23.58H64.197C64.6963 23.5804 65.1908 23.4796 65.6522 23.2835C66.1136 23.0874 66.5328 22.7998 66.886 22.4372C67.2392 22.0745 67.5193 21.644 67.7105 21.17C67.9016 20.6961 68 20.1882 68 19.6752V5.89791C67.9988 4.8645 67.5987 3.87376 66.8875 3.14303C66.1762 2.41229 65.2119 2.00123 64.206 2H50.7962C49.7898 2.00061 48.8246 2.41133 48.1125 3.14207C47.4004 3.8728 46.9995 4.86388 46.9977 5.89791V19.6752C46.9963 20.3612 47.1714 21.0354 47.5053 21.6295C47.8393 22.2236 48.3202 22.7164 48.8992 23.058C48.6425 23.7541 48.273 24.4005 47.8062 24.9698C47.7304 25.0616 47.6817 25.1737 47.6659 25.293C47.6501 25.4122 47.6678 25.5336 47.7169 25.6429C47.7661 25.7522 47.8446 25.8447 47.9432 25.9096C48.0419 25.9745 48.1565 26.0091 48.2737 26.0093V26ZM51.9412 22.8817C51.8492 22.8817 51.7586 22.905 51.6775 22.9495C51.5964 22.994 51.5271 23.0584 51.476 23.1369C50.6607 24.3898 49.6896 25.0742 48.4272 25.2831C48.9195 24.6571 49.3072 23.9514 49.5745 23.1949C49.6162 23.0639 49.6112 22.9219 49.5603 22.7943C49.5094 22.6668 49.416 22.562 49.2967 22.4988C48.803 22.223 48.3915 21.8146 48.1059 21.3174C47.8204 20.8201 47.6715 20.2525 47.6752 19.6752V5.89791C47.6758 5.04851 48.0047 4.23411 48.5895 3.63372C49.1743 3.03332 49.9672 2.69606 50.794 2.69606H64.206C65.0324 2.69667 65.8247 3.03421 66.4091 3.63454C66.9934 4.23487 67.3219 5.04892 67.3225 5.89791V19.6752C67.3231 20.5246 66.9954 21.3395 66.4115 21.9407C65.8275 22.542 65.035 22.8804 64.2083 22.8817H51.9412Z" fill="#39D3C6" stroke="#39D3C6" stroke-width="0.3"/>
<path d="M59.364 6.73096C59.3103 6.73096 59.2572 6.74182 59.2076 6.76292C59.158 6.78403 59.1129 6.81496 59.075 6.85396C59.037 6.89296 59.0069 6.93925 58.9864 6.9902C58.9658 7.04115 58.9553 7.09576 58.9553 7.15091V8.18107C58.9553 8.23622 58.9658 8.29083 58.9864 8.34178C59.0069 8.39273 59.037 8.43903 59.075 8.47803C59.1129 8.51702 59.158 8.54796 59.2076 8.56906C59.2572 8.59017 59.3103 8.60103 59.364 8.60103C59.472 8.60042 59.5754 8.5559 59.6516 8.47721C59.7278 8.39852 59.7705 8.29205 59.7705 8.18107V7.15091C59.7705 7.03993 59.7278 6.93347 59.6516 6.85478C59.5754 6.77609 59.472 6.73157 59.364 6.73096Z" fill="#39D3C6" stroke="#39D3C6" stroke-width="0.1"/>
<path d="M55.6375 6.73096C55.529 6.73096 55.4251 6.7752 55.3484 6.85396C55.2718 6.93272 55.2287 7.03953 55.2287 7.15091V8.18107C55.2287 8.29245 55.2718 8.39927 55.3484 8.47803C55.4251 8.55678 55.529 8.60103 55.6375 8.60103C55.7455 8.60042 55.8489 8.5559 55.925 8.47721C56.0012 8.39852 56.0439 8.29205 56.0439 8.18107V7.15091C56.0439 7.03993 56.0012 6.93347 55.925 6.85478C55.8489 6.77609 55.7455 6.73157 55.6375 6.73096Z" fill="#39D3C6" stroke="#39D3C6" stroke-width="0.1"/>
<path d="M55.9206 10.6475H59.0054C59.1075 10.6558 59.2023 10.7049 59.2695 10.7843C59.3366 10.8637 59.3707 10.9671 59.3645 11.0721V13.0048C59.3707 13.1098 59.3366 13.2131 59.2695 13.2925C59.2023 13.3719 59.1075 13.421 59.0054 13.4294H55.9206C55.8185 13.4216 55.7235 13.3726 55.6566 13.293C55.5897 13.2133 55.5563 13.1097 55.5638 13.0048V11.0721C55.5563 10.9671 55.5897 10.8635 55.6566 10.7839C55.7235 10.7042 55.8185 10.6552 55.9206 10.6475Z" fill="#39D3C6"/>
<path d="M59.0048 13.6612C59.0863 13.6568 59.1662 13.6358 59.2397 13.5995C59.3133 13.5633 59.3792 13.5124 59.4336 13.4499C59.4879 13.3873 59.5297 13.3143 59.5565 13.2351C59.5833 13.1559 59.5946 13.0721 59.5897 12.9884V11.0719C59.5972 10.9078 59.5418 10.7471 59.4354 10.6244C59.3291 10.5017 59.1802 10.4266 59.0206 10.4153H55.9042C55.7423 10.4278 55.5919 10.5055 55.4857 10.6316C55.3795 10.7577 55.3261 10.9218 55.3373 11.0881V13.0046C55.3292 13.1685 55.3841 13.3292 55.4901 13.4519C55.5961 13.5747 55.7448 13.6499 55.9042 13.6612H59.0048ZM59.0048 10.877C59.0445 10.8838 59.0803 10.9058 59.1049 10.9384C59.1296 10.9711 59.1414 11.0121 59.1381 11.0533V13.0023C59.1409 13.025 59.1392 13.0481 59.1332 13.0702C59.1272 13.0923 59.117 13.1129 59.1031 13.1309C59.0892 13.1488 59.0719 13.1638 59.0523 13.1747C59.0328 13.1857 59.0112 13.1926 58.989 13.1949H55.92C55.8807 13.1875 55.8455 13.1654 55.8213 13.1327C55.797 13.1001 55.7855 13.0594 55.789 13.0185V11.0719C55.7831 11.0274 55.7945 10.9822 55.8207 10.9462C55.8469 10.9102 55.8858 10.8862 55.929 10.8793L59.0048 10.877Z" fill="#39D3C6"/>
<path d="M58.3887 10.7542H56.5369V11.5941C56.5369 11.6488 56.558 11.7013 56.5957 11.7401C56.6334 11.7788 56.6845 11.8006 56.7378 11.8006H58.1877C58.241 11.8006 58.2921 11.7788 58.3298 11.7401C58.3675 11.7013 58.3887 11.6488 58.3887 11.5941V10.7542Z" fill="white"/>
<path d="M59.0048 13.6612C59.0863 13.6568 59.1662 13.6358 59.2397 13.5995C59.3133 13.5633 59.3792 13.5124 59.4336 13.4499C59.4879 13.3873 59.5297 13.3143 59.5565 13.2351C59.5833 13.1559 59.5946 13.0721 59.5897 12.9884V11.0719C59.5972 10.9078 59.5418 10.7471 59.4354 10.6244C59.3291 10.5017 59.1802 10.4266 59.0206 10.4153H55.9042C55.7423 10.4278 55.5919 10.5055 55.4857 10.6316C55.3795 10.7577 55.3261 10.9218 55.3373 11.0881V13.0046C55.3292 13.1685 55.3841 13.3292 55.4901 13.4519C55.5961 13.5747 55.7448 13.6499 55.9042 13.6612H59.0048ZM59.0048 10.877C59.0445 10.8838 59.0803 10.9058 59.1049 10.9384C59.1296 10.9711 59.1414 11.0121 59.1381 11.0533V13.0023C59.1409 13.025 59.1392 13.0481 59.1332 13.0702C59.1272 13.0923 59.117 13.1129 59.1031 13.1309C59.0892 13.1488 59.0719 13.1638 59.0523 13.1747C59.0328 13.1857 59.0112 13.1926 58.989 13.1949H55.92C55.8807 13.1875 55.8455 13.1654 55.8213 13.1327C55.797 13.1001 55.7855 13.0594 55.789 13.0185V11.0719C55.7831 11.0274 55.7945 10.9822 55.8207 10.9462C55.8469 10.9102 55.8858 10.8862 55.929 10.8793L59.0048 10.877Z" fill="#39D3C6" stroke="#39D3C6" stroke-width="0.1"/>
<rect y="36" width="57.6" height="8" rx="4" fill="#F5F5F5"/>
<rect y="36" width="57.6" height="8" rx="4" fill="#39D3C6"/>
<path d="M262.529 21.5523L268.115 11.7106L273.711 1.86893C273.837 1.65756 274.041 1.50568 274.277 1.44666C274.513 1.38764 274.763 1.42631 274.971 1.55416C275.097 1.6325 275.204 1.74042 275.281 1.86893L280.872 11.7106L286.47 21.5523C286.587 21.7687 286.615 22.0236 286.548 22.261C286.48 22.4984 286.323 22.6988 286.11 22.8183C285.98 22.8926 285.834 22.9327 285.686 22.9349H268.214C268.197 22.9346 268.181 22.9385 268.166 22.9462C268.151 22.9539 268.139 22.9653 268.129 22.9792C267.069 24.5927 266.459 25.3108 264.382 25.5766C264.314 25.5839 264.245 25.5635 264.191 25.5199C264.137 25.4763 264.102 25.413 264.093 25.3434C264.09 25.308 264.093 25.2722 264.103 25.2382C264.114 25.2041 264.13 25.1725 264.153 25.1453C264.667 24.5181 264.997 24.3059 265.041 23.0468C265.041 23.033 265.039 23.0193 265.034 23.0065C265.029 22.9936 265.022 22.9819 265.012 22.9719C265.003 22.962 264.992 22.954 264.979 22.9484C264.967 22.9429 264.953 22.9399 264.94 22.9396H263.318C263.16 22.9368 263.005 22.8926 262.869 22.8114C262.733 22.7301 262.619 22.6145 262.54 22.4756C262.461 22.3368 262.418 22.1795 262.416 22.019C262.414 21.8584 262.453 21.7001 262.529 21.5593V21.5523Z" fill="white"/>
<path d="M264.355 25.9286H264.417C266.537 25.6534 267.266 24.9072 268.345 23.2843H285.686C285.903 23.2814 286.117 23.2211 286.305 23.1094C286.493 22.9976 286.649 22.8383 286.759 22.6468C286.868 22.4553 286.926 22.2383 286.929 22.017C286.931 21.7956 286.876 21.5775 286.771 21.3838L281.17 11.5343L275.579 1.69166C275.467 1.50241 275.308 1.34586 275.119 1.23719C274.929 1.12852 274.716 1.07141 274.498 1.07141C274.281 1.07141 274.067 1.12852 273.878 1.23719C273.688 1.34586 273.53 1.50241 273.418 1.69166L267.817 11.5343L262.226 21.3838C262.129 21.5663 262.077 21.7692 262.072 21.9761C262.069 22.1446 262.098 22.3119 262.159 22.4687C262.22 22.6255 262.31 22.7686 262.425 22.8899C262.54 23.0111 262.678 23.1082 262.83 23.1754C262.982 23.2427 263.145 23.2789 263.311 23.2819H264.674C264.671 23.5445 264.616 23.8038 264.513 24.0442C264.409 24.2847 264.258 24.5013 264.07 24.681C264.008 24.751 263.946 24.8256 263.88 24.9142C263.806 25.0039 263.759 25.113 263.743 25.2288C263.728 25.3447 263.746 25.4626 263.794 25.5688C263.842 25.675 263.918 25.7652 264.015 25.8289C264.111 25.8925 264.224 25.9271 264.339 25.9286H264.355ZM268.205 22.5847C268.134 22.5856 268.064 22.6038 268.002 22.6379C267.94 22.672 267.886 22.721 267.847 22.7806C266.823 24.3359 266.284 24.9399 264.552 25.201L264.598 25.1451C265.029 24.6414 265.344 24.2753 265.385 23.0464C265.389 22.9339 265.352 22.8237 265.281 22.7374C265.21 22.6512 265.109 22.5951 264.999 22.5801H264.937H263.318C263.243 22.5786 263.17 22.5621 263.102 22.5317C263.034 22.5013 262.972 22.4575 262.921 22.4028C262.815 22.2916 262.757 22.1423 262.76 21.9878C262.762 21.8941 262.786 21.8023 262.829 21.7196L268.413 11.884L274.01 2.04143C274.061 1.95656 274.133 1.88646 274.218 1.83784C274.304 1.78921 274.4 1.76368 274.498 1.76368C274.596 1.76368 274.693 1.78921 274.778 1.83784C274.864 1.88646 274.936 1.95656 274.987 2.04143L280.574 11.884L286.172 21.7266C286.243 21.8617 286.258 22.0195 286.215 22.1661C286.172 22.3126 286.074 22.4362 285.943 22.5101C285.862 22.556 285.771 22.5808 285.679 22.5824H268.205V22.5847Z" fill="#39D3C6" stroke="#39D3C6" stroke-width="0.3"/>
<path d="M275.745 9.40918C275.635 9.40918 275.529 9.45364 275.452 9.53279C275.374 9.61193 275.33 9.71927 275.33 9.8312V10.8664C275.33 10.9784 275.374 11.0857 275.452 11.1648C275.529 11.244 275.635 11.2884 275.745 11.2884C275.855 11.2878 275.96 11.2431 276.037 11.164C276.115 11.0849 276.158 10.9779 276.158 10.8664V9.8312C276.158 9.71967 276.115 9.61268 276.037 9.53361C275.96 9.45453 275.855 9.4098 275.745 9.40918Z" fill="#39D3C6"/>
<path d="M273.092 9.40918C272.982 9.4098 272.877 9.45453 272.799 9.53361C272.722 9.61268 272.679 9.71967 272.679 9.8312V10.8664C272.679 10.9779 272.722 11.0849 272.799 11.164C272.877 11.2431 272.982 11.2878 273.092 11.2884C273.202 11.2884 273.307 11.244 273.385 11.1648C273.463 11.0857 273.507 10.9784 273.507 10.8664V9.8312C273.507 9.71927 273.463 9.61193 273.385 9.53279C273.307 9.45364 273.202 9.40918 273.092 9.40918Z" fill="#39D3C6"/>
<path d="M272.038 13.1119C271.954 13.1109 271.87 13.1269 271.792 13.159C271.714 13.191 271.643 13.2384 271.583 13.2984C271.523 13.3584 271.476 13.4299 271.443 13.5087C271.411 13.5876 271.394 13.6722 271.393 13.7577C271.392 13.8095 271.397 13.8613 271.409 13.9116C271.585 14.6075 271.983 15.2242 272.542 15.6646C273.1 16.105 273.787 16.344 274.494 16.344C275.201 16.344 275.888 16.105 276.446 15.6646C277.005 15.2242 277.403 14.6075 277.579 13.9116C277.618 13.7434 277.589 13.5666 277.5 13.4197C277.41 13.2729 277.267 13.1681 277.102 13.1282C277.052 13.1169 277.001 13.1114 276.95 13.1119H272.038Z" fill="#39D3C6"/>
<path d="M274.489 16.5789C274.777 16.5782 275.064 16.5414 275.343 16.4693C275.935 16.3147 276.476 16.0012 276.909 15.5615C277.342 15.1218 277.65 14.5721 277.802 13.9698C277.829 13.8565 277.833 13.739 277.815 13.624C277.797 13.509 277.757 13.3988 277.697 13.2996C277.637 13.2004 277.558 13.1142 277.465 13.046C277.372 12.9778 277.267 12.9288 277.155 12.902C277.087 12.8871 277.018 12.8792 276.949 12.8787H272.039C271.925 12.8759 271.811 12.8971 271.705 12.9408C271.6 12.9845 271.504 13.0499 271.424 13.1328C271.342 13.2136 271.277 13.3104 271.232 13.4173C271.188 13.5243 271.165 13.6392 271.165 13.7553C271.163 13.826 271.171 13.8966 271.188 13.9652C271.375 14.711 271.801 15.3724 272.399 15.8455C272.996 16.3185 273.732 16.5765 274.489 16.5789ZM276.956 13.345C276.987 13.3453 277.019 13.3492 277.05 13.3566C277.103 13.3687 277.152 13.3913 277.196 13.4231C277.241 13.455 277.278 13.4953 277.307 13.542C277.335 13.5886 277.354 13.6406 277.363 13.6948C277.372 13.749 277.37 13.8045 277.357 13.8579C277.198 14.5086 276.829 15.0865 276.31 15.4995C275.79 15.9126 275.149 16.1369 274.489 16.1369C273.829 16.1369 273.189 15.9126 272.669 15.4995C272.149 15.0865 271.78 14.5086 271.621 13.8579C271.618 13.8262 271.618 13.7941 271.621 13.7623C271.622 13.7076 271.632 13.6535 271.653 13.6031C271.674 13.5527 271.705 13.507 271.743 13.4685C271.781 13.43 271.827 13.3996 271.877 13.3791C271.927 13.3587 271.98 13.3487 272.034 13.3496H276.956V13.345Z" fill="#39D3C6"/>
<path d="M275.034 13.1467H273.742V13.5431C273.742 13.7169 273.81 13.8835 273.931 14.0064C274.052 14.1293 274.216 14.1983 274.387 14.1983C274.558 14.1983 274.722 14.1293 274.843 14.0064C274.964 13.8835 275.032 13.7169 275.032 13.5431V13.1467H275.034Z" fill="white"/>
<path d="M274.489 16.5789C274.777 16.5782 275.064 16.5414 275.343 16.4693C275.935 16.3147 276.476 16.0012 276.909 15.5615C277.342 15.1218 277.65 14.5721 277.802 13.9698C277.829 13.8565 277.833 13.739 277.815 13.624C277.797 13.509 277.757 13.3988 277.697 13.2996C277.637 13.2004 277.558 13.1142 277.465 13.046C277.372 12.9778 277.267 12.9288 277.155 12.902C277.087 12.8871 277.018 12.8792 276.949 12.8787H272.039C271.925 12.8759 271.811 12.8971 271.705 12.9408C271.6 12.9845 271.504 13.0499 271.424 13.1328C271.342 13.2136 271.277 13.3104 271.232 13.4173C271.188 13.5243 271.165 13.6392 271.165 13.7553C271.163 13.826 271.171 13.8966 271.188 13.9652C271.375 14.711 271.801 15.3724 272.399 15.8455C272.996 16.3185 273.732 16.5765 274.489 16.5789ZM276.956 13.345C276.987 13.3453 277.019 13.3492 277.05 13.3566C277.103 13.3687 277.152 13.3913 277.196 13.4231C277.241 13.455 277.278 13.4953 277.307 13.542C277.335 13.5886 277.354 13.6406 277.363 13.6948C277.372 13.749 277.37 13.8045 277.357 13.8579C277.198 14.5086 276.829 15.0865 276.31 15.4995C275.79 15.9126 275.149 16.1369 274.489 16.1369C273.829 16.1369 273.189 15.9126 272.669 15.4995C272.149 15.0865 271.78 14.5086 271.621 13.8579C271.618 13.8262 271.618 13.7941 271.621 13.7623C271.622 13.7076 271.632 13.6535 271.653 13.6031C271.674 13.5527 271.705 13.507 271.743 13.4685C271.781 13.43 271.827 13.3996 271.877 13.3791C271.927 13.3587 271.98 13.3487 272.034 13.3496H276.956V13.345Z" fill="#39D3C6"/>
</svg>
