<svg width="288" height="44" viewBox="0 0 288 44" fill="none" xmlns="http://www.w3.org/2000/svg">
<rect y="36" width="288" height="8" rx="4" fill="#F5F5F5"/>
<rect y="36" width="57.6" height="8" rx="4" fill="#F5F5F5"/>
<rect y="36" width="57.6" height="8" rx="4" fill="#39D3C6"/>
<g clip-path="url(#clip0_862_309)">
<path d="M276.221 21.0339V20.82C276.221 20.6144 276.045 20.4425 275.841 20.4425C275.637 20.4425 275.461 20.6144 275.461 20.82V21.1687V22.2302V28.2956V33.0873V35.9999V36.1499H275.611H276.071H276.221V35.9999V33.0873V28.4456H284.986C285.192 28.4456 285.402 28.3254 285.49 28.1296L285.49 28.1297L285.492 28.1244C285.571 27.9288 285.555 27.7152 285.405 27.545C285.405 27.5447 285.405 27.5445 285.404 27.5443L282.978 24.7324L285.404 21.9353C285.405 21.9351 285.405 21.9349 285.405 21.9347C285.553 21.7662 285.573 21.5372 285.491 21.3525C285.401 21.132 285.182 21.0339 284.986 21.0339H276.221ZM276.221 27.7059V22.2302V21.7737H284.549L282.285 24.3748C282.097 24.5832 282.097 24.8963 282.285 25.1048L284.549 27.7059H276.221Z" fill="#39D3C6" stroke="#39D3C6" stroke-width="0.3"/>
</g>
<path d="M46.5285 21.5523L52.1153 11.7106L57.7113 1.86893C57.8373 1.65756 58.0408 1.50568 58.277 1.44666C58.5132 1.38764 58.7627 1.42631 58.9709 1.55416C59.0973 1.6325 59.2035 1.74042 59.2806 1.86893L64.872 11.7106L70.4702 21.5523C70.5875 21.7687 70.6154 22.0236 70.5479 22.261C70.4803 22.4984 70.3229 22.6988 70.11 22.8183C69.9804 22.8926 69.8344 22.9327 69.6856 22.9349H52.214C52.1973 22.9346 52.1809 22.9385 52.1661 22.9462C52.1512 22.9539 52.1385 22.9653 52.1291 22.9792C51.0691 24.5927 50.4588 25.3108 48.3824 25.5766C48.3138 25.5839 48.2451 25.5635 48.1911 25.5199C48.137 25.4763 48.1019 25.413 48.0933 25.3434C48.0897 25.308 48.0931 25.2722 48.1033 25.2382C48.1136 25.2041 48.1305 25.1725 48.153 25.1453C48.6669 24.5181 48.9973 24.3059 49.0409 23.0468C49.0412 23.033 49.0388 23.0193 49.0339 23.0065C49.029 22.9936 49.0216 22.9819 49.0123 22.9719C49.0029 22.962 48.9917 22.954 48.9793 22.9484C48.9669 22.9429 48.9535 22.9399 48.9399 22.9396H47.3178C47.1598 22.9368 47.0053 22.8926 46.869 22.8114C46.7327 22.7301 46.6195 22.6145 46.5401 22.4756C46.4607 22.3368 46.4179 22.1795 46.4159 22.019C46.4139 21.8584 46.4527 21.7001 46.5285 21.5593V21.5523Z" fill="white"/>
<path d="M48.3547 25.9286H48.4166C50.5367 25.6534 51.2663 24.9072 52.3447 23.2843H69.6857C69.9035 23.2814 70.1168 23.2211 70.3048 23.1094C70.4929 22.9976 70.6492 22.8383 70.7585 22.6468C70.8679 22.4553 70.9265 22.2383 70.9286 22.017C70.9308 21.7956 70.8765 21.5775 70.7709 21.3838L65.1703 11.5343L59.5789 1.69166C59.4666 1.50241 59.3081 1.34586 59.1188 1.23719C58.9294 1.12852 58.7157 1.07141 58.4982 1.07141C58.2808 1.07141 58.067 1.12852 57.8777 1.23719C57.6883 1.34586 57.5298 1.50241 57.4176 1.69166L51.8169 11.5343L46.2255 21.3838C46.1293 21.5663 46.0766 21.7692 46.0718 21.9761C46.0687 22.1446 46.0984 22.3119 46.159 22.4687C46.2196 22.6255 46.31 22.7686 46.4251 22.8899C46.5402 23.0111 46.6776 23.1082 46.8296 23.1754C46.9815 23.2427 47.145 23.2789 47.3108 23.2819H48.6736C48.6712 23.5445 48.6164 23.8038 48.5127 24.0442C48.409 24.2847 48.2585 24.5013 48.0702 24.681C48.0082 24.751 47.9463 24.8256 47.8798 24.9142C47.806 25.0039 47.7587 25.113 47.7435 25.2288C47.7283 25.3447 47.7457 25.4626 47.7937 25.5688C47.8418 25.675 47.9185 25.7652 48.0149 25.8289C48.1114 25.8925 48.2236 25.9271 48.3386 25.9286H48.3547ZM52.2047 22.5847C52.1339 22.5856 52.0644 22.6038 52.002 22.6379C51.9397 22.672 51.8864 22.721 51.8468 22.7806C50.8235 24.3359 50.2843 24.9399 48.552 25.201L48.5979 25.1451C49.0293 24.6414 49.3436 24.2753 49.3849 23.0464C49.3893 22.9339 49.3522 22.8237 49.281 22.7374C49.2097 22.6512 49.1093 22.5951 48.9994 22.5801H48.9375H47.3176C47.2432 22.5786 47.1699 22.5621 47.1018 22.5317C47.0336 22.5013 46.9721 22.4575 46.9207 22.4028C46.8152 22.2916 46.7574 22.1423 46.7601 21.9878C46.762 21.8941 46.7856 21.8023 46.8289 21.7196L52.4135 11.884L58.0095 2.04143C58.0608 1.95656 58.1327 1.88646 58.2182 1.83784C58.3038 1.78921 58.4002 1.76368 58.4982 1.76368C58.5962 1.76368 58.6926 1.78921 58.7782 1.83784C58.8637 1.88646 58.9356 1.95656 58.9869 2.04143L64.5738 11.884L70.1721 21.7266C70.2426 21.8617 70.258 22.0195 70.2151 22.1661C70.1722 22.3126 70.0744 22.4362 69.9426 22.5101C69.8619 22.556 69.7713 22.5808 69.6788 22.5824H52.2047V22.5847Z" fill="#39D3C6" stroke="#39D3C6" stroke-width="0.3"/>
<path d="M59.7452 9.40918C59.6351 9.40918 59.5294 9.45364 59.4516 9.53279C59.3737 9.61193 59.3299 9.71927 59.3299 9.8312V10.8664C59.3299 10.9784 59.3737 11.0857 59.4516 11.1648C59.5294 11.244 59.6351 11.2884 59.7452 11.2884C59.855 11.2878 59.96 11.2431 60.0374 11.164C60.1148 11.0849 60.1582 10.9779 60.1582 10.8664V9.8312C60.1582 9.71967 60.1148 9.61268 60.0374 9.53361C59.96 9.45453 59.855 9.4098 59.7452 9.40918Z" fill="#39D3C6"/>
<path d="M57.0916 9.40918C56.9818 9.4098 56.8768 9.45453 56.7994 9.53361C56.722 9.61268 56.6786 9.71967 56.6786 9.8312V10.8664C56.6786 10.9779 56.722 11.0849 56.7994 11.164C56.8768 11.2431 56.9818 11.2878 57.0916 11.2884C57.2017 11.2884 57.3073 11.244 57.3852 11.1648C57.4631 11.0857 57.5068 10.9784 57.5068 10.8664V9.8312C57.5068 9.71927 57.4631 9.61193 57.3852 9.53279C57.3073 9.45364 57.2017 9.40918 57.0916 9.40918Z" fill="#39D3C6"/>
<path d="M56.038 13.1119C55.9539 13.1109 55.8704 13.1269 55.7924 13.159C55.7143 13.191 55.6433 13.2384 55.5834 13.2984C55.5234 13.3584 55.4758 13.4299 55.4432 13.5087C55.4106 13.5876 55.3936 13.6722 55.3933 13.7577C55.3918 13.8095 55.3972 13.8613 55.4094 13.9116C55.585 14.6075 55.9834 15.2242 56.5419 15.6646C57.1004 16.105 57.7872 16.344 58.4942 16.344C59.2011 16.344 59.8879 16.105 60.4464 15.6646C61.0049 15.2242 61.4033 14.6075 61.5789 13.9116C61.6175 13.7434 61.5889 13.5666 61.4995 13.4197C61.4101 13.2729 61.267 13.1681 61.1017 13.1282C61.052 13.1169 61.0012 13.1114 60.9503 13.1119H56.038Z" fill="#39D3C6"/>
<path d="M58.4893 16.5789C58.7771 16.5782 59.0638 16.5414 59.3428 16.4693C59.9354 16.3147 60.4764 16.0012 60.909 15.5615C61.3417 15.1218 61.6502 14.5721 61.8023 13.9698C61.829 13.8565 61.8333 13.739 61.8152 13.624C61.7971 13.509 61.7568 13.3988 61.6967 13.2996C61.6366 13.2004 61.5579 13.1142 61.465 13.046C61.3721 12.9778 61.2669 12.9288 61.1553 12.902C61.0875 12.8871 61.0183 12.8792 60.9488 12.8787H56.0389C55.9247 12.8759 55.8112 12.8971 55.7055 12.9408C55.5997 12.9845 55.5039 13.0499 55.424 13.1328C55.342 13.2136 55.2768 13.3104 55.2322 13.4173C55.1877 13.5243 55.1648 13.6392 55.1647 13.7553C55.1632 13.826 55.1709 13.8966 55.1877 13.9652C55.3753 14.711 55.8013 15.3724 56.3989 15.8455C56.9965 16.3185 57.7318 16.5765 58.4893 16.5789ZM60.9557 13.345C60.9874 13.3453 61.019 13.3492 61.0498 13.3566C61.1025 13.3687 61.1524 13.3913 61.1965 13.4231C61.2406 13.455 61.278 13.4953 61.3066 13.542C61.3352 13.5886 61.3544 13.6406 61.3631 13.6948C61.3718 13.749 61.3698 13.8045 61.3572 13.8579C61.1982 14.5086 60.8294 15.0865 60.3096 15.4995C59.7899 15.9126 59.1491 16.1369 58.4893 16.1369C57.8295 16.1369 57.1887 15.9126 56.6689 15.4995C56.1492 15.0865 55.7804 14.5086 55.6213 13.8579C55.6176 13.8262 55.6176 13.7941 55.6213 13.7623C55.6215 13.7076 55.6324 13.6535 55.6533 13.6031C55.6741 13.5527 55.7046 13.507 55.7429 13.4685C55.7812 13.43 55.8267 13.3996 55.8768 13.3791C55.9268 13.3587 55.9804 13.3487 56.0343 13.3496H60.9557V13.345Z" fill="#39D3C6"/>
<path d="M59.0342 13.1467H57.7425V13.5431C57.7425 13.7169 57.8104 13.8835 57.9313 14.0064C58.0522 14.1293 58.2162 14.1983 58.3872 14.1983C58.5582 14.1983 58.7221 14.1293 58.8431 14.0064C58.964 13.8835 59.0319 13.7169 59.0319 13.5431V13.1467H59.0342Z" fill="white"/>
<path d="M58.4893 16.5789C58.7771 16.5782 59.0638 16.5414 59.3428 16.4693C59.9354 16.3147 60.4764 16.0012 60.909 15.5615C61.3417 15.1218 61.6502 14.5721 61.8023 13.9698C61.829 13.8565 61.8333 13.739 61.8152 13.624C61.7971 13.509 61.7568 13.3988 61.6967 13.2996C61.6366 13.2004 61.5579 13.1142 61.465 13.046C61.3721 12.9778 61.2669 12.9288 61.1553 12.902C61.0875 12.8871 61.0183 12.8792 60.9488 12.8787H56.0389C55.9247 12.8759 55.8112 12.8971 55.7055 12.9408C55.5997 12.9845 55.5039 13.0499 55.424 13.1328C55.342 13.2136 55.2768 13.3104 55.2322 13.4173C55.1877 13.5243 55.1648 13.6392 55.1647 13.7553C55.1632 13.826 55.1709 13.8966 55.1877 13.9652C55.3753 14.711 55.8013 15.3724 56.3989 15.8455C56.9965 16.3185 57.7318 16.5765 58.4893 16.5789ZM60.9557 13.345C60.9874 13.3453 61.019 13.3492 61.0498 13.3566C61.1025 13.3687 61.1524 13.3913 61.1965 13.4231C61.2406 13.455 61.278 13.4953 61.3066 13.542C61.3352 13.5886 61.3544 13.6406 61.3631 13.6948C61.3718 13.749 61.3698 13.8045 61.3572 13.8579C61.1982 14.5086 60.8294 15.0865 60.3096 15.4995C59.7899 15.9126 59.1491 16.1369 58.4893 16.1369C57.8295 16.1369 57.1887 15.9126 56.6689 15.4995C56.1492 15.0865 55.7804 14.5086 55.6213 13.8579C55.6176 13.8262 55.6176 13.7941 55.6213 13.7623C55.6215 13.7076 55.6324 13.6535 55.6533 13.6031C55.6741 13.5527 55.7046 13.507 55.7429 13.4685C55.7812 13.43 55.8267 13.3996 55.8768 13.3791C55.9268 13.3587 55.9804 13.3487 56.0343 13.3496H60.9557V13.345Z" fill="#39D3C6"/>
<defs>
<clipPath id="clip0_862_309">
<rect width="16" height="16" fill="white" transform="translate(272 20)"/>
</clipPath>
</defs>
</svg>
