<svg width="288" height="44" viewBox="0 0 288 44" fill="none" xmlns="http://www.w3.org/2000/svg">
<rect y="36" width="288" height="8" rx="4" fill="#F5F5F5"/>
<g clip-path="url(#clip0_862_334)">
<path d="M276.221 21.0339V20.82C276.221 20.6144 276.045 20.4425 275.841 20.4425C275.637 20.4425 275.461 20.6144 275.461 20.82V21.1687V22.2302V28.2956V33.0873V35.9999V36.1499H275.611H276.071H276.221V35.9999V33.0873V28.4456H284.986C285.192 28.4456 285.402 28.3254 285.49 28.1296L285.49 28.1297L285.492 28.1244C285.571 27.9288 285.555 27.7152 285.405 27.545C285.405 27.5447 285.405 27.5445 285.404 27.5443L282.978 24.7324L285.404 21.9353C285.405 21.9351 285.405 21.9349 285.405 21.9347C285.553 21.7662 285.573 21.5372 285.491 21.3525C285.401 21.132 285.182 21.0339 284.986 21.0339H276.221ZM276.221 27.7059V22.2302V21.7737H284.549L282.285 24.3748C282.097 24.5832 282.097 24.8963 282.285 25.1048L284.549 27.7059H276.221Z" fill="#39D3C6" stroke="#39D3C6" stroke-width="0.3"/>
</g>
<path d="M218.529 21.5523L224.115 11.7106L229.711 1.86893C229.837 1.65756 230.041 1.50568 230.277 1.44666C230.513 1.38764 230.763 1.42631 230.971 1.55416C231.097 1.6325 231.204 1.74042 231.281 1.86893L236.872 11.7106L242.47 21.5523C242.587 21.7687 242.615 22.0236 242.548 22.261C242.48 22.4984 242.323 22.6988 242.11 22.8183C241.98 22.8926 241.834 22.9327 241.686 22.9349H224.214C224.197 22.9346 224.181 22.9385 224.166 22.9462C224.151 22.9539 224.139 22.9653 224.129 22.9792C223.069 24.5927 222.459 25.3108 220.382 25.5766C220.314 25.5839 220.245 25.5635 220.191 25.5199C220.137 25.4763 220.102 25.413 220.093 25.3434C220.09 25.308 220.093 25.2722 220.103 25.2382C220.114 25.2041 220.13 25.1725 220.153 25.1453C220.667 24.5181 220.997 24.3059 221.041 23.0468C221.041 23.033 221.039 23.0193 221.034 23.0065C221.029 22.9936 221.022 22.9819 221.012 22.9719C221.003 22.962 220.992 22.954 220.979 22.9484C220.967 22.9429 220.953 22.9399 220.94 22.9396H219.318C219.16 22.9368 219.005 22.8926 218.869 22.8114C218.733 22.7301 218.619 22.6145 218.54 22.4756C218.461 22.3368 218.418 22.1795 218.416 22.019C218.414 21.8584 218.453 21.7001 218.529 21.5593V21.5523Z" fill="white"/>
<path d="M220.355 25.9286H220.417C222.537 25.6534 223.266 24.9072 224.345 23.2843H241.686C241.903 23.2814 242.117 23.2211 242.305 23.1094C242.493 22.9976 242.649 22.8383 242.759 22.6468C242.868 22.4553 242.926 22.2383 242.929 22.017C242.931 21.7956 242.876 21.5775 242.771 21.3838L237.17 11.5343L231.579 1.69166C231.467 1.50241 231.308 1.34586 231.119 1.23719C230.929 1.12852 230.716 1.07141 230.498 1.07141C230.281 1.07141 230.067 1.12852 229.878 1.23719C229.688 1.34586 229.53 1.50241 229.418 1.69166L223.817 11.5343L218.226 21.3838C218.129 21.5663 218.077 21.7692 218.072 21.9761C218.069 22.1446 218.098 22.3119 218.159 22.4687C218.22 22.6255 218.31 22.7686 218.425 22.8899C218.54 23.0111 218.678 23.1082 218.83 23.1754C218.982 23.2427 219.145 23.2789 219.311 23.2819H220.674C220.671 23.5445 220.616 23.8038 220.513 24.0442C220.409 24.2847 220.258 24.5013 220.07 24.681C220.008 24.751 219.946 24.8256 219.88 24.9142C219.806 25.0039 219.759 25.113 219.743 25.2288C219.728 25.3447 219.746 25.4626 219.794 25.5688C219.842 25.675 219.918 25.7652 220.015 25.8289C220.111 25.8925 220.224 25.9271 220.339 25.9286H220.355ZM224.205 22.5847C224.134 22.5856 224.064 22.6038 224.002 22.6379C223.94 22.672 223.886 22.721 223.847 22.7806C222.823 24.3359 222.284 24.9399 220.552 25.201L220.598 25.1451C221.029 24.6414 221.344 24.2753 221.385 23.0464C221.389 22.9339 221.352 22.8237 221.281 22.7374C221.21 22.6512 221.109 22.5951 220.999 22.5801H220.937H219.318C219.243 22.5786 219.17 22.5621 219.102 22.5317C219.034 22.5013 218.972 22.4575 218.921 22.4028C218.815 22.2916 218.757 22.1423 218.76 21.9878C218.762 21.8941 218.786 21.8023 218.829 21.7196L224.413 11.884L230.01 2.04143C230.061 1.95656 230.133 1.88646 230.218 1.83784C230.304 1.78921 230.4 1.76368 230.498 1.76368C230.596 1.76368 230.693 1.78921 230.778 1.83784C230.864 1.88646 230.936 1.95656 230.987 2.04143L236.574 11.884L242.172 21.7266C242.243 21.8617 242.258 22.0195 242.215 22.1661C242.172 22.3126 242.074 22.4362 241.943 22.5101C241.862 22.556 241.771 22.5808 241.679 22.5824H224.205V22.5847Z" fill="#39D3C6" stroke="#39D3C6" stroke-width="0.3"/>
<path d="M231.745 9.40918C231.635 9.40918 231.529 9.45364 231.452 9.53279C231.374 9.61193 231.33 9.71927 231.33 9.8312V10.8664C231.33 10.9784 231.374 11.0857 231.452 11.1648C231.529 11.244 231.635 11.2884 231.745 11.2884C231.855 11.2878 231.96 11.2431 232.037 11.164C232.115 11.0849 232.158 10.9779 232.158 10.8664V9.8312C232.158 9.71967 232.115 9.61268 232.037 9.53361C231.96 9.45453 231.855 9.4098 231.745 9.40918Z" fill="#39D3C6"/>
<path d="M229.092 9.40918C228.982 9.4098 228.877 9.45453 228.799 9.53361C228.722 9.61268 228.679 9.71967 228.679 9.8312V10.8664C228.679 10.9779 228.722 11.0849 228.799 11.164C228.877 11.2431 228.982 11.2878 229.092 11.2884C229.202 11.2884 229.307 11.244 229.385 11.1648C229.463 11.0857 229.507 10.9784 229.507 10.8664V9.8312C229.507 9.71927 229.463 9.61193 229.385 9.53279C229.307 9.45364 229.202 9.40918 229.092 9.40918Z" fill="#39D3C6"/>
<path d="M228.038 13.1119C227.954 13.1109 227.87 13.1269 227.792 13.159C227.714 13.191 227.643 13.2384 227.583 13.2984C227.523 13.3584 227.476 13.4299 227.443 13.5087C227.411 13.5876 227.394 13.6722 227.393 13.7577C227.392 13.8095 227.397 13.8613 227.409 13.9116C227.585 14.6075 227.983 15.2242 228.542 15.6646C229.1 16.105 229.787 16.344 230.494 16.344C231.201 16.344 231.888 16.105 232.446 15.6646C233.005 15.2242 233.403 14.6075 233.579 13.9116C233.618 13.7434 233.589 13.5666 233.5 13.4197C233.41 13.2729 233.267 13.1681 233.102 13.1282C233.052 13.1169 233.001 13.1114 232.95 13.1119H228.038Z" fill="#39D3C6"/>
<path d="M230.489 16.5789C230.777 16.5782 231.064 16.5414 231.343 16.4693C231.935 16.3147 232.476 16.0012 232.909 15.5615C233.342 15.1218 233.65 14.5721 233.802 13.9698C233.829 13.8565 233.833 13.739 233.815 13.624C233.797 13.509 233.757 13.3988 233.697 13.2996C233.637 13.2004 233.558 13.1142 233.465 13.046C233.372 12.9778 233.267 12.9288 233.155 12.902C233.087 12.8871 233.018 12.8792 232.949 12.8787H228.039C227.925 12.8759 227.811 12.8971 227.705 12.9408C227.6 12.9845 227.504 13.0499 227.424 13.1328C227.342 13.2136 227.277 13.3104 227.232 13.4173C227.188 13.5243 227.165 13.6392 227.165 13.7553C227.163 13.826 227.171 13.8966 227.188 13.9652C227.375 14.711 227.801 15.3724 228.399 15.8455C228.996 16.3185 229.732 16.5765 230.489 16.5789ZM232.956 13.345C232.987 13.3453 233.019 13.3492 233.05 13.3566C233.103 13.3687 233.152 13.3913 233.196 13.4231C233.241 13.455 233.278 13.4953 233.307 13.542C233.335 13.5886 233.354 13.6406 233.363 13.6948C233.372 13.749 233.37 13.8045 233.357 13.8579C233.198 14.5086 232.829 15.0865 232.31 15.4995C231.79 15.9126 231.149 16.1369 230.489 16.1369C229.829 16.1369 229.189 15.9126 228.669 15.4995C228.149 15.0865 227.78 14.5086 227.621 13.8579C227.618 13.8262 227.618 13.7941 227.621 13.7623C227.622 13.7076 227.632 13.6535 227.653 13.6031C227.674 13.5527 227.705 13.507 227.743 13.4685C227.781 13.43 227.827 13.3996 227.877 13.3791C227.927 13.3587 227.98 13.3487 228.034 13.3496H232.956V13.345Z" fill="#39D3C6"/>
<path d="M231.034 13.1467H229.742V13.5431C229.742 13.7169 229.81 13.8835 229.931 14.0064C230.052 14.1293 230.216 14.1983 230.387 14.1983C230.558 14.1983 230.722 14.1293 230.843 14.0064C230.964 13.8835 231.032 13.7169 231.032 13.5431V13.1467H231.034Z" fill="white"/>
<path d="M230.489 16.5789C230.777 16.5782 231.064 16.5414 231.343 16.4693C231.935 16.3147 232.476 16.0012 232.909 15.5615C233.342 15.1218 233.65 14.5721 233.802 13.9698C233.829 13.8565 233.833 13.739 233.815 13.624C233.797 13.509 233.757 13.3988 233.697 13.2996C233.637 13.2004 233.558 13.1142 233.465 13.046C233.372 12.9778 233.267 12.9288 233.155 12.902C233.087 12.8871 233.018 12.8792 232.949 12.8787H228.039C227.925 12.8759 227.811 12.8971 227.705 12.9408C227.6 12.9845 227.504 13.0499 227.424 13.1328C227.342 13.2136 227.277 13.3104 227.232 13.4173C227.188 13.5243 227.165 13.6392 227.165 13.7553C227.163 13.826 227.171 13.8966 227.188 13.9652C227.375 14.711 227.801 15.3724 228.399 15.8455C228.996 16.3185 229.732 16.5765 230.489 16.5789ZM232.956 13.345C232.987 13.3453 233.019 13.3492 233.05 13.3566C233.103 13.3687 233.152 13.3913 233.196 13.4231C233.241 13.455 233.278 13.4953 233.307 13.542C233.335 13.5886 233.354 13.6406 233.363 13.6948C233.372 13.749 233.37 13.8045 233.357 13.8579C233.198 14.5086 232.829 15.0865 232.31 15.4995C231.79 15.9126 231.149 16.1369 230.489 16.1369C229.829 16.1369 229.189 15.9126 228.669 15.4995C228.149 15.0865 227.78 14.5086 227.621 13.8579C227.618 13.8262 227.618 13.7941 227.621 13.7623C227.622 13.7076 227.632 13.6535 227.653 13.6031C227.674 13.5527 227.705 13.507 227.743 13.4685C227.781 13.43 227.827 13.3996 227.877 13.3791C227.927 13.3587 227.98 13.3487 228.034 13.3496H232.956V13.345Z" fill="#39D3C6"/>
<rect y="36" width="230.4" height="8" rx="4" fill="#39D3C6"/>
<defs>
<clipPath id="clip0_862_334">
<rect width="16" height="16" fill="white" transform="translate(272 20)"/>
</clipPath>
</defs>
</svg>
