<svg width="24" height="24" viewBox="0 0 24 24" fill="none" xmlns="http://www.w3.org/2000/svg">
<path d="M21 22V19.2C21 16.6 19 14.5 16.5 14.5H7.5C5 14.5 3 16.6 3 19.2V22" fill="#39D3C6"/>
<path d="M21 22V19.2C21 16.6 19 14.5 16.5 14.5H7.5C5 14.5 3 16.6 3 19.2V22H21Z" stroke="#39D3C6" stroke-width="2" stroke-linecap="round" stroke-linejoin="round"/>
<path d="M12 10C14.2091 10 16 8.20914 16 6C16 3.79086 14.2091 2 12 2C9.79086 2 8 3.79086 8 6C8 8.20914 9.79086 10 12 10Z" fill="#39D3C6" stroke="#39D3C6" stroke-width="2" stroke-linecap="round" stroke-linejoin="round"/>
</svg>
