<svg width="290" height="44" viewBox="0 0 290 44" fill="none" xmlns="http://www.w3.org/2000/svg">
<rect y="36" width="288" height="8" rx="4" fill="#F5F5F5"/>
<rect y="36" width="57.6" height="8" rx="4" fill="#39D3C6"/>
<path d="M265.339 19.6753V5.89803C265.339 4.95654 265.703 4.05361 266.351 3.38788C266.999 2.72215 267.877 2.34814 268.794 2.34814H282.206C283.122 2.34814 284.001 2.72215 284.649 3.38788C285.297 4.05361 285.661 4.95654 285.661 5.89803V19.6753C285.661 20.1415 285.572 20.6031 285.399 21.0339C285.226 21.4648 284.971 21.8563 284.651 22.1861C284.33 22.516 283.949 22.7777 283.53 22.9564C283.111 23.1351 282.662 23.2272 282.208 23.2275H269.943C269.906 23.2274 269.87 23.2367 269.837 23.2545C269.805 23.2723 269.777 23.2981 269.756 23.3296C268.927 24.6034 267.868 25.4456 266.307 25.6498C266.235 25.659 266.162 25.6382 266.104 25.5921C266.047 25.546 266.009 25.4783 266 25.4038C265.996 25.365 265.999 25.3255 266.01 25.288C266.021 25.2505 266.039 25.2157 266.064 25.1857C266.579 24.5606 266.983 23.8465 267.256 23.0767C267.272 23.0241 267.27 22.9671 267.25 22.916C267.229 22.865 267.191 22.8232 267.143 22.7983C266.596 22.4928 266.14 22.0415 265.823 21.4918C265.505 20.9421 265.338 20.3145 265.339 19.6753Z" fill="white"/>
<path d="M266.274 26H266.348C267.882 25.7981 269.045 25.0302 270.002 23.58H282.197C282.696 23.5804 283.191 23.4796 283.652 23.2835C284.114 23.0874 284.533 22.7998 284.886 22.4372C285.239 22.0745 285.519 21.644 285.71 21.17C285.902 20.6961 286 20.1882 286 19.6752V5.89791C285.999 4.8645 285.599 3.87376 284.887 3.14303C284.176 2.41229 283.212 2.00123 282.206 2H268.796C267.79 2.00061 266.825 2.41133 266.113 3.14207C265.4 3.8728 265 4.86388 264.998 5.89791V19.6752C264.996 20.3612 265.171 21.0354 265.505 21.6295C265.839 22.2236 266.32 22.7164 266.899 23.058C266.643 23.7541 266.273 24.4005 265.806 24.9698C265.73 25.0616 265.682 25.1737 265.666 25.293C265.65 25.4122 265.668 25.5336 265.717 25.6429C265.766 25.7522 265.845 25.8447 265.943 25.9096C266.042 25.9745 266.157 26.0091 266.274 26.0093V26ZM269.941 22.8817C269.849 22.8817 269.759 22.905 269.677 22.9495C269.596 22.994 269.527 23.0584 269.476 23.1369C268.661 24.3898 267.69 25.0742 266.427 25.2831C266.92 24.6571 267.307 23.9514 267.574 23.1949C267.616 23.0639 267.611 22.9219 267.56 22.7943C267.509 22.6668 267.416 22.562 267.297 22.4988C266.803 22.223 266.391 21.8146 266.106 21.3174C265.82 20.8201 265.672 20.2525 265.675 19.6752V5.89791C265.676 5.04851 266.005 4.23411 266.589 3.63372C267.174 3.03332 267.967 2.69606 268.794 2.69606H282.206C283.032 2.69667 283.825 3.03421 284.409 3.63454C284.993 4.23487 285.322 5.04892 285.323 5.89791V19.6752C285.323 20.5246 284.995 21.3395 284.411 21.9407C283.827 22.542 283.035 22.8804 282.208 22.8817H269.941Z" fill="#39D3C6" stroke="#39D3C6" stroke-width="0.3"/>
<path d="M277.364 6.73096C277.31 6.73096 277.257 6.74182 277.208 6.76292C277.158 6.78403 277.113 6.81496 277.075 6.85396C277.037 6.89296 277.007 6.93925 276.986 6.9902C276.966 7.04115 276.955 7.09576 276.955 7.15091V8.18107C276.955 8.23622 276.966 8.29083 276.986 8.34178C277.007 8.39273 277.037 8.43903 277.075 8.47803C277.113 8.51702 277.158 8.54796 277.208 8.56906C277.257 8.59017 277.31 8.60103 277.364 8.60103C277.472 8.60042 277.575 8.5559 277.652 8.47721C277.728 8.39852 277.771 8.29205 277.771 8.18107V7.15091C277.771 7.03993 277.728 6.93347 277.652 6.85478C277.575 6.77609 277.472 6.73157 277.364 6.73096Z" fill="#39D3C6" stroke="#39D3C6" stroke-width="0.1"/>
<path d="M273.637 6.73096C273.529 6.73096 273.425 6.7752 273.348 6.85396C273.272 6.93272 273.229 7.03953 273.229 7.15091V8.18107C273.229 8.29245 273.272 8.39927 273.348 8.47803C273.425 8.55678 273.529 8.60103 273.637 8.60103C273.745 8.60042 273.849 8.5559 273.925 8.47721C274.001 8.39852 274.044 8.29205 274.044 8.18107V7.15091C274.044 7.03993 274.001 6.93347 273.925 6.85478C273.849 6.77609 273.745 6.73157 273.637 6.73096Z" fill="#39D3C6" stroke="#39D3C6" stroke-width="0.1"/>
<path d="M273.921 10.6475H277.005C277.108 10.6558 277.202 10.7049 277.269 10.7843C277.337 10.8637 277.371 10.9671 277.365 11.0721V13.0048C277.371 13.1098 277.337 13.2131 277.269 13.2925C277.202 13.3719 277.108 13.421 277.005 13.4294H273.921C273.818 13.4216 273.724 13.3726 273.657 13.293C273.59 13.2133 273.556 13.1097 273.564 13.0048V11.0721C273.556 10.9671 273.59 10.8635 273.657 10.7839C273.724 10.7042 273.818 10.6552 273.921 10.6475Z" fill="#39D3C6"/>
<path d="M277.005 13.6612C277.086 13.6568 277.166 13.6358 277.24 13.5995C277.313 13.5633 277.379 13.5124 277.434 13.4499C277.488 13.3873 277.53 13.3143 277.557 13.2351C277.583 13.1559 277.595 13.0721 277.59 12.9884V11.0719C277.597 10.9078 277.542 10.7471 277.435 10.6244C277.329 10.5017 277.18 10.4266 277.021 10.4153H273.904C273.742 10.4278 273.592 10.5055 273.486 10.6316C273.379 10.7577 273.326 10.9218 273.337 11.0881V13.0046C273.329 13.1685 273.384 13.3292 273.49 13.4519C273.596 13.5747 273.745 13.6499 273.904 13.6612H277.005ZM277.005 10.877C277.045 10.8838 277.08 10.9058 277.105 10.9384C277.13 10.9711 277.141 11.0121 277.138 11.0533V13.0023C277.141 13.025 277.139 13.0481 277.133 13.0702C277.127 13.0923 277.117 13.1129 277.103 13.1309C277.089 13.1488 277.072 13.1638 277.052 13.1747C277.033 13.1857 277.011 13.1926 276.989 13.1949H273.92C273.881 13.1875 273.845 13.1654 273.821 13.1327C273.797 13.1001 273.786 13.0594 273.789 13.0185V11.0719C273.783 11.0274 273.795 10.9822 273.821 10.9462C273.847 10.9102 273.886 10.8862 273.929 10.8793L277.005 10.877Z" fill="#39D3C6"/>
<path d="M276.389 10.7542H274.537V11.5941C274.537 11.6488 274.558 11.7013 274.596 11.7401C274.633 11.7788 274.685 11.8006 274.738 11.8006H276.188C276.241 11.8006 276.292 11.7788 276.33 11.7401C276.367 11.7013 276.389 11.6488 276.389 11.5941V10.7542Z" fill="white"/>
<path d="M277.005 13.6612C277.086 13.6568 277.166 13.6358 277.24 13.5995C277.313 13.5633 277.379 13.5124 277.434 13.4499C277.488 13.3873 277.53 13.3143 277.557 13.2351C277.583 13.1559 277.595 13.0721 277.59 12.9884V11.0719C277.597 10.9078 277.542 10.7471 277.435 10.6244C277.329 10.5017 277.18 10.4266 277.021 10.4153H273.904C273.742 10.4278 273.592 10.5055 273.486 10.6316C273.379 10.7577 273.326 10.9218 273.337 11.0881V13.0046C273.329 13.1685 273.384 13.3292 273.49 13.4519C273.596 13.5747 273.745 13.6499 273.904 13.6612H277.005ZM277.005 10.877C277.045 10.8838 277.08 10.9058 277.105 10.9384C277.13 10.9711 277.141 11.0121 277.138 11.0533V13.0023C277.141 13.025 277.139 13.0481 277.133 13.0702C277.127 13.0923 277.117 13.1129 277.103 13.1309C277.089 13.1488 277.072 13.1638 277.052 13.1747C277.033 13.1857 277.011 13.1926 276.989 13.1949H273.92C273.881 13.1875 273.845 13.1654 273.821 13.1327C273.797 13.1001 273.786 13.0594 273.789 13.0185V11.0719C273.783 11.0274 273.795 10.9822 273.821 10.9462C273.847 10.9102 273.886 10.8862 273.929 10.8793L277.005 10.877Z" fill="#39D3C6" stroke="#39D3C6" stroke-width="0.1"/>
<circle cx="57.9997" cy="14" r="11.6667" fill="#DFF8F6"/>
<path d="M49.4509 21.628C49.3647 21.4443 49.2496 21.2756 49.1101 21.1283C48.7927 20.7344 48.5042 20.3181 48.2467 19.8827C47.2062 18.0969 46.6647 16.0643 46.6787 13.9976C46.6793 11.479 47.5196 9.03258 49.0668 7.0453C50.614 5.05803 52.7796 3.64338 55.2211 3.02519C57.6626 2.40699 60.2405 2.62055 62.547 3.63207C64.8534 4.64359 66.7568 6.39532 67.9558 8.6101C69.1549 10.8249 69.5812 13.3762 69.1674 15.8605C68.7535 18.3448 67.5231 20.6202 65.6708 22.3266C63.8185 24.0331 61.45 25.0732 58.9402 25.2823C56.4304 25.4915 53.9224 24.8578 51.8132 23.4815C51.7627 23.4479 51.7011 23.4356 51.6416 23.4473C51.5821 23.4589 51.5296 23.4935 51.4955 23.5436L51.3965 23.6933C51.3965 23.6933 50.4617 25.0633 48.3388 25.3188C48.2664 25.3301 48.1926 25.3122 48.1334 25.269C48.0743 25.2258 48.0347 25.1609 48.0233 25.0886C48.0166 25.0475 48.0193 25.0054 48.0313 24.9655C48.0432 24.9256 48.0642 24.889 48.0924 24.8584C48.753 24.1036 49.2166 23.1971 49.4417 22.2197C49.4988 22.027 49.502 21.8223 49.4509 21.628Z" fill="white"/>
<path d="M48.296 25.6676C48.329 25.6698 48.362 25.6698 48.395 25.6676C50.633 25.3982 51.6415 23.9569 51.683 23.897L51.7129 23.8303C53.5864 25.0325 55.7656 25.6718 57.9917 25.6722C61.0875 25.6738 64.057 24.4455 66.2471 22.2575C68.4372 20.0696 69.6684 17.1013 69.6699 14.0056C69.6714 10.9099 68.4431 7.94032 66.2552 5.75024C64.0673 3.56015 61.099 2.32892 58.0033 2.32739V2.32739C54.9106 2.33105 51.9456 3.56107 49.7585 5.7477C47.5715 7.93434 46.3409 10.8991 46.3366 13.9918C46.3224 16.1196 46.879 18.2122 47.9483 20.0519C48.2161 20.501 48.5146 20.931 48.8417 21.339L48.8601 21.3597C48.9662 21.4729 49.0554 21.6009 49.1249 21.7396C49.155 21.8682 49.1503 22.0026 49.1111 22.1287C48.8995 23.0582 48.4604 23.9206 47.8332 24.6384C47.7708 24.707 47.7247 24.7888 47.6984 24.8777C47.6721 24.9667 47.6662 25.0604 47.6812 25.1519C47.7071 25.2962 47.7828 25.4269 47.8952 25.5212C48.0075 25.6154 48.1494 25.6672 48.296 25.6676ZM58.001 3.01814C60.9119 3.01814 63.7037 4.17453 65.7621 6.23291C67.8205 8.2913 68.9769 11.0831 68.9769 13.9941C68.9769 16.9051 67.8205 19.6968 65.7621 21.7552C63.7037 23.8136 60.9119 24.97 58.001 24.97C55.8744 24.9698 53.7941 24.3497 52.0145 23.1856C51.888 23.1037 51.7346 23.0743 51.5868 23.1035C51.439 23.1327 51.3083 23.2183 51.2225 23.3421L51.1211 23.4964C51.0912 23.5401 50.2876 24.6684 48.4779 24.947C49.1154 24.1759 49.5648 23.267 49.7903 22.2922C49.8596 22.0444 49.8596 21.7824 49.7903 21.5347L49.7696 21.4748C49.6692 21.2629 49.5364 21.0679 49.3759 20.8969C49.0728 20.5183 48.7966 20.119 48.5493 19.7019C47.5415 17.9694 47.0167 15.9983 47.0296 13.9941C47.0333 11.085 48.1902 8.29603 50.2468 6.23857C52.3034 4.18111 55.0919 3.02301 58.001 3.01814Z" fill="#39D3C6" stroke="#39D3C6" stroke-width="0.3"/>
<path d="M65.053 10.6177C64.9428 10.6183 64.8374 10.6625 64.7598 10.7405C64.6821 10.8186 64.6385 10.9243 64.6385 11.0344V12.0567C64.6385 12.1669 64.6821 12.2725 64.7598 12.3506C64.8374 12.4287 64.9428 12.4729 65.053 12.4735C65.1635 12.4735 65.2695 12.4296 65.3477 12.3514C65.4258 12.2733 65.4697 12.1673 65.4697 12.0567V11.0344C65.4697 10.9239 65.4258 10.8179 65.3477 10.7397C65.2695 10.6616 65.1635 10.6177 65.053 10.6177Z" fill="#39D3C6" stroke="#39D3C6" stroke-width="0.1"/>
<path d="M61.2532 10.6177C61.143 10.6183 61.0376 10.6625 60.96 10.7405C60.8823 10.8186 60.8387 10.9243 60.8387 11.0344V12.0567C60.8387 12.1669 60.8823 12.2725 60.96 12.3506C61.0376 12.4287 61.143 12.4729 61.2532 12.4735C61.3637 12.4735 61.4697 12.4296 61.5479 12.3514C61.626 12.2733 61.6699 12.1673 61.6699 12.0567V11.0344C61.6699 10.9239 61.626 10.8179 61.5479 10.7397C61.4697 10.6616 61.3637 10.6177 61.2532 10.6177Z" fill="#39D3C6" stroke="#39D3C6" stroke-width="0.1"/>
<path d="M63.0286 16.2773C63.1364 16.2772 63.244 16.2703 63.3509 16.2566C63.3963 16.2506 63.44 16.2356 63.4796 16.2127C63.5192 16.1898 63.5539 16.1592 63.5817 16.1229C63.6095 16.0865 63.6298 16.0451 63.6416 16.0009C63.6534 15.9566 63.6563 15.9105 63.6503 15.8652C63.6442 15.8198 63.6293 15.7761 63.6064 15.7365C63.5834 15.6969 63.5529 15.6623 63.5165 15.6345C63.4802 15.6067 63.4387 15.5863 63.3945 15.5745C63.3503 15.5628 63.3042 15.5598 63.2588 15.5659C62.8851 15.6171 62.5049 15.5435 62.1773 15.3566C61.8496 15.1697 61.5929 14.8798 61.4468 14.5321C61.4296 14.49 61.4042 14.4518 61.3722 14.4196C61.3402 14.3873 61.3022 14.3617 61.2602 14.3442C61.2183 14.3267 61.1734 14.3175 61.128 14.3174C61.0825 14.3172 61.0375 14.326 60.9955 14.3432C60.9535 14.3605 60.9153 14.3858 60.883 14.4178C60.8508 14.4498 60.8252 14.4879 60.8076 14.5298C60.7901 14.5717 60.781 14.6166 60.7808 14.6621C60.7807 14.7075 60.7895 14.7525 60.8067 14.7945C60.9894 15.2334 61.2978 15.6083 61.6932 15.8722C62.0886 16.1361 62.5532 16.277 63.0286 16.2773Z" fill="#39D3C6" stroke="#39D3C6" stroke-width="0.1"/>
</svg>
