<svg width="292" height="54" viewBox="0 0 292 54" fill="none" xmlns="http://www.w3.org/2000/svg">
<path d="M1.612 27.566C3.653 27.397 5.226 26.721 5.954 25.668C6.682 26.721 8.255 27.397 10.296 27.566L10.712 26.552C8.32 26.37 6.851 25.499 6.721 24.433H10.205V23.38H6.63V22.223H5.291V23.38H1.703V24.433H5.2C5.07 25.499 3.588 26.37 1.209 26.552L1.612 27.566ZM11.271 29.191V28.112H0.65V29.191H5.291V30.374H1.833V31.44H8.632V33.988H9.971V30.374H6.63V29.191H11.271ZM15.791 30.374C14.842 30.374 14.153 29.724 14.153 28.736C14.153 27.748 14.842 27.098 15.791 27.098C16.74 27.098 17.429 27.748 17.429 28.736C17.429 29.724 16.74 30.374 15.791 30.374ZM15.791 25.993C14.101 25.993 12.879 27.137 12.879 28.736C12.879 30.348 14.101 31.479 15.791 31.479C17.468 31.479 18.703 30.348 18.703 28.736C18.703 27.137 17.468 25.993 15.791 25.993ZM16.441 22.431H15.102V24.069H12.307V25.161H19.184V24.069H16.441V22.431ZM23.292 26.981H21.485V22.262H20.133V34.014H21.485V28.099H23.292V26.981ZM31.023 23.38H28.228V22.158H26.889V23.38H24.094V24.459H31.023V23.38ZM25.992 26.955C25.992 26.292 26.616 25.889 27.552 25.889C28.488 25.889 29.125 26.292 29.125 26.955C29.125 27.631 28.488 28.034 27.552 28.034C26.616 28.034 25.992 27.631 25.992 26.955ZM30.399 26.955C30.399 25.72 29.255 24.888 27.552 24.888C25.862 24.888 24.705 25.72 24.705 26.955C24.705 28.203 25.862 29.035 27.552 29.035C29.255 29.035 30.399 28.203 30.399 26.955ZM31.92 32.792H27.071V31.713H31.92V32.792ZM31.92 30.673H27.071V29.594H25.745V33.858H33.246V29.594H31.92V30.673ZM34.91 25.187H33.246V22.262H31.907V29.113H33.246V26.292H34.91V25.187ZM37.805 23.406H36.479V31.037H37.48C39.3 31.037 41.198 30.894 43.213 30.478L43.07 29.36C41.224 29.737 39.469 29.88 37.805 29.893V23.406ZM44.149 22.262V34.001H45.488V22.262H44.149ZM49.3059 24.459H53.4269V23.367H47.9669V31.128H48.9289C51.0479 31.128 52.6339 31.063 54.4149 30.738L54.2719 29.633C52.6339 29.919 51.2039 29.997 49.3059 30.01V24.459ZM58.4189 26.773H56.5859V22.249H55.2469V34.014H56.5859V27.878H58.4189V26.773ZM60.2739 29.945H61.2749L61.4829 24.745L61.5349 23.211H60.0269L60.0659 24.745L60.2739 29.945ZM60.7679 33.169C61.3399 33.169 61.7819 32.74 61.7819 32.129C61.7819 31.518 61.3399 31.063 60.7679 31.063C60.2089 31.063 59.7799 31.518 59.7799 32.129C59.7799 32.74 60.2089 33.169 60.7679 33.169ZM67.0589 28.918C68.4499 28.502 69.4639 27.631 69.9709 26.5C70.4909 27.579 71.5049 28.411 72.8829 28.801L73.4809 27.761C71.7519 27.293 70.7119 26.123 70.6339 24.797H73.1949V23.718H70.6339V22.353H69.2949V23.718H66.7469V24.797H69.2819C69.2169 26.175 68.1899 27.397 66.4479 27.878L67.0589 28.918ZM70.6339 28.541H69.2949V30.556C68.1639 30.595 67.0589 30.595 66.1359 30.595L66.3049 31.7C68.3849 31.7 71.1929 31.687 73.7799 31.167L73.6759 30.192C72.7009 30.348 71.6609 30.439 70.6339 30.491V28.541ZM74.3909 22.249V34.027H75.7429V22.249H74.3909ZM79.4959 24.745H82.5249V23.653H78.1829V31.206H78.9629C80.6139 31.206 81.8229 31.154 83.2399 30.881L83.1229 29.776C81.9139 30.023 80.8479 30.088 79.4959 30.101V24.745ZM86.5289 22.249V26.89H85.1379V22.496H83.8769V33.416H85.1379V27.982H86.5289V33.988H87.8029V22.249H86.5289ZM93.8228 27.761H96.6828V23.497H92.5098V24.576H95.3958V26.682H92.5358V31.18H93.3418C94.8108 31.18 96.1238 31.141 97.7098 30.868L97.5928 29.763C96.2148 29.997 95.0578 30.062 93.8228 30.075V27.761ZM98.5288 26.37H97.2028V27.475H98.5288V33.416H99.7768V22.522H98.5288V26.37ZM100.908 22.262V34.001H102.182V22.262H100.908ZM113.813 22.275H112.539V28.385H113.813V22.275ZM107.69 26.877H105.61V25.369H107.69V26.877ZM108.938 25.902H110.225V28.32H111.473V22.483H110.225V24.823H108.938V22.925H107.69V24.355H105.61V22.938H104.349V27.917H108.938V25.902ZM107.339 32.857V31.843H113.813V28.905H105.974V29.958H112.474V30.855H106V33.897H114.242V32.857H107.339ZM118.229 30.244C117.423 30.244 116.929 29.191 116.929 27.332C116.929 25.473 117.423 24.433 118.229 24.433C119.035 24.433 119.529 25.473 119.529 27.332C119.529 29.191 119.035 30.244 118.229 30.244ZM121.986 26.708H120.725C120.582 24.511 119.633 23.172 118.229 23.172C116.708 23.172 115.707 24.758 115.707 27.332C115.707 29.906 116.708 31.505 118.229 31.505C119.659 31.505 120.621 30.101 120.738 27.813H121.986V33.442H123.234V22.483H121.986V26.708ZM124.339 22.262V33.988H125.613V22.262H124.339ZM135.936 31.492V28.723H139.407V27.644H132.608V24.225H139.303V23.146H131.269V28.723H134.597V31.492H129.969V32.597H140.603V31.492H135.936ZM148.399 26.318C146.943 26.617 145.63 26.695 143.472 26.708V23.978H147.359V22.912H142.133V27.787H143.082C145.539 27.787 146.956 27.709 148.555 27.371L148.399 26.318ZM144.603 31.739H150.843V28.671H143.264V29.75H149.517V30.725H143.29V33.858H151.233V32.792H144.603V31.739ZM150.843 24.615V22.262H149.504V28.138H150.843V25.72H152.507V24.615H150.843ZM160.849 26.487H162.045V29.516H163.319V22.275H162.045V25.395H160.849V22.431H159.588V29.36H160.849V26.487ZM159.172 23.523H156.91V22.327H155.597V23.523H153.322V24.576H159.172V23.523ZM156.26 26.032C157.053 26.032 157.586 26.435 157.586 27.072C157.586 27.722 157.053 28.125 156.26 28.125C155.467 28.125 154.947 27.722 154.947 27.072C154.947 26.435 155.467 26.032 156.26 26.032ZM156.26 29.1C157.742 29.1 158.782 28.294 158.782 27.072C158.782 25.876 157.742 25.057 156.26 25.057C154.791 25.057 153.751 25.876 153.751 27.072C153.751 28.294 154.791 29.1 156.26 29.1ZM161.967 29.88H160.654V30.205C160.654 31.037 160.147 32.064 159.12 32.714C158.132 32.103 157.664 31.141 157.664 30.205V29.88H156.364V30.205C156.364 31.258 155.571 32.402 154.089 32.87L154.726 33.858C155.818 33.481 156.572 32.753 157.001 31.882C157.365 32.779 158.054 33.572 159.146 33.975C160.225 33.546 160.914 32.727 161.291 31.83C161.681 32.753 162.461 33.481 163.605 33.858L164.242 32.87C162.747 32.428 161.967 31.336 161.967 30.205V29.88ZM168.255 30.205C167.254 30.205 166.565 29.113 166.565 27.254C166.565 25.434 167.254 24.329 168.255 24.329C169.269 24.329 169.958 25.434 169.958 27.254C169.958 29.113 169.269 30.205 168.255 30.205ZM173.494 22.249V26.63H171.206C171.024 24.472 169.828 23.12 168.255 23.12C166.526 23.12 165.291 24.732 165.291 27.254C165.291 29.802 166.526 31.401 168.255 31.401C169.867 31.401 171.063 29.997 171.219 27.722H173.494V34.027H174.846V22.249H173.494ZM180.627 28.918C181.082 29.022 181.589 29.074 182.109 29.074C182.629 29.074 183.136 29.022 183.591 28.905V31.466H180.627V28.918ZM182.109 23.991C183.877 23.991 185.112 24.771 185.112 26.006C185.112 27.254 183.877 28.034 182.109 28.034C180.328 28.034 179.093 27.254 179.093 26.006C179.093 24.771 180.328 23.991 182.109 23.991ZM184.93 31.466V28.411C185.866 27.878 186.425 27.046 186.425 26.006C186.425 24.134 184.605 22.938 182.109 22.938C179.6 22.938 177.793 24.134 177.793 26.006C177.793 27.046 178.352 27.891 179.288 28.411V31.466H176.805V32.558H187.439V31.466H184.93ZM189.788 33.169C190.347 33.169 190.789 32.74 190.789 32.129C190.789 31.518 190.347 31.063 189.788 31.063C189.229 31.063 188.787 31.518 188.787 32.129C188.787 32.74 189.229 33.169 189.788 33.169Z" fill="#39D3C6"/>
<rect y="46" width="288" height="8" rx="4" fill="#F5F5F5"/>
<rect y="46" width="288" height="8" rx="4" fill="#39D3C6"/>
<path d="M277.912 2.95215H271.439V5.36745V7.78275H277.912C278.026 7.78275 278.072 7.66663 278.003 7.57373L276.19 5.46034C276.144 5.4139 276.144 5.34422 276.19 5.29778L278.003 3.16116C278.072 3.09149 278.026 2.95215 277.912 2.95215Z" fill="white"/>
<path d="M276.626 5.36749L278.302 3.41667C278.439 3.27732 278.462 3.04508 278.371 2.88251C278.279 2.71995 278.118 2.5806 277.912 2.5806H271.807V2.37158C271.807 2.16257 271.646 2 271.439 2C271.233 2 271.072 2.16257 271.072 2.37158V12.2418H271.807V8.15437H277.912C278.095 8.15437 278.279 8.03825 278.371 7.85246C278.462 7.66667 278.417 7.45765 278.302 7.31831L276.626 5.36749ZM275.915 5.69262L277.361 7.4112H271.807V3.32377H277.361L275.915 5.04235C275.754 5.22814 275.754 5.50683 275.915 5.69262Z" fill="#39D3C6" stroke="#39D3C6" stroke-width="0.1"/>
<path d="M259.458 31.6339L265.058 21.8334L270.658 12.0328C271.002 11.429 271.874 11.429 272.219 12.0328L277.819 21.8334L283.419 31.6339C283.763 32.2377 283.327 33.0041 282.638 33.0041H271.438H265.15C265.127 33.0041 265.081 33.0274 265.058 33.0506C264.002 34.653 263.382 35.373 261.317 35.6285C261.087 35.6517 260.927 35.373 261.087 35.1872C261.592 34.5601 261.937 34.3511 261.982 33.097C261.982 33.0274 261.937 32.9809 261.868 32.9809H260.261C259.55 33.0041 259.114 32.261 259.458 31.6339Z" fill="white"/>
<path d="M270.2 21.4153C269.971 21.4153 269.787 21.2295 269.787 20.9973V19.9754C269.787 19.7432 269.971 19.5574 270.2 19.5574C270.43 19.5574 270.613 19.7432 270.613 19.9754V20.9973C270.613 21.2295 270.43 21.4153 270.2 21.4153Z" fill="#39D3C6"/>
<path d="M272.839 21.4153C272.609 21.4153 272.426 21.2295 272.426 20.9973V19.9754C272.426 19.7432 272.609 19.5574 272.839 19.5574C273.068 19.5574 273.252 19.7432 273.252 19.9754V20.9973C273.252 21.2295 273.068 21.4153 272.839 21.4153Z" fill="#39D3C6"/>
<path d="M274.583 23.3429C274.423 23.1339 274.17 22.9945 273.895 22.9945H268.983C268.708 22.9945 268.455 23.1106 268.295 23.3429C268.134 23.5519 268.065 23.8306 268.134 24.086C268.524 25.6188 269.878 26.6871 271.439 26.6871C273 26.6871 274.354 25.6188 274.744 24.086C274.813 23.8306 274.744 23.5519 274.583 23.3429Z" fill="#39D3C6"/>
<path d="M271.555 24.3183C271.188 24.3183 270.912 24.0164 270.912 23.668V23.2732H272.197V23.668C272.197 24.0164 271.899 24.3183 271.555 24.3183Z" fill="white"/>
<path d="M279.773 20.7433L279.773 20.7438L286.222 31.7745C286.222 31.7746 286.222 31.7747 286.222 31.7748C286.3 31.9142 286.242 32.0558 286.22 32.0994C286.213 32.1146 286.184 32.1552 286.135 32.1918C286.087 32.2276 286.023 32.2573 285.944 32.2573H284.98C284.768 32.2573 284.586 32.4428 284.586 32.6557C284.586 32.8685 284.768 33.0541 284.98 33.0541H285.944C286.349 33.0541 286.713 32.8606 286.884 32.4927C287.075 32.1522 287.074 31.7401 286.883 31.3783L286.883 31.3783L286.882 31.3764L280.433 20.3454L280.433 20.3449L276.027 12.612C276.027 12.6119 276.027 12.6119 276.027 12.6119C275.834 12.2714 275.474 12.0524 275.065 12.0524C274.678 12.0524 274.319 12.2726 274.104 12.6343L274.104 12.6342L274.102 12.6376L273.896 13.0557L273.896 13.0556L273.895 13.0583C273.816 13.2446 273.894 13.4803 274.076 13.5856L274.076 13.5859L274.081 13.5882C274.267 13.6685 274.5 13.5882 274.604 13.4043L274.604 13.4043L274.605 13.4029L274.811 13.0088C274.89 12.8698 275.027 12.8491 275.088 12.8491C275.149 12.8491 275.287 12.8698 275.366 13.0095L275.366 13.0097L279.773 20.7433Z" fill="#39D3C6" stroke="#39D3C6" stroke-width="0.1"/>
<path d="M283.762 31.4481L283.762 31.4481L283.761 31.4465L272.561 11.8454L272.561 11.8451C272.323 11.4354 271.916 11.1932 271.439 11.1932C270.962 11.1932 270.555 11.4354 270.317 11.8451L270.317 11.8454L259.117 31.4462C259.117 31.4462 259.117 31.4462 259.117 31.4462C258.879 31.8566 258.879 32.3402 259.117 32.7505C259.355 33.1603 259.762 33.4025 260.239 33.4025H261.561C261.526 33.7514 261.465 33.9805 261.376 34.1669C261.282 34.3628 261.155 34.5148 260.983 34.7119C260.926 34.7696 260.883 34.8281 260.835 34.8948C260.823 34.9116 260.81 34.9289 260.797 34.9469C260.622 35.1498 260.6 35.4498 260.722 35.697L260.722 35.697L260.723 35.6989C260.846 35.9235 261.07 36.05 261.295 36.05H261.295H261.295H261.295H261.295H261.296H261.296H261.296H261.296H261.296H261.296H261.296H261.296H261.297H261.297H261.297H261.297H261.297H261.297H261.297H261.298H261.298H261.298H261.298H261.298H261.298H261.298H261.298H261.299H261.299H261.299H261.299H261.299H261.299H261.299H261.3H261.3H261.3H261.3H261.3H261.3H261.3H261.3H261.301H261.301H261.301H261.301H261.301H261.301H261.301H261.302H261.302H261.302H261.302H261.302H261.302H261.302H261.303H261.303H261.303H261.303H261.303H261.303H261.303H261.303H261.304H261.304H261.304H261.304H261.304H261.304H261.304H261.305H261.305H261.305H261.305H261.305H261.305H261.305H261.305H261.306H261.306H261.306H261.306H261.306H261.306H261.306H261.307H261.307H261.307H261.307H261.307H261.307H261.307H261.307H261.308H261.308H261.308H261.308H261.308H261.308H261.308H261.309H261.309H261.309H261.309H261.309H261.309H261.309H261.309H261.31H261.31H261.31H261.31H261.31H261.31H261.31H261.311H261.311H261.311H261.311H261.311H261.311H261.311H261.312H261.312H261.312H261.312H261.312H261.312H261.312H261.312H261.313H261.313H261.313H261.313H261.313H261.313H261.313H261.314H261.314H261.314H261.314H261.314H261.314H261.314H261.314H261.315H261.315H261.315H261.315H261.315H261.315H261.315H261.316H261.316H261.316H261.316H261.316H261.316H261.316H261.316H261.317H261.317H261.317H261.317H261.317H261.317H261.317H261.318H261.318H261.318H261.318H261.318H261.318H261.318H261.319H261.319H261.319H261.319H261.319H261.319H261.319H261.319H261.32H261.32H261.32H261.32H261.32H261.32H261.32H261.321H261.321H261.321H261.321H261.321H261.321H261.321H261.321H261.322H261.322H261.322H261.322H261.322H261.322H261.322H261.323H261.323H261.323H261.323H261.323H261.323H261.323H261.323H261.324H261.324H261.324H261.324H261.324H261.324H261.324H261.325H261.325H261.325H261.325H261.325H261.325H261.325H261.325H261.326H261.326H261.326H261.326H261.326H261.326H261.326H261.327H261.327H261.327H261.327H261.327H261.327H261.327H261.328H261.328H261.328H261.328H261.328H261.328H261.328H261.328H261.329H261.329H261.329H261.329H261.329H261.329H261.329H261.33H261.33H261.33H261.33H261.33H261.33H261.33H261.33H261.331H261.331H261.331H261.331H261.331H261.331H261.331H261.332H261.332H261.332H261.332H261.332H261.332H261.332H261.332H261.333H261.333H261.333H261.333H261.333H261.333H261.333H261.334H261.334H261.334H261.334H261.334H261.334H261.334H261.335H261.335H261.335H261.335H261.335H261.335H261.335H261.335H261.336H261.336H261.336H261.336H261.336H261.336H261.336H261.337H261.337H261.337H261.337H261.337H261.337H261.337H261.337H261.338H261.338H261.338H261.338H261.338H261.338H261.338H261.339H261.339H261.339H261.339H261.339H261.339H261.339H261.339H261.34H261.34H261.34H261.34H261.34H261.34H261.34H261.341H261.341H261.341H261.341H261.341H261.341H261.341H261.342H261.342H261.342H261.342H261.342H261.342H261.342H261.342H261.343H261.343H261.343H261.343H261.343H261.343H261.343H261.344H261.344H261.344H261.344H261.344H261.344H261.344H261.344H261.345H261.345H261.345H261.345H261.345H261.345H261.345H261.346H261.346H261.346H261.346H261.346H261.346H261.346H261.346H261.347H261.347H261.347H261.347H261.347H261.347H261.347H261.348H261.348H261.348H261.348H261.348H261.348H261.348H261.348H261.349H261.349H261.349H261.349H261.349H261.349H261.349H261.35H261.35H261.35H261.35H261.35H261.35H261.35H261.351H261.351H261.351H261.351H261.351H261.351H261.351H261.351H261.352H261.352H261.352H261.352H261.352H261.352H261.352H261.353H261.353H261.353H261.353H261.353H261.353H261.353H261.353H261.354H261.354H261.354H261.354H261.354H261.354H261.354H261.355H261.355H261.355H261.355H261.355H261.355H261.355H261.355H261.356H261.356H261.356H261.356H261.356H261.356H261.356H261.357H261.357H261.357H261.357H261.357H261.357H261.357H261.358H261.358H261.358H261.358H261.358H261.358H261.358H261.358H261.359H261.359H261.359H261.359H261.359H261.359H261.359H261.36H261.36H261.36H261.36H261.36H261.36H261.36H261.36H261.361H261.361H261.361H261.361H261.361H261.361H261.361H261.362H261.362H261.362H261.362H261.362H261.362H261.362H261.362H261.363H261.363H261.363H261.363H261.363H261.363H261.363H261.364H261.364V36.0504L261.37 36.0496C262.478 35.9095 263.221 35.6228 263.812 35.1807C264.396 34.7441 264.828 34.1585 265.315 33.4257H282.639C283.116 33.4257 283.523 33.1835 283.761 32.7738C284 32.3618 283.975 31.8557 283.762 31.4481ZM271.001 12.2433L271.001 12.2433L271.002 12.2407C271.084 12.0752 271.248 11.9899 271.439 11.9899C271.627 11.9899 271.794 12.0958 271.878 12.2432L271.878 12.2435L273.162 14.4782C271.627 15.4533 270.335 14.9292 269.715 14.5029L271.001 12.2433ZM283.078 32.3525L283.077 32.3524L283.076 32.3549C282.994 32.5205 282.83 32.6057 282.639 32.6057H265.151C264.976 32.6057 264.819 32.6818 264.74 32.8397C264.224 33.6169 263.838 34.1495 263.367 34.5208C262.923 34.8707 262.399 35.0798 261.611 35.2089C261.808 34.9774 261.979 34.7676 262.107 34.4787C262.245 34.1661 262.332 33.7644 262.355 33.1453L262.355 33.1453V33.1434C262.355 33.0146 262.304 32.8883 262.23 32.7885L262.23 32.7882L262.225 32.7832C262.125 32.6811 261.997 32.629 261.869 32.629H260.262C260.074 32.629 259.907 32.523 259.824 32.3757C259.74 32.2284 259.74 32.0148 259.824 31.8675C259.824 31.8675 259.824 31.8675 259.824 31.8675L269.322 15.2156C269.852 15.5557 270.579 15.8451 271.416 15.8451C272.079 15.8451 272.807 15.6634 273.579 15.1913L283.1 31.8663C283.129 31.9269 283.145 32.0107 283.143 32.0998C283.14 32.1892 283.119 32.2796 283.078 32.3525Z" fill="#39D3C6" stroke="#39D3C6" stroke-width="0.1"/>
</svg>
