<svg width="290" height="44" viewBox="0 0 290 44" fill="none" xmlns="http://www.w3.org/2000/svg">
<rect y="36" width="288" height="8" rx="4" fill="#F5F5F5"/>
<path d="M265.339 19.6753V5.89803C265.339 4.95654 265.703 4.05361 266.351 3.38788C266.999 2.72215 267.877 2.34814 268.794 2.34814H282.206C283.122 2.34814 284.001 2.72215 284.649 3.38788C285.297 4.05361 285.661 4.95654 285.661 5.89803V19.6753C285.661 20.1415 285.572 20.6031 285.399 21.0339C285.226 21.4648 284.971 21.8563 284.651 22.1861C284.33 22.516 283.949 22.7777 283.53 22.9564C283.111 23.1351 282.662 23.2272 282.208 23.2275H269.943C269.906 23.2274 269.87 23.2367 269.837 23.2545C269.805 23.2723 269.777 23.2981 269.756 23.3296C268.927 24.6034 267.868 25.4456 266.307 25.6498C266.235 25.659 266.162 25.6382 266.104 25.5921C266.047 25.546 266.009 25.4783 266 25.4038C265.996 25.365 265.999 25.3255 266.01 25.288C266.021 25.2505 266.039 25.2157 266.064 25.1857C266.579 24.5606 266.983 23.8465 267.256 23.0767C267.272 23.0241 267.27 22.9671 267.25 22.916C267.229 22.865 267.191 22.8232 267.143 22.7983C266.596 22.4928 266.14 22.0415 265.823 21.4918C265.505 20.9421 265.338 20.3145 265.339 19.6753Z" fill="white"/>
<path d="M266.274 26H266.348C267.882 25.7981 269.045 25.0302 270.002 23.58H282.197C282.696 23.5804 283.191 23.4796 283.652 23.2835C284.114 23.0874 284.533 22.7998 284.886 22.4372C285.239 22.0745 285.519 21.644 285.71 21.17C285.902 20.6961 286 20.1882 286 19.6752V5.89791C285.999 4.8645 285.599 3.87376 284.887 3.14303C284.176 2.41229 283.212 2.00123 282.206 2H268.796C267.79 2.00061 266.825 2.41133 266.113 3.14207C265.4 3.8728 265 4.86388 264.998 5.89791V19.6752C264.996 20.3612 265.171 21.0354 265.505 21.6295C265.839 22.2236 266.32 22.7164 266.899 23.058C266.643 23.7541 266.273 24.4005 265.806 24.9698C265.73 25.0616 265.682 25.1737 265.666 25.293C265.65 25.4122 265.668 25.5336 265.717 25.6429C265.766 25.7522 265.845 25.8447 265.943 25.9096C266.042 25.9745 266.157 26.0091 266.274 26.0093V26ZM269.941 22.8817C269.849 22.8817 269.759 22.905 269.677 22.9495C269.596 22.994 269.527 23.0584 269.476 23.1369C268.661 24.3898 267.69 25.0742 266.427 25.2831C266.92 24.6571 267.307 23.9514 267.574 23.1949C267.616 23.0639 267.611 22.9219 267.56 22.7943C267.509 22.6668 267.416 22.562 267.297 22.4988C266.803 22.223 266.391 21.8146 266.106 21.3174C265.82 20.8201 265.672 20.2525 265.675 19.6752V5.89791C265.676 5.04851 266.005 4.23411 266.589 3.63372C267.174 3.03332 267.967 2.69606 268.794 2.69606H282.206C283.032 2.69667 283.825 3.03421 284.409 3.63454C284.993 4.23487 285.322 5.04892 285.323 5.89791V19.6752C285.323 20.5246 284.995 21.3395 284.411 21.9407C283.827 22.542 283.035 22.8804 282.208 22.8817H269.941Z" fill="#39D3C6" stroke="#39D3C6" stroke-width="0.3"/>
<path d="M277.364 6.73096C277.31 6.73096 277.257 6.74182 277.208 6.76292C277.158 6.78403 277.113 6.81496 277.075 6.85396C277.037 6.89296 277.007 6.93925 276.986 6.9902C276.966 7.04115 276.955 7.09576 276.955 7.15091V8.18107C276.955 8.23622 276.966 8.29083 276.986 8.34178C277.007 8.39273 277.037 8.43903 277.075 8.47803C277.113 8.51702 277.158 8.54796 277.208 8.56906C277.257 8.59017 277.31 8.60103 277.364 8.60103C277.472 8.60042 277.575 8.5559 277.652 8.47721C277.728 8.39852 277.771 8.29205 277.771 8.18107V7.15091C277.771 7.03993 277.728 6.93347 277.652 6.85478C277.575 6.77609 277.472 6.73157 277.364 6.73096Z" fill="#39D3C6" stroke="#39D3C6" stroke-width="0.1"/>
<path d="M273.637 6.73096C273.529 6.73096 273.425 6.7752 273.348 6.85396C273.272 6.93272 273.229 7.03953 273.229 7.15091V8.18107C273.229 8.29245 273.272 8.39927 273.348 8.47803C273.425 8.55678 273.529 8.60103 273.637 8.60103C273.745 8.60042 273.849 8.5559 273.925 8.47721C274.001 8.39852 274.044 8.29205 274.044 8.18107V7.15091C274.044 7.03993 274.001 6.93347 273.925 6.85478C273.849 6.77609 273.745 6.73157 273.637 6.73096Z" fill="#39D3C6" stroke="#39D3C6" stroke-width="0.1"/>
<path d="M273.921 10.6475H277.005C277.108 10.6558 277.202 10.7049 277.269 10.7843C277.337 10.8637 277.371 10.9671 277.365 11.0721V13.0048C277.371 13.1098 277.337 13.2131 277.269 13.2925C277.202 13.3719 277.108 13.421 277.005 13.4294H273.921C273.818 13.4216 273.724 13.3726 273.657 13.293C273.59 13.2133 273.556 13.1097 273.564 13.0048V11.0721C273.556 10.9671 273.59 10.8635 273.657 10.7839C273.724 10.7042 273.818 10.6552 273.921 10.6475Z" fill="#39D3C6"/>
<path d="M277.005 13.6612C277.086 13.6568 277.166 13.6358 277.24 13.5995C277.313 13.5633 277.379 13.5124 277.434 13.4499C277.488 13.3873 277.53 13.3143 277.557 13.2351C277.583 13.1559 277.595 13.0721 277.59 12.9884V11.0719C277.597 10.9078 277.542 10.7471 277.435 10.6244C277.329 10.5017 277.18 10.4266 277.021 10.4153H273.904C273.742 10.4278 273.592 10.5055 273.486 10.6316C273.379 10.7577 273.326 10.9218 273.337 11.0881V13.0046C273.329 13.1685 273.384 13.3292 273.49 13.4519C273.596 13.5747 273.745 13.6499 273.904 13.6612H277.005ZM277.005 10.877C277.045 10.8838 277.08 10.9058 277.105 10.9384C277.13 10.9711 277.141 11.0121 277.138 11.0533V13.0023C277.141 13.025 277.139 13.0481 277.133 13.0702C277.127 13.0923 277.117 13.1129 277.103 13.1309C277.089 13.1488 277.072 13.1638 277.052 13.1747C277.033 13.1857 277.011 13.1926 276.989 13.1949H273.92C273.881 13.1875 273.845 13.1654 273.821 13.1327C273.797 13.1001 273.786 13.0594 273.789 13.0185V11.0719C273.783 11.0274 273.795 10.9822 273.821 10.9462C273.847 10.9102 273.886 10.8862 273.929 10.8793L277.005 10.877Z" fill="#39D3C6"/>
<path d="M276.389 10.7542H274.537V11.5941C274.537 11.6488 274.558 11.7013 274.596 11.7401C274.633 11.7788 274.685 11.8006 274.738 11.8006H276.188C276.241 11.8006 276.292 11.7788 276.33 11.7401C276.367 11.7013 276.389 11.6488 276.389 11.5941V10.7542Z" fill="white"/>
<path d="M277.005 13.6612C277.086 13.6568 277.166 13.6358 277.24 13.5995C277.313 13.5633 277.379 13.5124 277.434 13.4499C277.488 13.3873 277.53 13.3143 277.557 13.2351C277.583 13.1559 277.595 13.0721 277.59 12.9884V11.0719C277.597 10.9078 277.542 10.7471 277.435 10.6244C277.329 10.5017 277.18 10.4266 277.021 10.4153H273.904C273.742 10.4278 273.592 10.5055 273.486 10.6316C273.379 10.7577 273.326 10.9218 273.337 11.0881V13.0046C273.329 13.1685 273.384 13.3292 273.49 13.4519C273.596 13.5747 273.745 13.6499 273.904 13.6612H277.005ZM277.005 10.877C277.045 10.8838 277.08 10.9058 277.105 10.9384C277.13 10.9711 277.141 11.0121 277.138 11.0533V13.0023C277.141 13.025 277.139 13.0481 277.133 13.0702C277.127 13.0923 277.117 13.1129 277.103 13.1309C277.089 13.1488 277.072 13.1638 277.052 13.1747C277.033 13.1857 277.011 13.1926 276.989 13.1949H273.92C273.881 13.1875 273.845 13.1654 273.821 13.1327C273.797 13.1001 273.786 13.0594 273.789 13.0185V11.0719C273.783 11.0274 273.795 10.9822 273.821 10.9462C273.847 10.9102 273.886 10.8862 273.929 10.8793L277.005 10.877Z" fill="#39D3C6" stroke="#39D3C6" stroke-width="0.1"/>
<circle cx="13.9997" cy="14" r="11.6667" fill="#DFF8F6"/>
<path d="M5.45087 21.628C5.36466 21.4443 5.24962 21.2756 5.11011 21.1283C4.79275 20.7344 4.50419 20.3181 4.24668 19.8827C3.20623 18.0969 2.66469 16.0643 2.67869 13.9976C2.67926 11.479 3.51961 9.03258 5.06678 7.0453C6.61395 5.05803 8.7796 3.64338 11.2211 3.02519C13.6626 2.40699 16.2405 2.62055 18.547 3.63207C20.8534 4.64359 22.7568 6.39532 23.9558 8.6101C25.1549 10.8249 25.5812 13.3762 25.1674 15.8605C24.7535 18.3448 23.5231 20.6202 21.6708 22.3266C19.8185 24.0331 17.45 25.0732 14.9402 25.2823C12.4304 25.4915 9.92243 24.8578 7.81322 23.4815C7.76273 23.4479 7.70106 23.4356 7.64157 23.4473C7.58209 23.4589 7.52959 23.4935 7.49547 23.5436L7.39647 23.6933C7.39647 23.6933 6.46166 25.0633 4.33877 25.3188C4.26642 25.3301 4.19255 25.3122 4.13341 25.269C4.07426 25.2258 4.03467 25.1609 4.02334 25.0886C4.01659 25.0475 4.01931 25.0054 4.03127 24.9655C4.04324 24.9256 4.06415 24.889 4.09241 24.8584C4.75305 24.1036 5.21659 23.1971 5.44166 22.2197C5.49882 22.027 5.502 21.8223 5.45087 21.628Z" fill="white"/>
<path d="M4.296 25.6676C4.32897 25.6698 4.36204 25.6698 4.39501 25.6676C6.63302 25.3982 7.64151 23.9569 7.68295 23.897L7.71288 23.8303C9.58641 25.0325 11.7656 25.6718 13.9917 25.6722C17.0875 25.6738 20.057 24.4455 22.2471 22.2575C24.4372 20.0696 25.6684 17.1013 25.6699 14.0056C25.6714 10.9099 24.4431 7.94032 22.2552 5.75024C20.0673 3.56015 17.099 2.32892 14.0033 2.32739V2.32739C10.9106 2.33105 7.94559 3.56107 5.75853 5.7477C3.57146 7.93434 2.34086 10.8991 2.33659 13.9918C2.32244 16.1196 2.879 18.2122 3.94833 20.0519C4.21609 20.501 4.51459 20.931 4.84169 21.339L4.86011 21.3597C4.9662 21.4729 5.05538 21.6009 5.1249 21.7396C5.15504 21.8682 5.15027 22.0026 5.11108 22.1287C4.8995 23.0582 4.4604 23.9206 3.8332 24.6384C3.77079 24.707 3.7247 24.7888 3.69838 24.8777C3.67207 24.9667 3.6662 25.0604 3.68124 25.1519C3.70712 25.2962 3.78283 25.4269 3.89517 25.5212C4.00751 25.6154 4.14936 25.6672 4.296 25.6676ZM14.001 3.01814C16.9119 3.01814 19.7037 4.17453 21.7621 6.23291C23.8205 8.2913 24.9769 11.0831 24.9769 13.9941C24.9769 16.9051 23.8205 19.6968 21.7621 21.7552C19.7037 23.8136 16.9119 24.97 14.001 24.97C11.8744 24.9698 9.79407 24.3497 8.01451 23.1856C7.888 23.1037 7.73461 23.0743 7.58678 23.1035C7.43896 23.1327 7.3083 23.2183 7.22245 23.3421L7.12115 23.4964C7.09121 23.5401 6.28765 24.6684 4.4779 24.947C5.11544 24.1759 5.56477 23.267 5.79031 22.2922C5.85957 22.0444 5.85957 21.7824 5.79031 21.5347L5.76959 21.4748C5.66924 21.2629 5.5364 21.0679 5.37587 20.8969C5.07282 20.5183 4.79662 20.119 4.54928 19.7019C3.5415 17.9694 3.01673 15.9983 3.02964 13.9941C3.03329 11.085 4.19022 8.29603 6.24682 6.23857C8.30342 4.18111 11.0919 3.02301 14.001 3.01814Z" fill="#39D3C6" stroke="#39D3C6" stroke-width="0.3"/>
<path d="M21.053 10.6177C20.9428 10.6183 20.8374 10.6625 20.7598 10.7405C20.6821 10.8186 20.6385 10.9243 20.6385 11.0344V12.0567C20.6385 12.1669 20.6821 12.2725 20.7598 12.3506C20.8374 12.4287 20.9428 12.4729 21.053 12.4735C21.1635 12.4735 21.2695 12.4296 21.3477 12.3514C21.4258 12.2733 21.4697 12.1673 21.4697 12.0567V11.0344C21.4697 10.9239 21.4258 10.8179 21.3477 10.7397C21.2695 10.6616 21.1635 10.6177 21.053 10.6177Z" fill="#39D3C6" stroke="#39D3C6" stroke-width="0.1"/>
<path d="M17.2532 10.6177C17.143 10.6183 17.0376 10.6625 16.96 10.7405C16.8823 10.8186 16.8387 10.9243 16.8387 11.0344V12.0567C16.8387 12.1669 16.8823 12.2725 16.96 12.3506C17.0376 12.4287 17.143 12.4729 17.2532 12.4735C17.3637 12.4735 17.4697 12.4296 17.5479 12.3514C17.626 12.2733 17.6699 12.1673 17.6699 12.0567V11.0344C17.6699 10.9239 17.626 10.8179 17.5479 10.7397C17.4697 10.6616 17.3637 10.6177 17.2532 10.6177Z" fill="#39D3C6" stroke="#39D3C6" stroke-width="0.1"/>
<path d="M19.0286 16.2773C19.1364 16.2772 19.244 16.2703 19.3509 16.2566C19.3963 16.2506 19.44 16.2356 19.4796 16.2127C19.5192 16.1898 19.5539 16.1592 19.5817 16.1229C19.6095 16.0865 19.6298 16.0451 19.6416 16.0009C19.6534 15.9566 19.6563 15.9105 19.6503 15.8652C19.6442 15.8198 19.6293 15.7761 19.6064 15.7365C19.5834 15.6969 19.5529 15.6623 19.5165 15.6345C19.4802 15.6067 19.4387 15.5863 19.3945 15.5745C19.3503 15.5628 19.3042 15.5598 19.2588 15.5659C18.8851 15.6171 18.5049 15.5435 18.1773 15.3566C17.8496 15.1697 17.5929 14.8798 17.4468 14.5321C17.4296 14.49 17.4042 14.4518 17.3722 14.4196C17.3402 14.3873 17.3022 14.3617 17.2602 14.3442C17.2183 14.3267 17.1734 14.3175 17.128 14.3174C17.0825 14.3172 17.0375 14.326 16.9955 14.3432C16.9535 14.3605 16.9153 14.3858 16.883 14.4178C16.8508 14.4498 16.8252 14.4879 16.8076 14.5298C16.7901 14.5717 16.781 14.6166 16.7808 14.6621C16.7807 14.7075 16.7895 14.7525 16.8067 14.7945C16.9894 15.2334 17.2978 15.6083 17.6932 15.8722C18.0886 16.1361 18.5532 16.277 19.0286 16.2773Z" fill="#39D3C6" stroke="#39D3C6" stroke-width="0.1"/>
</svg>
