<svg width="120" height="120" viewBox="0 0 120 120" fill="none" xmlns="http://www.w3.org/2000/svg">
<path d="M60 116C90.9279 116 116 90.9279 116 60C116 29.0721 90.9279 4 60 4C29.0721 4 4 29.0721 4 60C4 90.9279 29.0721 116 60 116Z" fill="#DFF8F6" stroke="#EDEDED" stroke-width="1.4"/>
<path d="M87.8458 84.8454C88.1266 84.2472 88.5013 83.6978 88.9557 83.218C89.9894 81.9349 90.9293 80.5789 91.768 79.1607C95.1569 73.3441 96.9208 66.7237 96.8752 59.992C96.8733 51.7888 94.1362 43.8204 89.0968 37.3475C84.0575 30.8747 77.0037 26.267 69.0514 24.2534C61.0991 22.2399 52.7025 22.9355 45.19 26.2301C37.6774 29.5248 31.478 35.2304 27.5725 42.4443C23.6669 49.6581 22.2783 57.9683 23.6263 66.06C24.9744 74.1517 28.982 81.5629 35.0153 87.121C41.0485 92.6792 48.7629 96.0668 56.9377 96.7481C65.1126 97.4294 73.2813 95.3653 80.1513 90.8825C80.3157 90.7732 80.5166 90.7332 80.7104 90.7711C80.9041 90.809 81.0751 90.9218 81.1862 91.085L81.5087 91.5724C81.5087 91.5724 84.5535 96.0346 91.4681 96.8671C91.7037 96.9037 91.9443 96.8453 92.137 96.7047C92.3296 96.5641 92.4586 96.3528 92.4955 96.1171C92.5174 95.9832 92.5086 95.8461 92.4696 95.7162C92.4306 95.5862 92.3625 95.4669 92.2705 95.3672C90.1187 92.909 88.6089 89.9564 87.8758 86.7727C87.6896 86.1451 87.6792 85.4785 87.8458 84.8454Z" fill="white" stroke="#39D3C6" stroke-width="2"/>
<path d="M37.0293 48.9837C37.388 48.9857 37.7313 49.1295 37.9843 49.3839C38.2372 49.6382 38.3792 49.9824 38.3792 50.3411V53.6709C38.3792 54.0296 38.2372 54.3737 37.9843 54.628C37.7313 54.8824 37.388 55.0263 37.0293 55.0283C36.6693 55.0283 36.324 54.8853 36.0695 54.6307C35.8149 54.3761 35.6719 54.0309 35.6719 53.6709V50.3411C35.6719 49.9811 35.8149 49.6358 36.0695 49.3812C36.324 49.1267 36.6693 48.9837 37.0293 48.9837Z" fill="#39D3C6"/>
<path d="M49.4033 48.9837C49.762 48.9857 50.1054 49.1295 50.3583 49.3839C50.6112 49.6382 50.7532 49.9824 50.7532 50.3411V53.6709C50.7532 54.0296 50.6112 54.3737 50.3583 54.628C50.1054 54.8824 49.762 55.0263 49.4033 55.0283C49.0433 55.0283 48.698 54.8853 48.4435 54.6307C48.1889 54.3761 48.0459 54.0309 48.0459 53.6709V50.3411C48.0459 49.9811 48.1889 49.6358 48.4435 49.3812C48.698 49.1267 49.0433 48.9837 49.4033 48.9837Z" fill="#39D3C6"/>
<path d="M43.6217 67.4175C43.2707 67.4171 42.92 67.3946 42.5718 67.35C42.4241 67.3303 42.2817 67.2817 42.1527 67.2069C42.0238 67.1322 41.9108 67.0328 41.8203 66.9144C41.7298 66.796 41.6634 66.661 41.6251 66.517C41.5868 66.3729 41.5772 66.2228 41.5969 66.075C41.6166 65.9273 41.6652 65.7849 41.7399 65.656C41.8146 65.527 41.914 65.4141 42.0324 65.3235C42.1508 65.233 42.2859 65.1667 42.4299 65.1283C42.5739 65.09 42.7241 65.0804 42.8718 65.1001C44.0891 65.267 45.3274 65.0274 46.3945 64.4185C47.4617 63.8097 48.2981 62.8656 48.7739 61.7328C48.83 61.5959 48.9126 61.4714 49.0168 61.3665C49.1211 61.2615 49.245 61.178 49.3815 61.1209C49.518 61.0638 49.6644 61.0342 49.8123 61.0336C49.9603 61.0331 50.1069 61.0617 50.2438 61.1179C50.3807 61.174 50.5052 61.2566 50.6102 61.3608C50.7152 61.4651 50.7986 61.589 50.8557 61.7255C50.9128 61.862 50.9425 62.0084 50.943 62.1563C50.9435 62.3043 50.9149 62.4509 50.8588 62.5878C50.2637 64.0171 49.259 65.2385 47.9712 66.0979C46.6834 66.9573 45.17 67.4165 43.6217 67.4175Z" fill="#39D3C6"/>
</svg>
