<svg width="288" height="44" viewBox="0 0 288 44" fill="none" xmlns="http://www.w3.org/2000/svg">
<rect y="36" width="288" height="8" rx="4" fill="#F5F5F5"/>
<path d="M2.52855 21.5523L8.11533 11.7106L13.7113 1.86893C13.8373 1.65756 14.0408 1.50568 14.277 1.44666C14.5132 1.38764 14.7627 1.42631 14.9709 1.55416C15.0973 1.6325 15.2035 1.74042 15.2806 1.86893L20.872 11.7106L26.4702 21.5523C26.5875 21.7687 26.6154 22.0236 26.5479 22.261C26.4803 22.4984 26.3229 22.6988 26.11 22.8183C25.9804 22.8926 25.8344 22.9327 25.6856 22.9349H8.21398C8.19734 22.9346 8.18087 22.9385 8.16606 22.9462C8.15125 22.9539 8.13855 22.9653 8.12909 22.9792C7.06909 24.5927 6.4588 25.3108 4.38239 25.5766C4.31378 25.5839 4.24509 25.5635 4.19106 25.5199C4.13702 25.4763 4.10193 25.413 4.0933 25.3434C4.08968 25.308 4.09309 25.2722 4.10334 25.2382C4.11359 25.2041 4.13046 25.1725 4.15296 25.1453C4.66689 24.5181 4.99728 24.3059 5.04088 23.0468C5.04118 23.033 5.03881 23.0193 5.0339 23.0065C5.02899 22.9936 5.02164 22.9819 5.01227 22.9719C5.00289 22.962 4.99168 22.954 4.97927 22.9484C4.96685 22.9429 4.95349 22.9399 4.93993 22.9396H3.31781C3.15984 22.9368 3.00525 22.8926 2.869 22.8114C2.73275 22.7301 2.61945 22.6145 2.54008 22.4756C2.4607 22.3368 2.41793 22.1795 2.41591 22.019C2.41389 21.8584 2.45269 21.7001 2.52855 21.5593V21.5523Z" fill="white"/>
<path d="M4.3547 25.9286H4.41665C6.53667 25.6534 7.26629 24.9072 8.34465 23.2843H25.6857C25.9035 23.2814 26.1168 23.2211 26.3048 23.1094C26.4929 22.9976 26.6492 22.8383 26.7585 22.6468C26.8679 22.4553 26.9265 22.2383 26.9286 22.017C26.9308 21.7956 26.8765 21.5775 26.7709 21.3838L21.1703 11.5343L15.5789 1.69166C15.4666 1.50241 15.3081 1.34586 15.1188 1.23719C14.9294 1.12852 14.7157 1.07141 14.4982 1.07141C14.2808 1.07141 14.067 1.12852 13.8777 1.23719C13.6883 1.34586 13.5298 1.50241 13.4176 1.69166L7.81694 11.5343L2.22551 21.3838C2.12927 21.5663 2.07661 21.7692 2.07178 21.9761C2.06874 22.1446 2.09838 22.3119 2.159 22.4687C2.21962 22.6255 2.31005 22.7686 2.4251 22.8899C2.54016 23.0111 2.67759 23.1082 2.82955 23.1754C2.98151 23.2427 3.14503 23.2789 3.31075 23.2819H4.67362C4.67117 23.5445 4.61644 23.8038 4.51274 24.0442C4.40903 24.2847 4.25849 24.5013 4.0702 24.681C4.00825 24.751 3.9463 24.8256 3.87976 24.9142C3.80597 25.0039 3.75871 25.113 3.74348 25.2288C3.72825 25.3447 3.74567 25.4626 3.79372 25.5688C3.84177 25.675 3.91847 25.7652 4.01493 25.8289C4.11138 25.8925 4.22363 25.9271 4.33864 25.9286H4.3547ZM8.20469 22.5847C8.1339 22.5856 8.06437 22.6038 8.00203 22.6379C7.9397 22.672 7.88643 22.721 7.84677 22.7806C6.82347 24.3359 6.28429 24.9399 4.55202 25.201L4.59791 25.1451C5.02925 24.6414 5.34358 24.2753 5.38488 23.0464C5.3893 22.9339 5.35224 22.8237 5.28095 22.7374C5.20966 22.6512 5.10927 22.5951 4.99943 22.5801H4.93748H3.31763C3.24324 22.5786 3.16988 22.5621 3.10176 22.5317C3.03364 22.5013 2.97211 22.4575 2.92071 22.4028C2.81515 22.2916 2.75738 22.1423 2.7601 21.9878C2.76203 21.8941 2.7856 21.8023 2.82893 21.7196L8.41348 11.884L14.0095 2.04143C14.0608 1.95656 14.1327 1.88646 14.2182 1.83784C14.3038 1.78921 14.4002 1.76368 14.4982 1.76368C14.5962 1.76368 14.6926 1.78921 14.7782 1.83784C14.8637 1.88646 14.9356 1.95656 14.9869 2.04143L20.5738 11.884L26.1721 21.7266C26.2426 21.8617 26.258 22.0195 26.2151 22.1661C26.1722 22.3126 26.0744 22.4362 25.9426 22.5101C25.8619 22.556 25.7713 22.5808 25.6788 22.5824H8.20469V22.5847Z" fill="#39D3C6" stroke="#39D3C6" stroke-width="0.3"/>
<path d="M15.7452 9.40918C15.6351 9.40918 15.5294 9.45364 15.4516 9.53279C15.3737 9.61193 15.3299 9.71927 15.3299 9.8312V10.8664C15.3299 10.9784 15.3737 11.0857 15.4516 11.1648C15.5294 11.244 15.6351 11.2884 15.7452 11.2884C15.855 11.2878 15.96 11.2431 16.0374 11.164C16.1148 11.0849 16.1582 10.9779 16.1582 10.8664V9.8312C16.1582 9.71967 16.1148 9.61268 16.0374 9.53361C15.96 9.45453 15.855 9.4098 15.7452 9.40918Z" fill="#39D3C6"/>
<path d="M13.0916 9.40918C12.9818 9.4098 12.8768 9.45453 12.7994 9.53361C12.722 9.61268 12.6786 9.71967 12.6786 9.8312V10.8664C12.6786 10.9779 12.722 11.0849 12.7994 11.164C12.8768 11.2431 12.9818 11.2878 13.0916 11.2884C13.2017 11.2884 13.3073 11.244 13.3852 11.1648C13.4631 11.0857 13.5068 10.9784 13.5068 10.8664V9.8312C13.5068 9.71927 13.4631 9.61193 13.3852 9.53279C13.3073 9.45364 13.2017 9.40918 13.0916 9.40918Z" fill="#39D3C6"/>
<path d="M12.038 13.1119C11.9539 13.1109 11.8704 13.1269 11.7924 13.159C11.7143 13.191 11.6433 13.2384 11.5834 13.2984C11.5234 13.3584 11.4758 13.4299 11.4432 13.5087C11.4106 13.5876 11.3936 13.6722 11.3933 13.7577C11.3918 13.8095 11.3972 13.8613 11.4094 13.9116C11.585 14.6075 11.9834 15.2242 12.5419 15.6646C13.1004 16.105 13.7872 16.344 14.4942 16.344C15.2011 16.344 15.8879 16.105 16.4464 15.6646C17.0049 15.2242 17.4033 14.6075 17.5789 13.9116C17.6175 13.7434 17.5889 13.5666 17.4995 13.4197C17.4101 13.2729 17.267 13.1681 17.1017 13.1282C17.052 13.1169 17.0012 13.1114 16.9503 13.1119H12.038Z" fill="#39D3C6"/>
<path d="M14.4893 16.5789C14.7771 16.5782 15.0638 16.5414 15.3428 16.4693C15.9354 16.3147 16.4764 16.0012 16.909 15.5615C17.3417 15.1218 17.6502 14.5721 17.8023 13.9698C17.829 13.8565 17.8333 13.739 17.8152 13.624C17.7971 13.509 17.7568 13.3988 17.6967 13.2996C17.6366 13.2004 17.5579 13.1142 17.465 13.046C17.3721 12.9778 17.2669 12.9288 17.1553 12.902C17.0875 12.8871 17.0183 12.8792 16.9488 12.8787H12.0389C11.9247 12.8759 11.8112 12.8971 11.7055 12.9408C11.5997 12.9845 11.5039 13.0499 11.424 13.1328C11.342 13.2136 11.2768 13.3104 11.2322 13.4173C11.1877 13.5243 11.1648 13.6392 11.1647 13.7553C11.1632 13.826 11.1709 13.8966 11.1877 13.9652C11.3753 14.711 11.8013 15.3724 12.3989 15.8455C12.9965 16.3185 13.7318 16.5765 14.4893 16.5789ZM16.9557 13.345C16.9874 13.3453 17.019 13.3492 17.0498 13.3566C17.1025 13.3687 17.1524 13.3913 17.1965 13.4231C17.2406 13.455 17.278 13.4953 17.3066 13.542C17.3352 13.5886 17.3544 13.6406 17.3631 13.6948C17.3718 13.749 17.3698 13.8045 17.3572 13.8579C17.1982 14.5086 16.8294 15.0865 16.3096 15.4995C15.7899 15.9126 15.1491 16.1369 14.4893 16.1369C13.8295 16.1369 13.1887 15.9126 12.6689 15.4995C12.1492 15.0865 11.7804 14.5086 11.6213 13.8579C11.6176 13.8262 11.6176 13.7941 11.6213 13.7623C11.6215 13.7076 11.6324 13.6535 11.6533 13.6031C11.6741 13.5527 11.7046 13.507 11.7429 13.4685C11.7812 13.43 11.8267 13.3996 11.8768 13.3791C11.9268 13.3587 11.9804 13.3487 12.0343 13.3496H16.9557V13.345Z" fill="#39D3C6"/>
<path d="M15.0342 13.1467H13.7425V13.5431C13.7425 13.7169 13.8104 13.8835 13.9313 14.0064C14.0522 14.1293 14.2162 14.1983 14.3872 14.1983C14.5582 14.1983 14.7221 14.1293 14.8431 14.0064C14.964 13.8835 15.0319 13.7169 15.0319 13.5431V13.1467H15.0342Z" fill="white"/>
<path d="M14.4893 16.5789C14.7771 16.5782 15.0638 16.5414 15.3428 16.4693C15.9354 16.3147 16.4764 16.0012 16.909 15.5615C17.3417 15.1218 17.6502 14.5721 17.8023 13.9698C17.829 13.8565 17.8333 13.739 17.8152 13.624C17.7971 13.509 17.7568 13.3988 17.6967 13.2996C17.6366 13.2004 17.5579 13.1142 17.465 13.046C17.3721 12.9778 17.2669 12.9288 17.1553 12.902C17.0875 12.8871 17.0183 12.8792 16.9488 12.8787H12.0389C11.9247 12.8759 11.8112 12.8971 11.7055 12.9408C11.5997 12.9845 11.5039 13.0499 11.424 13.1328C11.342 13.2136 11.2768 13.3104 11.2322 13.4173C11.1877 13.5243 11.1648 13.6392 11.1647 13.7553C11.1632 13.826 11.1709 13.8966 11.1877 13.9652C11.3753 14.711 11.8013 15.3724 12.3989 15.8455C12.9965 16.3185 13.7318 16.5765 14.4893 16.5789ZM16.9557 13.345C16.9874 13.3453 17.019 13.3492 17.0498 13.3566C17.1025 13.3687 17.1524 13.3913 17.1965 13.4231C17.2406 13.455 17.278 13.4953 17.3066 13.542C17.3352 13.5886 17.3544 13.6406 17.3631 13.6948C17.3718 13.749 17.3698 13.8045 17.3572 13.8579C17.1982 14.5086 16.8294 15.0865 16.3096 15.4995C15.7899 15.9126 15.1491 16.1369 14.4893 16.1369C13.8295 16.1369 13.1887 15.9126 12.6689 15.4995C12.1492 15.0865 11.7804 14.5086 11.6213 13.8579C11.6176 13.8262 11.6176 13.7941 11.6213 13.7623C11.6215 13.7076 11.6324 13.6535 11.6533 13.6031C11.6741 13.5527 11.7046 13.507 11.7429 13.4685C11.7812 13.43 11.8267 13.3996 11.8768 13.3791C11.9268 13.3587 11.9804 13.3487 12.0343 13.3496H16.9557V13.345Z" fill="#39D3C6"/>
<g clip-path="url(#clip0_862_189)">
<path d="M276.221 21.0339V20.82C276.221 20.6144 276.045 20.4425 275.841 20.4425C275.637 20.4425 275.461 20.6144 275.461 20.82V21.1687V22.2302V28.2956V33.0873V35.9999V36.1499H275.611H276.071H276.221V35.9999V33.0873V28.4456H284.986C285.192 28.4456 285.402 28.3254 285.49 28.1296L285.49 28.1297L285.492 28.1244C285.571 27.9288 285.555 27.7152 285.405 27.545C285.405 27.5447 285.405 27.5445 285.404 27.5443L282.978 24.7324L285.404 21.9353C285.405 21.9351 285.405 21.9349 285.405 21.9347C285.553 21.7662 285.573 21.5372 285.491 21.3525C285.401 21.132 285.182 21.0339 284.986 21.0339H276.221ZM276.221 27.7059V22.2302V21.7737H284.549L282.285 24.3748C282.097 24.5832 282.097 24.8963 282.285 25.1048L284.549 27.7059H276.221Z" fill="#39D3C6" stroke="#39D3C6" stroke-width="0.3"/>
</g>
<defs>
<clipPath id="clip0_862_189">
<rect width="16" height="16" fill="white" transform="translate(272 20)"/>
</clipPath>
</defs>
</svg>
