<svg width="40" height="40" viewBox="0 0 40 40" fill="none" xmlns="http://www.w3.org/2000/svg">
<rect width="40" height="40" rx="20" fill="#DFF8F6"/>
<g clip-path="url(#clip0)">
<path d="M29.5261 28.4999C29.6222 28.2952 29.7503 28.1073 29.9058 27.9431C30.2594 27.5042 30.581 27.0403 30.8679 26.5551C32.0273 24.5652 32.6307 22.3004 32.6151 19.9974C32.6145 17.1911 31.6781 14.465 29.9541 12.2506C28.2301 10.0362 25.8169 8.45991 23.0964 7.77107C20.3759 7.08223 17.5034 7.32019 14.9333 8.44731C12.3632 9.57443 10.2424 11.5264 8.90627 13.9943C7.57016 16.4621 7.09511 19.3051 7.55628 22.0733C8.01744 24.8415 9.38849 27.3769 11.4525 29.2784C13.5165 31.1799 16.1556 32.3388 18.9523 32.5719C21.749 32.8049 24.5435 32.0988 26.8938 30.5652C26.95 30.5278 27.0187 30.5141 27.085 30.5271C27.1513 30.5401 27.2098 30.5787 27.2478 30.6345L27.3581 30.8012C27.3581 30.8012 28.3998 32.3278 30.7653 32.6126C30.8459 32.6251 30.9282 32.6051 30.9941 32.557C31.06 32.5089 31.1041 32.4366 31.1168 32.356C31.1243 32.3102 31.1213 32.2633 31.1079 32.2188C31.0946 32.1744 31.0713 32.1336 31.0398 32.0995C30.3037 31.2585 29.7872 30.2484 29.5364 29.1593C29.4727 28.9445 29.4691 28.7165 29.5261 28.4999Z" fill="white"/>
<path d="M30.8135 33.0014C30.7767 33.0038 30.7399 33.0038 30.7032 33.0014C28.2094 32.7012 27.0856 31.0951 27.0395 31.0284L27.0061 30.954C24.9185 32.2937 22.4902 33.006 20.0097 33.0065C16.5601 33.0082 13.2512 31.6395 10.8109 29.2015C8.37048 26.7636 6.99853 23.456 6.99683 20.0065C6.99513 16.557 8.36381 13.2481 10.8018 10.8077C13.2398 8.3673 16.5473 6.99535 19.9968 6.99365V6.99365C23.4429 6.99772 26.7468 8.36832 29.1838 10.8049C31.6208 13.2414 32.9921 16.545 32.9968 19.9911C33.0126 22.3621 32.3924 24.6939 31.2009 26.7438C30.9025 27.2442 30.5699 27.7234 30.2054 28.178L30.1849 28.2011C30.0667 28.3272 29.9673 28.4698 29.8899 28.6244C29.8563 28.7677 29.8616 28.9174 29.9053 29.058C30.141 30.0937 30.6303 31.0546 31.3292 31.8545C31.3987 31.9309 31.4501 32.0221 31.4794 32.1212C31.5087 32.2203 31.5153 32.3247 31.4985 32.4267C31.4697 32.5875 31.3853 32.7331 31.2601 32.8381C31.1349 32.9432 30.9769 33.0009 30.8135 33.0014ZM19.9994 7.76334C16.7557 7.76334 13.6449 9.05189 11.3513 11.3455C9.05763 13.6391 7.76908 16.75 7.76908 19.9937C7.76908 23.2373 9.05763 26.3482 11.3513 28.6418C13.6449 30.9354 16.7557 32.224 19.9994 32.224C22.3689 32.2238 24.6871 31.5328 26.67 30.2356C26.811 30.1444 26.9819 30.1116 27.1466 30.1442C27.3113 30.1767 27.4569 30.2721 27.5526 30.4101L27.6655 30.582C27.6988 30.6307 28.5942 31.8879 30.6108 32.1983C29.9004 31.3391 29.3997 30.3263 29.1484 29.2402C29.0712 28.9641 29.0712 28.6721 29.1484 28.3961L29.1715 28.3294C29.2833 28.0932 29.4313 27.8759 29.6102 27.6854C29.9479 27.2635 30.2556 26.8186 30.5313 26.3538C31.6542 24.4233 32.239 22.227 32.2246 19.9937C32.2205 16.7521 30.9314 13.6444 28.6397 11.3518C26.3481 9.05922 23.2409 7.76877 19.9994 7.76334Z" fill="#2CD3C6"/>
<path d="M12.1415 16.2311C12.2642 16.2318 12.3817 16.281 12.4682 16.368C12.5547 16.455 12.6033 16.5727 12.6033 16.6955V17.8346C12.6033 17.9573 12.5547 18.075 12.4682 18.1621C12.3817 18.2491 12.2642 18.2983 12.1415 18.299C12.0183 18.299 11.9002 18.25 11.8131 18.163C11.726 18.0759 11.6771 17.9578 11.6771 17.8346V16.6955C11.6771 16.5723 11.726 16.4542 11.8131 16.3671C11.9002 16.28 12.0183 16.2311 12.1415 16.2311Z" fill="#2CD3C6"/>
<path d="M16.3748 16.2311C16.4975 16.2318 16.615 16.281 16.7015 16.368C16.788 16.455 16.8366 16.5727 16.8366 16.6955V17.8346C16.8366 17.9573 16.788 18.075 16.7015 18.1621C16.615 18.2491 16.4975 18.2983 16.3748 18.299C16.2516 18.299 16.1335 18.25 16.0464 18.163C15.9593 18.0759 15.9104 17.9578 15.9104 17.8346V16.6955C15.9104 16.5723 15.9593 16.4542 16.0464 16.3671C16.1335 16.28 16.2516 16.2311 16.3748 16.2311Z" fill="#2CD3C6"/>
<path d="M14.3967 22.5374C14.2766 22.5373 14.1566 22.5296 14.0375 22.5143C13.987 22.5076 13.9382 22.4909 13.8941 22.4654C13.85 22.4398 13.8114 22.4058 13.7804 22.3653C13.7494 22.3248 13.7267 22.2786 13.7136 22.2293C13.7005 22.1801 13.6972 22.1287 13.704 22.0782C13.7107 22.0276 13.7273 21.9789 13.7529 21.9348C13.7785 21.8907 13.8125 21.852 13.853 21.8211C13.8935 21.7901 13.9397 21.7674 13.9889 21.7543C14.0382 21.7412 14.0896 21.7379 14.1401 21.7446C14.5566 21.8017 14.9802 21.7197 15.3453 21.5115C15.7104 21.3032 15.9965 20.9802 16.1593 20.5927C16.1785 20.5458 16.2067 20.5032 16.2424 20.4673C16.278 20.4314 16.3204 20.4029 16.3671 20.3833C16.4138 20.3638 16.4639 20.3536 16.5145 20.3535C16.5651 20.3533 16.6153 20.3631 16.6621 20.3823C16.709 20.4015 16.7516 20.4297 16.7875 20.4654C16.8234 20.501 16.8519 20.5434 16.8715 20.5901C16.891 20.6368 16.9011 20.6869 16.9013 20.7375C16.9015 20.7881 16.8917 20.8383 16.8725 20.8851C16.6689 21.3741 16.3252 21.7919 15.8847 22.086C15.4441 22.38 14.9264 22.5371 14.3967 22.5374Z" fill="#2CD3C6"/>
</g>
<defs>
<clipPath id="clip0">
<rect width="26" height="26" fill="white" transform="translate(7 7)"/>
</clipPath>
</defs>
</svg>
