<svg width="288" height="44" viewBox="0 0 288 44" fill="none" xmlns="http://www.w3.org/2000/svg">
<rect y="36" width="288" height="8" rx="4" fill="#F5F5F5"/>
<rect y="36" width="115.2" height="8" rx="4" fill="#39D3C6"/>
<path d="M104.339 19.6753V5.89803C104.339 4.95654 104.703 4.05361 105.351 3.38788C105.999 2.72215 106.877 2.34814 107.794 2.34814H121.206C122.122 2.34814 123.001 2.72215 123.649 3.38788C124.297 4.05361 124.661 4.95654 124.661 5.89803V19.6753C124.661 20.1415 124.572 20.6031 124.399 21.0339C124.226 21.4648 123.971 21.8563 123.651 22.1861C123.33 22.516 122.949 22.7777 122.53 22.9564C122.111 23.1351 121.662 23.2272 121.208 23.2275H108.943C108.906 23.2274 108.87 23.2367 108.837 23.2545C108.805 23.2723 108.777 23.2981 108.756 23.3296C107.927 24.6034 106.868 25.4456 105.307 25.6498C105.235 25.659 105.162 25.6382 105.104 25.5921C105.047 25.546 105.009 25.4783 105 25.4038C104.996 25.365 104.999 25.3255 105.01 25.288C105.021 25.2505 105.039 25.2157 105.064 25.1857C105.579 24.5606 105.983 23.8465 106.256 23.0767C106.272 23.0241 106.27 22.9671 106.25 22.916C106.229 22.865 106.191 22.8232 106.143 22.7983C105.596 22.4928 105.14 22.0415 104.823 21.4918C104.505 20.9421 104.338 20.3145 104.339 19.6753Z" fill="white"/>
<path d="M105.274 26H105.348C106.882 25.7981 108.045 25.0302 109.002 23.58H121.197C121.696 23.5804 122.191 23.4796 122.652 23.2835C123.114 23.0874 123.533 22.7998 123.886 22.4372C124.239 22.0745 124.519 21.644 124.71 21.17C124.902 20.6961 125 20.1882 125 19.6752V5.89791C124.999 4.8645 124.599 3.87376 123.887 3.14303C123.176 2.41229 122.212 2.00123 121.206 2H107.796C106.79 2.00061 105.825 2.41133 105.113 3.14207C104.4 3.8728 104 4.86388 103.998 5.89791V19.6752C103.996 20.3612 104.171 21.0354 104.505 21.6295C104.839 22.2236 105.32 22.7164 105.899 23.058C105.643 23.7541 105.273 24.4005 104.806 24.9698C104.73 25.0616 104.682 25.1737 104.666 25.293C104.65 25.4122 104.668 25.5336 104.717 25.6429C104.766 25.7522 104.845 25.8447 104.943 25.9096C105.042 25.9745 105.157 26.0091 105.274 26.0093V26ZM108.941 22.8817C108.849 22.8817 108.759 22.905 108.677 22.9495C108.596 22.994 108.527 23.0584 108.476 23.1369C107.661 24.3898 106.69 25.0742 105.427 25.2831C105.92 24.6571 106.307 23.9514 106.574 23.1949C106.616 23.0639 106.611 22.9219 106.56 22.7943C106.509 22.6668 106.416 22.562 106.297 22.4988C105.803 22.223 105.391 21.8146 105.106 21.3174C104.82 20.8201 104.672 20.2525 104.675 19.6752V5.89791C104.676 5.04851 105.005 4.23411 105.589 3.63372C106.174 3.03332 106.967 2.69606 107.794 2.69606H121.206C122.032 2.69667 122.825 3.03421 123.409 3.63454C123.993 4.23487 124.322 5.04892 124.323 5.89791V19.6752C124.323 20.5246 123.995 21.3395 123.411 21.9407C122.827 22.542 122.035 22.8804 121.208 22.8817H108.941Z" fill="#39D3C6" stroke="#39D3C6" stroke-width="0.3"/>
<path d="M116.364 6.73096C116.31 6.73096 116.257 6.74182 116.208 6.76292C116.158 6.78403 116.113 6.81496 116.075 6.85396C116.037 6.89296 116.007 6.93925 115.986 6.9902C115.966 7.04115 115.955 7.09576 115.955 7.15091V8.18107C115.955 8.23622 115.966 8.29083 115.986 8.34178C116.007 8.39273 116.037 8.43903 116.075 8.47803C116.113 8.51702 116.158 8.54796 116.208 8.56906C116.257 8.59017 116.31 8.60103 116.364 8.60103C116.472 8.60042 116.575 8.5559 116.652 8.47721C116.728 8.39852 116.771 8.29205 116.771 8.18107V7.15091C116.771 7.03993 116.728 6.93347 116.652 6.85478C116.575 6.77609 116.472 6.73157 116.364 6.73096Z" fill="#39D3C6" stroke="#39D3C6" stroke-width="0.1"/>
<path d="M112.637 6.73096C112.529 6.73096 112.425 6.7752 112.348 6.85396C112.272 6.93272 112.229 7.03953 112.229 7.15091V8.18107C112.229 8.29245 112.272 8.39927 112.348 8.47803C112.425 8.55678 112.529 8.60103 112.637 8.60103C112.745 8.60042 112.849 8.5559 112.925 8.47721C113.001 8.39852 113.044 8.29205 113.044 8.18107V7.15091C113.044 7.03993 113.001 6.93347 112.925 6.85478C112.849 6.77609 112.745 6.73157 112.637 6.73096Z" fill="#39D3C6" stroke="#39D3C6" stroke-width="0.1"/>
<path d="M112.921 10.6475H116.005C116.108 10.6558 116.202 10.7049 116.269 10.7843C116.337 10.8637 116.371 10.9671 116.365 11.0721V13.0048C116.371 13.1098 116.337 13.2131 116.269 13.2925C116.202 13.3719 116.108 13.421 116.005 13.4294H112.921C112.818 13.4216 112.724 13.3726 112.657 13.293C112.59 13.2133 112.556 13.1097 112.564 13.0048V11.0721C112.556 10.9671 112.59 10.8635 112.657 10.7839C112.724 10.7042 112.818 10.6552 112.921 10.6475Z" fill="#39D3C6"/>
<path d="M116.005 13.6612C116.086 13.6568 116.166 13.6358 116.24 13.5995C116.313 13.5633 116.379 13.5124 116.434 13.4499C116.488 13.3873 116.53 13.3143 116.557 13.2351C116.583 13.1559 116.595 13.0721 116.59 12.9884V11.0719C116.597 10.9078 116.542 10.7471 116.435 10.6244C116.329 10.5017 116.18 10.4266 116.021 10.4153H112.904C112.742 10.4278 112.592 10.5055 112.486 10.6316C112.379 10.7577 112.326 10.9218 112.337 11.0881V13.0046C112.329 13.1685 112.384 13.3292 112.49 13.4519C112.596 13.5747 112.745 13.6499 112.904 13.6612H116.005ZM116.005 10.877C116.045 10.8838 116.08 10.9058 116.105 10.9384C116.13 10.9711 116.141 11.0121 116.138 11.0533V13.0023C116.141 13.025 116.139 13.0481 116.133 13.0702C116.127 13.0923 116.117 13.1129 116.103 13.1309C116.089 13.1488 116.072 13.1638 116.052 13.1747C116.033 13.1857 116.011 13.1926 115.989 13.1949H112.92C112.881 13.1875 112.845 13.1654 112.821 13.1327C112.797 13.1001 112.786 13.0594 112.789 13.0185V11.0719C112.783 11.0274 112.795 10.9822 112.821 10.9462C112.847 10.9102 112.886 10.8862 112.929 10.8793L116.005 10.877Z" fill="#39D3C6"/>
<path d="M115.389 10.7542H113.537V11.5941C113.537 11.6488 113.558 11.7013 113.596 11.7401C113.633 11.7788 113.685 11.8006 113.738 11.8006H115.188C115.241 11.8006 115.292 11.7788 115.33 11.7401C115.367 11.7013 115.389 11.6488 115.389 11.5941V10.7542Z" fill="white"/>
<path d="M116.005 13.6612C116.086 13.6568 116.166 13.6358 116.24 13.5995C116.313 13.5633 116.379 13.5124 116.434 13.4499C116.488 13.3873 116.53 13.3143 116.557 13.2351C116.583 13.1559 116.595 13.0721 116.59 12.9884V11.0719C116.597 10.9078 116.542 10.7471 116.435 10.6244C116.329 10.5017 116.18 10.4266 116.021 10.4153H112.904C112.742 10.4278 112.592 10.5055 112.486 10.6316C112.379 10.7577 112.326 10.9218 112.337 11.0881V13.0046C112.329 13.1685 112.384 13.3292 112.49 13.4519C112.596 13.5747 112.745 13.6499 112.904 13.6612H116.005ZM116.005 10.877C116.045 10.8838 116.08 10.9058 116.105 10.9384C116.13 10.9711 116.141 11.0121 116.138 11.0533V13.0023C116.141 13.025 116.139 13.0481 116.133 13.0702C116.127 13.0923 116.117 13.1129 116.103 13.1309C116.089 13.1488 116.072 13.1638 116.052 13.1747C116.033 13.1857 116.011 13.1926 115.989 13.1949H112.92C112.881 13.1875 112.845 13.1654 112.821 13.1327C112.797 13.1001 112.786 13.0594 112.789 13.0185V11.0719C112.783 11.0274 112.795 10.9822 112.821 10.9462C112.847 10.9102 112.886 10.8862 112.929 10.8793L116.005 10.877Z" fill="#39D3C6" stroke="#39D3C6" stroke-width="0.1"/>
<path d="M262.529 21.5523L268.115 11.7106L273.711 1.86893C273.837 1.65756 274.041 1.50568 274.277 1.44666C274.513 1.38764 274.763 1.42631 274.971 1.55416C275.097 1.6325 275.204 1.74042 275.281 1.86893L280.872 11.7106L286.47 21.5523C286.587 21.7687 286.615 22.0236 286.548 22.261C286.48 22.4984 286.323 22.6988 286.11 22.8183C285.98 22.8926 285.834 22.9327 285.686 22.9349H268.214C268.197 22.9346 268.181 22.9385 268.166 22.9462C268.151 22.9539 268.139 22.9653 268.129 22.9792C267.069 24.5927 266.459 25.3108 264.382 25.5766C264.314 25.5839 264.245 25.5635 264.191 25.5199C264.137 25.4763 264.102 25.413 264.093 25.3434C264.09 25.308 264.093 25.2722 264.103 25.2382C264.114 25.2041 264.13 25.1725 264.153 25.1453C264.667 24.5181 264.997 24.3059 265.041 23.0468C265.041 23.033 265.039 23.0193 265.034 23.0065C265.029 22.9936 265.022 22.9819 265.012 22.9719C265.003 22.962 264.992 22.954 264.979 22.9484C264.967 22.9429 264.953 22.9399 264.94 22.9396H263.318C263.16 22.9368 263.005 22.8926 262.869 22.8114C262.733 22.7301 262.619 22.6145 262.54 22.4756C262.461 22.3368 262.418 22.1795 262.416 22.019C262.414 21.8584 262.453 21.7001 262.529 21.5593V21.5523Z" fill="white"/>
<path d="M264.355 25.9286H264.417C266.537 25.6534 267.266 24.9072 268.345 23.2843H285.686C285.903 23.2814 286.117 23.2211 286.305 23.1094C286.493 22.9976 286.649 22.8383 286.759 22.6468C286.868 22.4553 286.926 22.2383 286.929 22.017C286.931 21.7956 286.876 21.5775 286.771 21.3838L281.17 11.5343L275.579 1.69166C275.467 1.50241 275.308 1.34586 275.119 1.23719C274.929 1.12852 274.716 1.07141 274.498 1.07141C274.281 1.07141 274.067 1.12852 273.878 1.23719C273.688 1.34586 273.53 1.50241 273.418 1.69166L267.817 11.5343L262.226 21.3838C262.129 21.5663 262.077 21.7692 262.072 21.9761C262.069 22.1446 262.098 22.3119 262.159 22.4687C262.22 22.6255 262.31 22.7686 262.425 22.8899C262.54 23.0111 262.678 23.1082 262.83 23.1754C262.982 23.2427 263.145 23.2789 263.311 23.2819H264.674C264.671 23.5445 264.616 23.8038 264.513 24.0442C264.409 24.2847 264.258 24.5013 264.07 24.681C264.008 24.751 263.946 24.8256 263.88 24.9142C263.806 25.0039 263.759 25.113 263.743 25.2288C263.728 25.3447 263.746 25.4626 263.794 25.5688C263.842 25.675 263.918 25.7652 264.015 25.8289C264.111 25.8925 264.224 25.9271 264.339 25.9286H264.355ZM268.205 22.5847C268.134 22.5856 268.064 22.6038 268.002 22.6379C267.94 22.672 267.886 22.721 267.847 22.7806C266.823 24.3359 266.284 24.9399 264.552 25.201L264.598 25.1451C265.029 24.6414 265.344 24.2753 265.385 23.0464C265.389 22.9339 265.352 22.8237 265.281 22.7374C265.21 22.6512 265.109 22.5951 264.999 22.5801H264.937H263.318C263.243 22.5786 263.17 22.5621 263.102 22.5317C263.034 22.5013 262.972 22.4575 262.921 22.4028C262.815 22.2916 262.757 22.1423 262.76 21.9878C262.762 21.8941 262.786 21.8023 262.829 21.7196L268.413 11.884L274.01 2.04143C274.061 1.95656 274.133 1.88646 274.218 1.83784C274.304 1.78921 274.4 1.76368 274.498 1.76368C274.596 1.76368 274.693 1.78921 274.778 1.83784C274.864 1.88646 274.936 1.95656 274.987 2.04143L280.574 11.884L286.172 21.7266C286.243 21.8617 286.258 22.0195 286.215 22.1661C286.172 22.3126 286.074 22.4362 285.943 22.5101C285.862 22.556 285.771 22.5808 285.679 22.5824H268.205V22.5847Z" fill="#39D3C6" stroke="#39D3C6" stroke-width="0.3"/>
<path d="M275.745 9.40918C275.635 9.40918 275.529 9.45364 275.452 9.53279C275.374 9.61193 275.33 9.71927 275.33 9.8312V10.8664C275.33 10.9784 275.374 11.0857 275.452 11.1648C275.529 11.244 275.635 11.2884 275.745 11.2884C275.855 11.2878 275.96 11.2431 276.037 11.164C276.115 11.0849 276.158 10.9779 276.158 10.8664V9.8312C276.158 9.71967 276.115 9.61268 276.037 9.53361C275.96 9.45453 275.855 9.4098 275.745 9.40918Z" fill="#39D3C6"/>
<path d="M273.092 9.40918C272.982 9.4098 272.877 9.45453 272.799 9.53361C272.722 9.61268 272.679 9.71967 272.679 9.8312V10.8664C272.679 10.9779 272.722 11.0849 272.799 11.164C272.877 11.2431 272.982 11.2878 273.092 11.2884C273.202 11.2884 273.307 11.244 273.385 11.1648C273.463 11.0857 273.507 10.9784 273.507 10.8664V9.8312C273.507 9.71927 273.463 9.61193 273.385 9.53279C273.307 9.45364 273.202 9.40918 273.092 9.40918Z" fill="#39D3C6"/>
<path d="M272.038 13.1119C271.954 13.1109 271.87 13.1269 271.792 13.159C271.714 13.191 271.643 13.2384 271.583 13.2984C271.523 13.3584 271.476 13.4299 271.443 13.5087C271.411 13.5876 271.394 13.6722 271.393 13.7577C271.392 13.8095 271.397 13.8613 271.409 13.9116C271.585 14.6075 271.983 15.2242 272.542 15.6646C273.1 16.105 273.787 16.344 274.494 16.344C275.201 16.344 275.888 16.105 276.446 15.6646C277.005 15.2242 277.403 14.6075 277.579 13.9116C277.618 13.7434 277.589 13.5666 277.5 13.4197C277.41 13.2729 277.267 13.1681 277.102 13.1282C277.052 13.1169 277.001 13.1114 276.95 13.1119H272.038Z" fill="#39D3C6"/>
<path d="M274.489 16.5789C274.777 16.5782 275.064 16.5414 275.343 16.4693C275.935 16.3147 276.476 16.0012 276.909 15.5615C277.342 15.1218 277.65 14.5721 277.802 13.9698C277.829 13.8565 277.833 13.739 277.815 13.624C277.797 13.509 277.757 13.3988 277.697 13.2996C277.637 13.2004 277.558 13.1142 277.465 13.046C277.372 12.9778 277.267 12.9288 277.155 12.902C277.087 12.8871 277.018 12.8792 276.949 12.8787H272.039C271.925 12.8759 271.811 12.8971 271.705 12.9408C271.6 12.9845 271.504 13.0499 271.424 13.1328C271.342 13.2136 271.277 13.3104 271.232 13.4173C271.188 13.5243 271.165 13.6392 271.165 13.7553C271.163 13.826 271.171 13.8966 271.188 13.9652C271.375 14.711 271.801 15.3724 272.399 15.8455C272.996 16.3185 273.732 16.5765 274.489 16.5789ZM276.956 13.345C276.987 13.3453 277.019 13.3492 277.05 13.3566C277.103 13.3687 277.152 13.3913 277.196 13.4231C277.241 13.455 277.278 13.4953 277.307 13.542C277.335 13.5886 277.354 13.6406 277.363 13.6948C277.372 13.749 277.37 13.8045 277.357 13.8579C277.198 14.5086 276.829 15.0865 276.31 15.4995C275.79 15.9126 275.149 16.1369 274.489 16.1369C273.829 16.1369 273.189 15.9126 272.669 15.4995C272.149 15.0865 271.78 14.5086 271.621 13.8579C271.618 13.8262 271.618 13.7941 271.621 13.7623C271.622 13.7076 271.632 13.6535 271.653 13.6031C271.674 13.5527 271.705 13.507 271.743 13.4685C271.781 13.43 271.827 13.3996 271.877 13.3791C271.927 13.3587 271.98 13.3487 272.034 13.3496H276.956V13.345Z" fill="#39D3C6"/>
<path d="M275.034 13.1467H273.742V13.5431C273.742 13.7169 273.81 13.8835 273.931 14.0064C274.052 14.1293 274.216 14.1983 274.387 14.1983C274.558 14.1983 274.722 14.1293 274.843 14.0064C274.964 13.8835 275.032 13.7169 275.032 13.5431V13.1467H275.034Z" fill="white"/>
<path d="M274.489 16.5789C274.777 16.5782 275.064 16.5414 275.343 16.4693C275.935 16.3147 276.476 16.0012 276.909 15.5615C277.342 15.1218 277.65 14.5721 277.802 13.9698C277.829 13.8565 277.833 13.739 277.815 13.624C277.797 13.509 277.757 13.3988 277.697 13.2996C277.637 13.2004 277.558 13.1142 277.465 13.046C277.372 12.9778 277.267 12.9288 277.155 12.902C277.087 12.8871 277.018 12.8792 276.949 12.8787H272.039C271.925 12.8759 271.811 12.8971 271.705 12.9408C271.6 12.9845 271.504 13.0499 271.424 13.1328C271.342 13.2136 271.277 13.3104 271.232 13.4173C271.188 13.5243 271.165 13.6392 271.165 13.7553C271.163 13.826 271.171 13.8966 271.188 13.9652C271.375 14.711 271.801 15.3724 272.399 15.8455C272.996 16.3185 273.732 16.5765 274.489 16.5789ZM276.956 13.345C276.987 13.3453 277.019 13.3492 277.05 13.3566C277.103 13.3687 277.152 13.3913 277.196 13.4231C277.241 13.455 277.278 13.4953 277.307 13.542C277.335 13.5886 277.354 13.6406 277.363 13.6948C277.372 13.749 277.37 13.8045 277.357 13.8579C277.198 14.5086 276.829 15.0865 276.31 15.4995C275.79 15.9126 275.149 16.1369 274.489 16.1369C273.829 16.1369 273.189 15.9126 272.669 15.4995C272.149 15.0865 271.78 14.5086 271.621 13.8579C271.618 13.8262 271.618 13.7941 271.621 13.7623C271.622 13.7076 271.632 13.6535 271.653 13.6031C271.674 13.5527 271.705 13.507 271.743 13.4685C271.781 13.43 271.827 13.3996 271.877 13.3791C271.927 13.3587 271.98 13.3487 272.034 13.3496H276.956V13.345Z" fill="#39D3C6"/>
</svg>
