<svg width="290" height="44" viewBox="0 0 290 44" fill="none" xmlns="http://www.w3.org/2000/svg">
<rect y="36" width="288" height="8" rx="4" fill="#F5F5F5"/>
<rect y="36" width="115.2" height="8" rx="4" fill="#39D3C6"/>
<path d="M265.339 19.6753V5.89803C265.339 4.95654 265.703 4.05361 266.351 3.38788C266.999 2.72215 267.877 2.34814 268.794 2.34814H282.206C283.122 2.34814 284.001 2.72215 284.649 3.38788C285.297 4.05361 285.661 4.95654 285.661 5.89803V19.6753C285.661 20.1415 285.572 20.6031 285.399 21.0339C285.226 21.4648 284.971 21.8563 284.651 22.1861C284.33 22.516 283.949 22.7777 283.53 22.9564C283.111 23.1351 282.662 23.2272 282.208 23.2275H269.943C269.906 23.2274 269.87 23.2367 269.837 23.2545C269.805 23.2723 269.777 23.2981 269.756 23.3296C268.927 24.6034 267.868 25.4456 266.307 25.6498C266.235 25.659 266.162 25.6382 266.104 25.5921C266.047 25.546 266.009 25.4783 266 25.4038C265.996 25.365 265.999 25.3255 266.01 25.288C266.021 25.2505 266.039 25.2157 266.064 25.1857C266.579 24.5606 266.983 23.8465 267.256 23.0767C267.272 23.0241 267.27 22.9671 267.25 22.916C267.229 22.865 267.191 22.8232 267.143 22.7983C266.596 22.4928 266.14 22.0415 265.823 21.4918C265.505 20.9421 265.338 20.3145 265.339 19.6753Z" fill="white"/>
<path d="M266.274 26H266.348C267.882 25.7981 269.045 25.0302 270.002 23.58H282.197C282.696 23.5804 283.191 23.4796 283.652 23.2835C284.114 23.0874 284.533 22.7998 284.886 22.4372C285.239 22.0745 285.519 21.644 285.71 21.17C285.902 20.6961 286 20.1882 286 19.6752V5.89791C285.999 4.8645 285.599 3.87376 284.887 3.14303C284.176 2.41229 283.212 2.00123 282.206 2H268.796C267.79 2.00061 266.825 2.41133 266.113 3.14207C265.4 3.8728 265 4.86388 264.998 5.89791V19.6752C264.996 20.3612 265.171 21.0354 265.505 21.6295C265.839 22.2236 266.32 22.7164 266.899 23.058C266.643 23.7541 266.273 24.4005 265.806 24.9698C265.73 25.0616 265.682 25.1737 265.666 25.293C265.65 25.4122 265.668 25.5336 265.717 25.6429C265.766 25.7522 265.845 25.8447 265.943 25.9096C266.042 25.9745 266.157 26.0091 266.274 26.0093V26ZM269.941 22.8817C269.849 22.8817 269.759 22.905 269.677 22.9495C269.596 22.994 269.527 23.0584 269.476 23.1369C268.661 24.3898 267.69 25.0742 266.427 25.2831C266.92 24.6571 267.307 23.9514 267.574 23.1949C267.616 23.0639 267.611 22.9219 267.56 22.7943C267.509 22.6668 267.416 22.562 267.297 22.4988C266.803 22.223 266.391 21.8146 266.106 21.3174C265.82 20.8201 265.672 20.2525 265.675 19.6752V5.89791C265.676 5.04851 266.005 4.23411 266.589 3.63372C267.174 3.03332 267.967 2.69606 268.794 2.69606H282.206C283.032 2.69667 283.825 3.03421 284.409 3.63454C284.993 4.23487 285.322 5.04892 285.323 5.89791V19.6752C285.323 20.5246 284.995 21.3395 284.411 21.9407C283.827 22.542 283.035 22.8804 282.208 22.8817H269.941Z" fill="#39D3C6" stroke="#39D3C6" stroke-width="0.3"/>
<path d="M277.364 6.73096C277.31 6.73096 277.257 6.74182 277.208 6.76292C277.158 6.78403 277.113 6.81496 277.075 6.85396C277.037 6.89296 277.007 6.93925 276.986 6.9902C276.966 7.04115 276.955 7.09576 276.955 7.15091V8.18107C276.955 8.23622 276.966 8.29083 276.986 8.34178C277.007 8.39273 277.037 8.43903 277.075 8.47803C277.113 8.51702 277.158 8.54796 277.208 8.56906C277.257 8.59017 277.31 8.60103 277.364 8.60103C277.472 8.60042 277.575 8.5559 277.652 8.47721C277.728 8.39852 277.771 8.29205 277.771 8.18107V7.15091C277.771 7.03993 277.728 6.93347 277.652 6.85478C277.575 6.77609 277.472 6.73157 277.364 6.73096Z" fill="#39D3C6" stroke="#39D3C6" stroke-width="0.1"/>
<path d="M273.637 6.73096C273.529 6.73096 273.425 6.7752 273.348 6.85396C273.272 6.93272 273.229 7.03953 273.229 7.15091V8.18107C273.229 8.29245 273.272 8.39927 273.348 8.47803C273.425 8.55678 273.529 8.60103 273.637 8.60103C273.745 8.60042 273.849 8.5559 273.925 8.47721C274.001 8.39852 274.044 8.29205 274.044 8.18107V7.15091C274.044 7.03993 274.001 6.93347 273.925 6.85478C273.849 6.77609 273.745 6.73157 273.637 6.73096Z" fill="#39D3C6" stroke="#39D3C6" stroke-width="0.1"/>
<path d="M273.921 10.6475H277.005C277.108 10.6558 277.202 10.7049 277.269 10.7843C277.337 10.8637 277.371 10.9671 277.365 11.0721V13.0048C277.371 13.1098 277.337 13.2131 277.269 13.2925C277.202 13.3719 277.108 13.421 277.005 13.4294H273.921C273.818 13.4216 273.724 13.3726 273.657 13.293C273.59 13.2133 273.556 13.1097 273.564 13.0048V11.0721C273.556 10.9671 273.59 10.8635 273.657 10.7839C273.724 10.7042 273.818 10.6552 273.921 10.6475Z" fill="#39D3C6"/>
<path d="M277.005 13.6612C277.086 13.6568 277.166 13.6358 277.24 13.5995C277.313 13.5633 277.379 13.5124 277.434 13.4499C277.488 13.3873 277.53 13.3143 277.557 13.2351C277.583 13.1559 277.595 13.0721 277.59 12.9884V11.0719C277.597 10.9078 277.542 10.7471 277.435 10.6244C277.329 10.5017 277.18 10.4266 277.021 10.4153H273.904C273.742 10.4278 273.592 10.5055 273.486 10.6316C273.379 10.7577 273.326 10.9218 273.337 11.0881V13.0046C273.329 13.1685 273.384 13.3292 273.49 13.4519C273.596 13.5747 273.745 13.6499 273.904 13.6612H277.005ZM277.005 10.877C277.045 10.8838 277.08 10.9058 277.105 10.9384C277.13 10.9711 277.141 11.0121 277.138 11.0533V13.0023C277.141 13.025 277.139 13.0481 277.133 13.0702C277.127 13.0923 277.117 13.1129 277.103 13.1309C277.089 13.1488 277.072 13.1638 277.052 13.1747C277.033 13.1857 277.011 13.1926 276.989 13.1949H273.92C273.881 13.1875 273.845 13.1654 273.821 13.1327C273.797 13.1001 273.786 13.0594 273.789 13.0185V11.0719C273.783 11.0274 273.795 10.9822 273.821 10.9462C273.847 10.9102 273.886 10.8862 273.929 10.8793L277.005 10.877Z" fill="#39D3C6"/>
<path d="M276.389 10.7542H274.537V11.5941C274.537 11.6488 274.558 11.7013 274.596 11.7401C274.633 11.7788 274.685 11.8006 274.738 11.8006H276.188C276.241 11.8006 276.292 11.7788 276.33 11.7401C276.367 11.7013 276.389 11.6488 276.389 11.5941V10.7542Z" fill="white"/>
<path d="M277.005 13.6612C277.086 13.6568 277.166 13.6358 277.24 13.5995C277.313 13.5633 277.379 13.5124 277.434 13.4499C277.488 13.3873 277.53 13.3143 277.557 13.2351C277.583 13.1559 277.595 13.0721 277.59 12.9884V11.0719C277.597 10.9078 277.542 10.7471 277.435 10.6244C277.329 10.5017 277.18 10.4266 277.021 10.4153H273.904C273.742 10.4278 273.592 10.5055 273.486 10.6316C273.379 10.7577 273.326 10.9218 273.337 11.0881V13.0046C273.329 13.1685 273.384 13.3292 273.49 13.4519C273.596 13.5747 273.745 13.6499 273.904 13.6612H277.005ZM277.005 10.877C277.045 10.8838 277.08 10.9058 277.105 10.9384C277.13 10.9711 277.141 11.0121 277.138 11.0533V13.0023C277.141 13.025 277.139 13.0481 277.133 13.0702C277.127 13.0923 277.117 13.1129 277.103 13.1309C277.089 13.1488 277.072 13.1638 277.052 13.1747C277.033 13.1857 277.011 13.1926 276.989 13.1949H273.92C273.881 13.1875 273.845 13.1654 273.821 13.1327C273.797 13.1001 273.786 13.0594 273.789 13.0185V11.0719C273.783 11.0274 273.795 10.9822 273.821 10.9462C273.847 10.9102 273.886 10.8862 273.929 10.8793L277.005 10.877Z" fill="#39D3C6" stroke="#39D3C6" stroke-width="0.1"/>
<circle cx="115" cy="14" r="11.6667" fill="#DFF8F6"/>
<path d="M106.451 21.628C106.365 21.4443 106.25 21.2756 106.11 21.1283C105.793 20.7344 105.504 20.3181 105.247 19.8827C104.206 18.0969 103.665 16.0643 103.679 13.9976C103.679 11.479 104.52 9.03258 106.067 7.0453C107.614 5.05803 109.78 3.64338 112.221 3.02519C114.663 2.40699 117.24 2.62055 119.547 3.63207C121.853 4.64359 123.757 6.39532 124.956 8.6101C126.155 10.8249 126.581 13.3762 126.167 15.8605C125.754 18.3448 124.523 20.6202 122.671 22.3266C120.818 24.0331 118.45 25.0732 115.94 25.2823C113.43 25.4915 110.922 24.8578 108.813 23.4815C108.763 23.4479 108.701 23.4356 108.642 23.4473C108.582 23.4589 108.53 23.4935 108.495 23.5436L108.396 23.6933C108.396 23.6933 107.462 25.0633 105.339 25.3188C105.266 25.3301 105.193 25.3122 105.133 25.269C105.074 25.2258 105.035 25.1609 105.023 25.0886C105.017 25.0475 105.019 25.0054 105.031 24.9655C105.043 24.9256 105.064 24.889 105.092 24.8584C105.753 24.1036 106.217 23.1971 106.442 22.2197C106.499 22.027 106.502 21.8223 106.451 21.628Z" fill="white"/>
<path d="M105.296 25.6676C105.329 25.6698 105.362 25.6698 105.395 25.6676C107.633 25.3982 108.642 23.9569 108.683 23.897L108.713 23.8303C110.586 25.0325 112.766 25.6718 114.992 25.6722C118.087 25.6738 121.057 24.4455 123.247 22.2575C125.437 20.0696 126.668 17.1013 126.67 14.0056C126.671 10.9099 125.443 7.94032 123.255 5.75024C121.067 3.56015 118.099 2.32892 115.003 2.32739V2.32739C111.911 2.33105 108.946 3.56107 106.759 5.7477C104.571 7.93434 103.341 10.8991 103.337 13.9918C103.322 16.1196 103.879 18.2122 104.948 20.0519C105.216 20.501 105.515 20.931 105.842 21.339L105.86 21.3597C105.966 21.4729 106.055 21.6009 106.125 21.7396C106.155 21.8682 106.15 22.0026 106.111 22.1287C105.899 23.0582 105.46 23.9206 104.833 24.6384C104.771 24.707 104.725 24.7888 104.698 24.8777C104.672 24.9667 104.666 25.0604 104.681 25.1519C104.707 25.2962 104.783 25.4269 104.895 25.5212C105.008 25.6154 105.149 25.6672 105.296 25.6676ZM115.001 3.01814C117.912 3.01814 120.704 4.17453 122.762 6.23291C124.82 8.2913 125.977 11.0831 125.977 13.9941C125.977 16.9051 124.82 19.6968 122.762 21.7552C120.704 23.8136 117.912 24.97 115.001 24.97C112.874 24.9698 110.794 24.3497 109.015 23.1856C108.888 23.1037 108.735 23.0743 108.587 23.1035C108.439 23.1327 108.308 23.2183 108.222 23.3421L108.121 23.4964C108.091 23.5401 107.288 24.6684 105.478 24.947C106.115 24.1759 106.565 23.267 106.79 22.2922C106.86 22.0444 106.86 21.7824 106.79 21.5347L106.77 21.4748C106.669 21.2629 106.536 21.0679 106.376 20.8969C106.073 20.5183 105.797 20.119 105.549 19.7019C104.542 17.9694 104.017 15.9983 104.03 13.9941C104.033 11.085 105.19 8.29603 107.247 6.23857C109.303 4.18111 112.092 3.02301 115.001 3.01814Z" fill="#39D3C6" stroke="#39D3C6" stroke-width="0.3"/>
<path d="M122.053 10.6177C121.943 10.6183 121.837 10.6625 121.76 10.7405C121.682 10.8186 121.639 10.9243 121.639 11.0344V12.0567C121.639 12.1669 121.682 12.2725 121.76 12.3506C121.837 12.4287 121.943 12.4729 122.053 12.4735C122.164 12.4735 122.27 12.4296 122.348 12.3514C122.426 12.2733 122.47 12.1673 122.47 12.0567V11.0344C122.47 10.9239 122.426 10.8179 122.348 10.7397C122.27 10.6616 122.164 10.6177 122.053 10.6177Z" fill="#39D3C6" stroke="#39D3C6" stroke-width="0.1"/>
<path d="M118.253 10.6177C118.143 10.6183 118.038 10.6625 117.96 10.7405C117.882 10.8186 117.839 10.9243 117.839 11.0344V12.0567C117.839 12.1669 117.882 12.2725 117.96 12.3506C118.038 12.4287 118.143 12.4729 118.253 12.4735C118.364 12.4735 118.47 12.4296 118.548 12.3514C118.626 12.2733 118.67 12.1673 118.67 12.0567V11.0344C118.67 10.9239 118.626 10.8179 118.548 10.7397C118.47 10.6616 118.364 10.6177 118.253 10.6177Z" fill="#39D3C6" stroke="#39D3C6" stroke-width="0.1"/>
<path d="M120.029 16.2773C120.136 16.2772 120.244 16.2703 120.351 16.2566C120.396 16.2506 120.44 16.2356 120.48 16.2127C120.519 16.1898 120.554 16.1592 120.582 16.1229C120.609 16.0865 120.63 16.0451 120.642 16.0009C120.653 15.9566 120.656 15.9105 120.65 15.8652C120.644 15.8198 120.629 15.7761 120.606 15.7365C120.583 15.6969 120.553 15.6623 120.517 15.6345C120.48 15.6067 120.439 15.5863 120.395 15.5745C120.35 15.5628 120.304 15.5598 120.259 15.5659C119.885 15.6171 119.505 15.5435 119.177 15.3566C118.85 15.1697 118.593 14.8798 118.447 14.5321C118.43 14.49 118.404 14.4518 118.372 14.4196C118.34 14.3873 118.302 14.3617 118.26 14.3442C118.218 14.3267 118.173 14.3175 118.128 14.3174C118.083 14.3172 118.038 14.326 117.996 14.3432C117.953 14.3605 117.915 14.3858 117.883 14.4178C117.851 14.4498 117.825 14.4879 117.808 14.5298C117.79 14.5717 117.781 14.6166 117.781 14.6621C117.781 14.7075 117.789 14.7525 117.807 14.7945C117.989 15.2334 118.298 15.6083 118.693 15.8722C119.089 16.1361 119.553 16.277 120.029 16.2773Z" fill="#39D3C6" stroke="#39D3C6" stroke-width="0.1"/>
</svg>
