<svg width="288" height="44" viewBox="0 0 288 44" fill="none" xmlns="http://www.w3.org/2000/svg">
<rect y="36" width="288" height="8" rx="4" fill="#F5F5F5"/>
<g clip-path="url(#clip0_862_333)">
<path d="M276.221 21.0339V20.82C276.221 20.6144 276.045 20.4425 275.841 20.4425C275.637 20.4425 275.461 20.6144 275.461 20.82V21.1687V22.2302V28.2956V33.0873V35.9999V36.1499H275.611H276.071H276.221V35.9999V33.0873V28.4456H284.986C285.192 28.4456 285.402 28.3254 285.49 28.1296L285.49 28.1297L285.492 28.1244C285.571 27.9288 285.555 27.7152 285.405 27.545C285.405 27.5447 285.405 27.5445 285.404 27.5443L282.978 24.7324L285.404 21.9353C285.405 21.9351 285.405 21.9349 285.405 21.9347C285.553 21.7662 285.573 21.5372 285.491 21.3525C285.401 21.132 285.182 21.0339 284.986 21.0339H276.221ZM276.221 27.7059V22.2302V21.7737H284.549L282.285 24.3748C282.097 24.5832 282.097 24.8963 282.285 25.1048L284.549 27.7059H276.221Z" fill="#39D3C6" stroke="#39D3C6" stroke-width="0.3"/>
</g>
<path d="M161.529 21.5523L167.115 11.7106L172.711 1.86893C172.837 1.65756 173.041 1.50568 173.277 1.44666C173.513 1.38764 173.763 1.42631 173.971 1.55416C174.097 1.6325 174.204 1.74042 174.281 1.86893L179.872 11.7106L185.47 21.5523C185.587 21.7687 185.615 22.0236 185.548 22.261C185.48 22.4984 185.323 22.6988 185.11 22.8183C184.98 22.8926 184.834 22.9327 184.686 22.9349H167.214C167.197 22.9346 167.181 22.9385 167.166 22.9462C167.151 22.9539 167.139 22.9653 167.129 22.9792C166.069 24.5927 165.459 25.3108 163.382 25.5766C163.314 25.5839 163.245 25.5635 163.191 25.5199C163.137 25.4763 163.102 25.413 163.093 25.3434C163.09 25.308 163.093 25.2722 163.103 25.2382C163.114 25.2041 163.13 25.1725 163.153 25.1453C163.667 24.5181 163.997 24.3059 164.041 23.0468C164.041 23.033 164.039 23.0193 164.034 23.0065C164.029 22.9936 164.022 22.9819 164.012 22.9719C164.003 22.962 163.992 22.954 163.979 22.9484C163.967 22.9429 163.953 22.9399 163.94 22.9396H162.318C162.16 22.9368 162.005 22.8926 161.869 22.8114C161.733 22.7301 161.619 22.6145 161.54 22.4756C161.461 22.3368 161.418 22.1795 161.416 22.019C161.414 21.8584 161.453 21.7001 161.529 21.5593V21.5523Z" fill="white"/>
<path d="M163.355 25.9286H163.417C165.537 25.6534 166.266 24.9072 167.345 23.2843H184.686C184.903 23.2814 185.117 23.2211 185.305 23.1094C185.493 22.9976 185.649 22.8383 185.759 22.6468C185.868 22.4553 185.926 22.2383 185.929 22.017C185.931 21.7956 185.876 21.5775 185.771 21.3838L180.17 11.5343L174.579 1.69166C174.467 1.50241 174.308 1.34586 174.119 1.23719C173.929 1.12852 173.716 1.07141 173.498 1.07141C173.281 1.07141 173.067 1.12852 172.878 1.23719C172.688 1.34586 172.53 1.50241 172.418 1.69166L166.817 11.5343L161.226 21.3838C161.129 21.5663 161.077 21.7692 161.072 21.9761C161.069 22.1446 161.098 22.3119 161.159 22.4687C161.22 22.6255 161.31 22.7686 161.425 22.8899C161.54 23.0111 161.678 23.1082 161.83 23.1754C161.982 23.2427 162.145 23.2789 162.311 23.2819H163.674C163.671 23.5445 163.616 23.8038 163.513 24.0442C163.409 24.2847 163.258 24.5013 163.07 24.681C163.008 24.751 162.946 24.8256 162.88 24.9142C162.806 25.0039 162.759 25.113 162.743 25.2288C162.728 25.3447 162.746 25.4626 162.794 25.5688C162.842 25.675 162.918 25.7652 163.015 25.8289C163.111 25.8925 163.224 25.9271 163.339 25.9286H163.355ZM167.205 22.5847C167.134 22.5856 167.064 22.6038 167.002 22.6379C166.94 22.672 166.886 22.721 166.847 22.7806C165.823 24.3359 165.284 24.9399 163.552 25.201L163.598 25.1451C164.029 24.6414 164.344 24.2753 164.385 23.0464C164.389 22.9339 164.352 22.8237 164.281 22.7374C164.21 22.6512 164.109 22.5951 163.999 22.5801H163.937H162.318C162.243 22.5786 162.17 22.5621 162.102 22.5317C162.034 22.5013 161.972 22.4575 161.921 22.4028C161.815 22.2916 161.757 22.1423 161.76 21.9878C161.762 21.8941 161.786 21.8023 161.829 21.7196L167.413 11.884L173.01 2.04143C173.061 1.95656 173.133 1.88646 173.218 1.83784C173.304 1.78921 173.4 1.76368 173.498 1.76368C173.596 1.76368 173.693 1.78921 173.778 1.83784C173.864 1.88646 173.936 1.95656 173.987 2.04143L179.574 11.884L185.172 21.7266C185.243 21.8617 185.258 22.0195 185.215 22.1661C185.172 22.3126 185.074 22.4362 184.943 22.5101C184.862 22.556 184.771 22.5808 184.679 22.5824H167.205V22.5847Z" fill="#39D3C6" stroke="#39D3C6" stroke-width="0.3"/>
<path d="M174.745 9.40918C174.635 9.40918 174.529 9.45364 174.452 9.53279C174.374 9.61193 174.33 9.71927 174.33 9.8312V10.8664C174.33 10.9784 174.374 11.0857 174.452 11.1648C174.529 11.244 174.635 11.2884 174.745 11.2884C174.855 11.2878 174.96 11.2431 175.037 11.164C175.115 11.0849 175.158 10.9779 175.158 10.8664V9.8312C175.158 9.71967 175.115 9.61268 175.037 9.53361C174.96 9.45453 174.855 9.4098 174.745 9.40918Z" fill="#39D3C6"/>
<path d="M172.092 9.40918C171.982 9.4098 171.877 9.45453 171.799 9.53361C171.722 9.61268 171.679 9.71967 171.679 9.8312V10.8664C171.679 10.9779 171.722 11.0849 171.799 11.164C171.877 11.2431 171.982 11.2878 172.092 11.2884C172.202 11.2884 172.307 11.244 172.385 11.1648C172.463 11.0857 172.507 10.9784 172.507 10.8664V9.8312C172.507 9.71927 172.463 9.61193 172.385 9.53279C172.307 9.45364 172.202 9.40918 172.092 9.40918Z" fill="#39D3C6"/>
<path d="M171.038 13.1119C170.954 13.1109 170.87 13.1269 170.792 13.159C170.714 13.191 170.643 13.2384 170.583 13.2984C170.523 13.3584 170.476 13.4299 170.443 13.5087C170.411 13.5876 170.394 13.6722 170.393 13.7577C170.392 13.8095 170.397 13.8613 170.409 13.9116C170.585 14.6075 170.983 15.2242 171.542 15.6646C172.1 16.105 172.787 16.344 173.494 16.344C174.201 16.344 174.888 16.105 175.446 15.6646C176.005 15.2242 176.403 14.6075 176.579 13.9116C176.618 13.7434 176.589 13.5666 176.5 13.4197C176.41 13.2729 176.267 13.1681 176.102 13.1282C176.052 13.1169 176.001 13.1114 175.95 13.1119H171.038Z" fill="#39D3C6"/>
<path d="M173.489 16.5789C173.777 16.5782 174.064 16.5414 174.343 16.4693C174.935 16.3147 175.476 16.0012 175.909 15.5615C176.342 15.1218 176.65 14.5721 176.802 13.9698C176.829 13.8565 176.833 13.739 176.815 13.624C176.797 13.509 176.757 13.3988 176.697 13.2996C176.637 13.2004 176.558 13.1142 176.465 13.046C176.372 12.9778 176.267 12.9288 176.155 12.902C176.087 12.8871 176.018 12.8792 175.949 12.8787H171.039C170.925 12.8759 170.811 12.8971 170.705 12.9408C170.6 12.9845 170.504 13.0499 170.424 13.1328C170.342 13.2136 170.277 13.3104 170.232 13.4173C170.188 13.5243 170.165 13.6392 170.165 13.7553C170.163 13.826 170.171 13.8966 170.188 13.9652C170.375 14.711 170.801 15.3724 171.399 15.8455C171.996 16.3185 172.732 16.5765 173.489 16.5789ZM175.956 13.345C175.987 13.3453 176.019 13.3492 176.05 13.3566C176.103 13.3687 176.152 13.3913 176.196 13.4231C176.241 13.455 176.278 13.4953 176.307 13.542C176.335 13.5886 176.354 13.6406 176.363 13.6948C176.372 13.749 176.37 13.8045 176.357 13.8579C176.198 14.5086 175.829 15.0865 175.31 15.4995C174.79 15.9126 174.149 16.1369 173.489 16.1369C172.829 16.1369 172.189 15.9126 171.669 15.4995C171.149 15.0865 170.78 14.5086 170.621 13.8579C170.618 13.8262 170.618 13.7941 170.621 13.7623C170.622 13.7076 170.632 13.6535 170.653 13.6031C170.674 13.5527 170.705 13.507 170.743 13.4685C170.781 13.43 170.827 13.3996 170.877 13.3791C170.927 13.3587 170.98 13.3487 171.034 13.3496H175.956V13.345Z" fill="#39D3C6"/>
<path d="M174.034 13.1467H172.742V13.5431C172.742 13.7169 172.81 13.8835 172.931 14.0064C173.052 14.1293 173.216 14.1983 173.387 14.1983C173.558 14.1983 173.722 14.1293 173.843 14.0064C173.964 13.8835 174.032 13.7169 174.032 13.5431V13.1467H174.034Z" fill="white"/>
<path d="M173.489 16.5789C173.777 16.5782 174.064 16.5414 174.343 16.4693C174.935 16.3147 175.476 16.0012 175.909 15.5615C176.342 15.1218 176.65 14.5721 176.802 13.9698C176.829 13.8565 176.833 13.739 176.815 13.624C176.797 13.509 176.757 13.3988 176.697 13.2996C176.637 13.2004 176.558 13.1142 176.465 13.046C176.372 12.9778 176.267 12.9288 176.155 12.902C176.087 12.8871 176.018 12.8792 175.949 12.8787H171.039C170.925 12.8759 170.811 12.8971 170.705 12.9408C170.6 12.9845 170.504 13.0499 170.424 13.1328C170.342 13.2136 170.277 13.3104 170.232 13.4173C170.188 13.5243 170.165 13.6392 170.165 13.7553C170.163 13.826 170.171 13.8966 170.188 13.9652C170.375 14.711 170.801 15.3724 171.399 15.8455C171.996 16.3185 172.732 16.5765 173.489 16.5789ZM175.956 13.345C175.987 13.3453 176.019 13.3492 176.05 13.3566C176.103 13.3687 176.152 13.3913 176.196 13.4231C176.241 13.455 176.278 13.4953 176.307 13.542C176.335 13.5886 176.354 13.6406 176.363 13.6948C176.372 13.749 176.37 13.8045 176.357 13.8579C176.198 14.5086 175.829 15.0865 175.31 15.4995C174.79 15.9126 174.149 16.1369 173.489 16.1369C172.829 16.1369 172.189 15.9126 171.669 15.4995C171.149 15.0865 170.78 14.5086 170.621 13.8579C170.618 13.8262 170.618 13.7941 170.621 13.7623C170.622 13.7076 170.632 13.6535 170.653 13.6031C170.674 13.5527 170.705 13.507 170.743 13.4685C170.781 13.43 170.827 13.3996 170.877 13.3791C170.927 13.3587 170.98 13.3487 171.034 13.3496H175.956V13.345Z" fill="#39D3C6"/>
<rect y="36" width="172.8" height="8" rx="4" fill="#39D3C6"/>
<defs>
<clipPath id="clip0_862_333">
<rect width="16" height="16" fill="white" transform="translate(272 20)"/>
</clipPath>
</defs>
</svg>
