<svg width="290" height="44" viewBox="0 0 290 44" fill="none" xmlns="http://www.w3.org/2000/svg">
<rect y="36" width="288" height="8" rx="4" fill="#F5F5F5"/>
<rect y="36" width="230.4" height="8" rx="4" fill="#39D3C6"/>
<path d="M265.339 19.6753V5.89803C265.339 4.95654 265.703 4.05361 266.351 3.38788C266.999 2.72215 267.877 2.34814 268.794 2.34814H282.206C283.122 2.34814 284.001 2.72215 284.649 3.38788C285.297 4.05361 285.661 4.95654 285.661 5.89803V19.6753C285.661 20.1415 285.572 20.6031 285.399 21.0339C285.226 21.4648 284.971 21.8563 284.651 22.1861C284.33 22.516 283.949 22.7777 283.53 22.9564C283.111 23.1351 282.662 23.2272 282.208 23.2275H269.943C269.906 23.2274 269.87 23.2367 269.837 23.2545C269.805 23.2723 269.777 23.2981 269.756 23.3296C268.927 24.6034 267.868 25.4456 266.307 25.6498C266.235 25.659 266.162 25.6382 266.104 25.5921C266.047 25.546 266.009 25.4783 266 25.4038C265.996 25.365 265.999 25.3255 266.01 25.288C266.021 25.2505 266.039 25.2157 266.064 25.1857C266.579 24.5606 266.983 23.8465 267.256 23.0767C267.272 23.0241 267.27 22.9671 267.25 22.916C267.229 22.865 267.191 22.8232 267.143 22.7983C266.596 22.4928 266.14 22.0415 265.823 21.4918C265.505 20.9421 265.338 20.3145 265.339 19.6753Z" fill="white"/>
<path d="M266.274 26H266.348C267.882 25.7981 269.045 25.0302 270.002 23.58H282.197C282.696 23.5804 283.191 23.4796 283.652 23.2835C284.114 23.0874 284.533 22.7998 284.886 22.4372C285.239 22.0745 285.519 21.644 285.71 21.17C285.902 20.6961 286 20.1882 286 19.6752V5.89791C285.999 4.8645 285.599 3.87376 284.887 3.14303C284.176 2.41229 283.212 2.00123 282.206 2H268.796C267.79 2.00061 266.825 2.41133 266.113 3.14207C265.4 3.8728 265 4.86388 264.998 5.89791V19.6752C264.996 20.3612 265.171 21.0354 265.505 21.6295C265.839 22.2236 266.32 22.7164 266.899 23.058C266.643 23.7541 266.273 24.4005 265.806 24.9698C265.73 25.0616 265.682 25.1737 265.666 25.293C265.65 25.4122 265.668 25.5336 265.717 25.6429C265.766 25.7522 265.845 25.8447 265.943 25.9096C266.042 25.9745 266.157 26.0091 266.274 26.0093V26ZM269.941 22.8817C269.849 22.8817 269.759 22.905 269.677 22.9495C269.596 22.994 269.527 23.0584 269.476 23.1369C268.661 24.3898 267.69 25.0742 266.427 25.2831C266.92 24.6571 267.307 23.9514 267.574 23.1949C267.616 23.0639 267.611 22.9219 267.56 22.7943C267.509 22.6668 267.416 22.562 267.297 22.4988C266.803 22.223 266.391 21.8146 266.106 21.3174C265.82 20.8201 265.672 20.2525 265.675 19.6752V5.89791C265.676 5.04851 266.005 4.23411 266.589 3.63372C267.174 3.03332 267.967 2.69606 268.794 2.69606H282.206C283.032 2.69667 283.825 3.03421 284.409 3.63454C284.993 4.23487 285.322 5.04892 285.323 5.89791V19.6752C285.323 20.5246 284.995 21.3395 284.411 21.9407C283.827 22.542 283.035 22.8804 282.208 22.8817H269.941Z" fill="#39D3C6" stroke="#39D3C6" stroke-width="0.3"/>
<path d="M277.364 6.73096C277.31 6.73096 277.257 6.74182 277.208 6.76292C277.158 6.78403 277.113 6.81496 277.075 6.85396C277.037 6.89296 277.007 6.93925 276.986 6.9902C276.966 7.04115 276.955 7.09576 276.955 7.15091V8.18107C276.955 8.23622 276.966 8.29083 276.986 8.34178C277.007 8.39273 277.037 8.43903 277.075 8.47803C277.113 8.51702 277.158 8.54796 277.208 8.56906C277.257 8.59017 277.31 8.60103 277.364 8.60103C277.472 8.60042 277.575 8.5559 277.652 8.47721C277.728 8.39852 277.771 8.29205 277.771 8.18107V7.15091C277.771 7.03993 277.728 6.93347 277.652 6.85478C277.575 6.77609 277.472 6.73157 277.364 6.73096Z" fill="#39D3C6" stroke="#39D3C6" stroke-width="0.1"/>
<path d="M273.637 6.73096C273.529 6.73096 273.425 6.7752 273.348 6.85396C273.272 6.93272 273.229 7.03953 273.229 7.15091V8.18107C273.229 8.29245 273.272 8.39927 273.348 8.47803C273.425 8.55678 273.529 8.60103 273.637 8.60103C273.745 8.60042 273.849 8.5559 273.925 8.47721C274.001 8.39852 274.044 8.29205 274.044 8.18107V7.15091C274.044 7.03993 274.001 6.93347 273.925 6.85478C273.849 6.77609 273.745 6.73157 273.637 6.73096Z" fill="#39D3C6" stroke="#39D3C6" stroke-width="0.1"/>
<path d="M273.921 10.6475H277.005C277.108 10.6558 277.202 10.7049 277.269 10.7843C277.337 10.8637 277.371 10.9671 277.365 11.0721V13.0048C277.371 13.1098 277.337 13.2131 277.269 13.2925C277.202 13.3719 277.108 13.421 277.005 13.4294H273.921C273.818 13.4216 273.724 13.3726 273.657 13.293C273.59 13.2133 273.556 13.1097 273.564 13.0048V11.0721C273.556 10.9671 273.59 10.8635 273.657 10.7839C273.724 10.7042 273.818 10.6552 273.921 10.6475Z" fill="#39D3C6"/>
<path d="M277.005 13.6612C277.086 13.6568 277.166 13.6358 277.24 13.5995C277.313 13.5633 277.379 13.5124 277.434 13.4499C277.488 13.3873 277.53 13.3143 277.557 13.2351C277.583 13.1559 277.595 13.0721 277.59 12.9884V11.0719C277.597 10.9078 277.542 10.7471 277.435 10.6244C277.329 10.5017 277.18 10.4266 277.021 10.4153H273.904C273.742 10.4278 273.592 10.5055 273.486 10.6316C273.379 10.7577 273.326 10.9218 273.337 11.0881V13.0046C273.329 13.1685 273.384 13.3292 273.49 13.4519C273.596 13.5747 273.745 13.6499 273.904 13.6612H277.005ZM277.005 10.877C277.045 10.8838 277.08 10.9058 277.105 10.9384C277.13 10.9711 277.141 11.0121 277.138 11.0533V13.0023C277.141 13.025 277.139 13.0481 277.133 13.0702C277.127 13.0923 277.117 13.1129 277.103 13.1309C277.089 13.1488 277.072 13.1638 277.052 13.1747C277.033 13.1857 277.011 13.1926 276.989 13.1949H273.92C273.881 13.1875 273.845 13.1654 273.821 13.1327C273.797 13.1001 273.786 13.0594 273.789 13.0185V11.0719C273.783 11.0274 273.795 10.9822 273.821 10.9462C273.847 10.9102 273.886 10.8862 273.929 10.8793L277.005 10.877Z" fill="#39D3C6"/>
<path d="M276.389 10.7542H274.537V11.5941C274.537 11.6488 274.558 11.7013 274.596 11.7401C274.633 11.7788 274.685 11.8006 274.738 11.8006H276.188C276.241 11.8006 276.292 11.7788 276.33 11.7401C276.367 11.7013 276.389 11.6488 276.389 11.5941V10.7542Z" fill="white"/>
<path d="M277.005 13.6612C277.086 13.6568 277.166 13.6358 277.24 13.5995C277.313 13.5633 277.379 13.5124 277.434 13.4499C277.488 13.3873 277.53 13.3143 277.557 13.2351C277.583 13.1559 277.595 13.0721 277.59 12.9884V11.0719C277.597 10.9078 277.542 10.7471 277.435 10.6244C277.329 10.5017 277.18 10.4266 277.021 10.4153H273.904C273.742 10.4278 273.592 10.5055 273.486 10.6316C273.379 10.7577 273.326 10.9218 273.337 11.0881V13.0046C273.329 13.1685 273.384 13.3292 273.49 13.4519C273.596 13.5747 273.745 13.6499 273.904 13.6612H277.005ZM277.005 10.877C277.045 10.8838 277.08 10.9058 277.105 10.9384C277.13 10.9711 277.141 11.0121 277.138 11.0533V13.0023C277.141 13.025 277.139 13.0481 277.133 13.0702C277.127 13.0923 277.117 13.1129 277.103 13.1309C277.089 13.1488 277.072 13.1638 277.052 13.1747C277.033 13.1857 277.011 13.1926 276.989 13.1949H273.92C273.881 13.1875 273.845 13.1654 273.821 13.1327C273.797 13.1001 273.786 13.0594 273.789 13.0185V11.0719C273.783 11.0274 273.795 10.9822 273.821 10.9462C273.847 10.9102 273.886 10.8862 273.929 10.8793L277.005 10.877Z" fill="#39D3C6" stroke="#39D3C6" stroke-width="0.1"/>
<circle cx="230" cy="14" r="11.6667" fill="#DFF8F6"/>
<path d="M221.451 21.628C221.365 21.4443 221.25 21.2756 221.11 21.1283C220.793 20.7344 220.504 20.3181 220.247 19.8827C219.206 18.0969 218.665 16.0643 218.679 13.9976C218.679 11.479 219.52 9.03258 221.067 7.0453C222.614 5.05803 224.78 3.64338 227.221 3.02519C229.663 2.40699 232.24 2.62055 234.547 3.63207C236.853 4.64359 238.757 6.39532 239.956 8.6101C241.155 10.8249 241.581 13.3762 241.167 15.8605C240.754 18.3448 239.523 20.6202 237.671 22.3266C235.818 24.0331 233.45 25.0732 230.94 25.2823C228.43 25.4915 225.922 24.8578 223.813 23.4815C223.763 23.4479 223.701 23.4356 223.642 23.4473C223.582 23.4589 223.53 23.4935 223.495 23.5436L223.396 23.6933C223.396 23.6933 222.462 25.0633 220.339 25.3188C220.266 25.3301 220.193 25.3122 220.133 25.269C220.074 25.2258 220.035 25.1609 220.023 25.0886C220.017 25.0475 220.019 25.0054 220.031 24.9655C220.043 24.9256 220.064 24.889 220.092 24.8584C220.753 24.1036 221.217 23.1971 221.442 22.2197C221.499 22.027 221.502 21.8223 221.451 21.628Z" fill="white"/>
<path d="M220.296 25.6676C220.329 25.6698 220.362 25.6698 220.395 25.6676C222.633 25.3982 223.642 23.9569 223.683 23.897L223.713 23.8303C225.586 25.0325 227.766 25.6718 229.992 25.6722C233.087 25.6738 236.057 24.4455 238.247 22.2575C240.437 20.0696 241.668 17.1013 241.67 14.0056C241.671 10.9099 240.443 7.94032 238.255 5.75024C236.067 3.56015 233.099 2.32892 230.003 2.32739V2.32739C226.911 2.33105 223.946 3.56107 221.759 5.7477C219.571 7.93434 218.341 10.8991 218.337 13.9918C218.322 16.1196 218.879 18.2122 219.948 20.0519C220.216 20.501 220.515 20.931 220.842 21.339L220.86 21.3597C220.966 21.4729 221.055 21.6009 221.125 21.7396C221.155 21.8682 221.15 22.0026 221.111 22.1287C220.899 23.0582 220.46 23.9206 219.833 24.6384C219.771 24.707 219.725 24.7888 219.698 24.8777C219.672 24.9667 219.666 25.0604 219.681 25.1519C219.707 25.2962 219.783 25.4269 219.895 25.5212C220.008 25.6154 220.149 25.6672 220.296 25.6676ZM230.001 3.01814C232.912 3.01814 235.704 4.17453 237.762 6.23291C239.82 8.2913 240.977 11.0831 240.977 13.9941C240.977 16.9051 239.82 19.6968 237.762 21.7552C235.704 23.8136 232.912 24.97 230.001 24.97C227.874 24.9698 225.794 24.3497 224.015 23.1856C223.888 23.1037 223.735 23.0743 223.587 23.1035C223.439 23.1327 223.308 23.2183 223.222 23.3421L223.121 23.4964C223.091 23.5401 222.288 24.6684 220.478 24.947C221.115 24.1759 221.565 23.267 221.79 22.2922C221.86 22.0444 221.86 21.7824 221.79 21.5347L221.77 21.4748C221.669 21.2629 221.536 21.0679 221.376 20.8969C221.073 20.5183 220.797 20.119 220.549 19.7019C219.542 17.9694 219.017 15.9983 219.03 13.9941C219.033 11.085 220.19 8.29603 222.247 6.23857C224.303 4.18111 227.092 3.02301 230.001 3.01814Z" fill="#39D3C6" stroke="#39D3C6" stroke-width="0.3"/>
<path d="M237.053 10.6177C236.943 10.6183 236.837 10.6625 236.76 10.7405C236.682 10.8186 236.639 10.9243 236.639 11.0344V12.0567C236.639 12.1669 236.682 12.2725 236.76 12.3506C236.837 12.4287 236.943 12.4729 237.053 12.4735C237.164 12.4735 237.27 12.4296 237.348 12.3514C237.426 12.2733 237.47 12.1673 237.47 12.0567V11.0344C237.47 10.9239 237.426 10.8179 237.348 10.7397C237.27 10.6616 237.164 10.6177 237.053 10.6177Z" fill="#39D3C6" stroke="#39D3C6" stroke-width="0.1"/>
<path d="M233.253 10.6177C233.143 10.6183 233.038 10.6625 232.96 10.7405C232.882 10.8186 232.839 10.9243 232.839 11.0344V12.0567C232.839 12.1669 232.882 12.2725 232.96 12.3506C233.038 12.4287 233.143 12.4729 233.253 12.4735C233.364 12.4735 233.47 12.4296 233.548 12.3514C233.626 12.2733 233.67 12.1673 233.67 12.0567V11.0344C233.67 10.9239 233.626 10.8179 233.548 10.7397C233.47 10.6616 233.364 10.6177 233.253 10.6177Z" fill="#39D3C6" stroke="#39D3C6" stroke-width="0.1"/>
<path d="M235.029 16.2773C235.136 16.2772 235.244 16.2703 235.351 16.2566C235.396 16.2506 235.44 16.2356 235.48 16.2127C235.519 16.1898 235.554 16.1592 235.582 16.1229C235.609 16.0865 235.63 16.0451 235.642 16.0009C235.653 15.9566 235.656 15.9105 235.65 15.8652C235.644 15.8198 235.629 15.7761 235.606 15.7365C235.583 15.6969 235.553 15.6623 235.517 15.6345C235.48 15.6067 235.439 15.5863 235.395 15.5745C235.35 15.5628 235.304 15.5598 235.259 15.5659C234.885 15.6171 234.505 15.5435 234.177 15.3566C233.85 15.1697 233.593 14.8798 233.447 14.5321C233.43 14.49 233.404 14.4518 233.372 14.4196C233.34 14.3873 233.302 14.3617 233.26 14.3442C233.218 14.3267 233.173 14.3175 233.128 14.3174C233.083 14.3172 233.038 14.326 232.996 14.3432C232.953 14.3605 232.915 14.3858 232.883 14.4178C232.851 14.4498 232.825 14.4879 232.808 14.5298C232.79 14.5717 232.781 14.6166 232.781 14.6621C232.781 14.7075 232.789 14.7525 232.807 14.7945C232.989 15.2334 233.298 15.6083 233.693 15.8722C234.089 16.1361 234.553 16.277 235.029 16.2773Z" fill="#39D3C6" stroke="#39D3C6" stroke-width="0.1"/>
</svg>
