<svg width="288" height="44" viewBox="0 0 288 44" fill="none" xmlns="http://www.w3.org/2000/svg">
<rect y="36" width="288" height="8" rx="4" fill="#F5F5F5"/>
<g clip-path="url(#clip0_862_332)">
<path d="M276.221 21.0339V20.82C276.221 20.6144 276.045 20.4425 275.841 20.4425C275.637 20.4425 275.461 20.6144 275.461 20.82V21.1687V22.2302V28.2956V33.0873V35.9999V36.1499H275.611H276.071H276.221V35.9999V33.0873V28.4456H284.986C285.192 28.4456 285.402 28.3254 285.49 28.1296L285.49 28.1297L285.492 28.1244C285.571 27.9288 285.555 27.7152 285.405 27.545C285.405 27.5447 285.405 27.5445 285.404 27.5443L282.978 24.7324L285.404 21.9353C285.405 21.9351 285.405 21.9349 285.405 21.9347C285.553 21.7662 285.573 21.5372 285.491 21.3525C285.401 21.132 285.182 21.0339 284.986 21.0339H276.221ZM276.221 27.7059V22.2302V21.7737H284.549L282.285 24.3748C282.097 24.5832 282.097 24.8963 282.285 25.1048L284.549 27.7059H276.221Z" fill="#39D3C6" stroke="#39D3C6" stroke-width="0.3"/>
</g>
<path d="M103.529 21.5523L109.115 11.7106L114.711 1.86893C114.837 1.65756 115.041 1.50568 115.277 1.44666C115.513 1.38764 115.763 1.42631 115.971 1.55416C116.097 1.6325 116.204 1.74042 116.281 1.86893L121.872 11.7106L127.47 21.5523C127.587 21.7687 127.615 22.0236 127.548 22.261C127.48 22.4984 127.323 22.6988 127.11 22.8183C126.98 22.8926 126.834 22.9327 126.686 22.9349H109.214C109.197 22.9346 109.181 22.9385 109.166 22.9462C109.151 22.9539 109.139 22.9653 109.129 22.9792C108.069 24.5927 107.459 25.3108 105.382 25.5766C105.314 25.5839 105.245 25.5635 105.191 25.5199C105.137 25.4763 105.102 25.413 105.093 25.3434C105.09 25.308 105.093 25.2722 105.103 25.2382C105.114 25.2041 105.13 25.1725 105.153 25.1453C105.667 24.5181 105.997 24.3059 106.041 23.0468C106.041 23.033 106.039 23.0193 106.034 23.0065C106.029 22.9936 106.022 22.9819 106.012 22.9719C106.003 22.962 105.992 22.954 105.979 22.9484C105.967 22.9429 105.953 22.9399 105.94 22.9396H104.318C104.16 22.9368 104.005 22.8926 103.869 22.8114C103.733 22.7301 103.619 22.6145 103.54 22.4756C103.461 22.3368 103.418 22.1795 103.416 22.019C103.414 21.8584 103.453 21.7001 103.529 21.5593V21.5523Z" fill="white"/>
<path d="M105.355 25.9286H105.417C107.537 25.6534 108.266 24.9072 109.345 23.2843H126.686C126.903 23.2814 127.117 23.2211 127.305 23.1094C127.493 22.9976 127.649 22.8383 127.759 22.6468C127.868 22.4553 127.926 22.2383 127.929 22.017C127.931 21.7956 127.876 21.5775 127.771 21.3838L122.17 11.5343L116.579 1.69166C116.467 1.50241 116.308 1.34586 116.119 1.23719C115.929 1.12852 115.716 1.07141 115.498 1.07141C115.281 1.07141 115.067 1.12852 114.878 1.23719C114.688 1.34586 114.53 1.50241 114.418 1.69166L108.817 11.5343L103.226 21.3838C103.129 21.5663 103.077 21.7692 103.072 21.9761C103.069 22.1446 103.098 22.3119 103.159 22.4687C103.22 22.6255 103.31 22.7686 103.425 22.8899C103.54 23.0111 103.678 23.1082 103.83 23.1754C103.982 23.2427 104.145 23.2789 104.311 23.2819H105.674C105.671 23.5445 105.616 23.8038 105.513 24.0442C105.409 24.2847 105.258 24.5013 105.07 24.681C105.008 24.751 104.946 24.8256 104.88 24.9142C104.806 25.0039 104.759 25.113 104.743 25.2288C104.728 25.3447 104.746 25.4626 104.794 25.5688C104.842 25.675 104.918 25.7652 105.015 25.8289C105.111 25.8925 105.224 25.9271 105.339 25.9286H105.355ZM109.205 22.5847C109.134 22.5856 109.064 22.6038 109.002 22.6379C108.94 22.672 108.886 22.721 108.847 22.7806C107.823 24.3359 107.284 24.9399 105.552 25.201L105.598 25.1451C106.029 24.6414 106.344 24.2753 106.385 23.0464C106.389 22.9339 106.352 22.8237 106.281 22.7374C106.21 22.6512 106.109 22.5951 105.999 22.5801H105.937H104.318C104.243 22.5786 104.17 22.5621 104.102 22.5317C104.034 22.5013 103.972 22.4575 103.921 22.4028C103.815 22.2916 103.757 22.1423 103.76 21.9878C103.762 21.8941 103.786 21.8023 103.829 21.7196L109.413 11.884L115.01 2.04143C115.061 1.95656 115.133 1.88646 115.218 1.83784C115.304 1.78921 115.4 1.76368 115.498 1.76368C115.596 1.76368 115.693 1.78921 115.778 1.83784C115.864 1.88646 115.936 1.95656 115.987 2.04143L121.574 11.884L127.172 21.7266C127.243 21.8617 127.258 22.0195 127.215 22.1661C127.172 22.3126 127.074 22.4362 126.943 22.5101C126.862 22.556 126.771 22.5808 126.679 22.5824H109.205V22.5847Z" fill="#39D3C6" stroke="#39D3C6" stroke-width="0.3"/>
<path d="M116.745 9.40918C116.635 9.40918 116.529 9.45364 116.452 9.53279C116.374 9.61193 116.33 9.71927 116.33 9.8312V10.8664C116.33 10.9784 116.374 11.0857 116.452 11.1648C116.529 11.244 116.635 11.2884 116.745 11.2884C116.855 11.2878 116.96 11.2431 117.037 11.164C117.115 11.0849 117.158 10.9779 117.158 10.8664V9.8312C117.158 9.71967 117.115 9.61268 117.037 9.53361C116.96 9.45453 116.855 9.4098 116.745 9.40918Z" fill="#39D3C6"/>
<path d="M114.092 9.40918C113.982 9.4098 113.877 9.45453 113.799 9.53361C113.722 9.61268 113.679 9.71967 113.679 9.8312V10.8664C113.679 10.9779 113.722 11.0849 113.799 11.164C113.877 11.2431 113.982 11.2878 114.092 11.2884C114.202 11.2884 114.307 11.244 114.385 11.1648C114.463 11.0857 114.507 10.9784 114.507 10.8664V9.8312C114.507 9.71927 114.463 9.61193 114.385 9.53279C114.307 9.45364 114.202 9.40918 114.092 9.40918Z" fill="#39D3C6"/>
<path d="M113.038 13.1119C112.954 13.1109 112.87 13.1269 112.792 13.159C112.714 13.191 112.643 13.2384 112.583 13.2984C112.523 13.3584 112.476 13.4299 112.443 13.5087C112.411 13.5876 112.394 13.6722 112.393 13.7577C112.392 13.8095 112.397 13.8613 112.409 13.9116C112.585 14.6075 112.983 15.2242 113.542 15.6646C114.1 16.105 114.787 16.344 115.494 16.344C116.201 16.344 116.888 16.105 117.446 15.6646C118.005 15.2242 118.403 14.6075 118.579 13.9116C118.618 13.7434 118.589 13.5666 118.5 13.4197C118.41 13.2729 118.267 13.1681 118.102 13.1282C118.052 13.1169 118.001 13.1114 117.95 13.1119H113.038Z" fill="#39D3C6"/>
<path d="M115.489 16.5789C115.777 16.5782 116.064 16.5414 116.343 16.4693C116.935 16.3147 117.476 16.0012 117.909 15.5615C118.342 15.1218 118.65 14.5721 118.802 13.9698C118.829 13.8565 118.833 13.739 118.815 13.624C118.797 13.509 118.757 13.3988 118.697 13.2996C118.637 13.2004 118.558 13.1142 118.465 13.046C118.372 12.9778 118.267 12.9288 118.155 12.902C118.087 12.8871 118.018 12.8792 117.949 12.8787H113.039C112.925 12.8759 112.811 12.8971 112.705 12.9408C112.6 12.9845 112.504 13.0499 112.424 13.1328C112.342 13.2136 112.277 13.3104 112.232 13.4173C112.188 13.5243 112.165 13.6392 112.165 13.7553C112.163 13.826 112.171 13.8966 112.188 13.9652C112.375 14.711 112.801 15.3724 113.399 15.8455C113.996 16.3185 114.732 16.5765 115.489 16.5789ZM117.956 13.345C117.987 13.3453 118.019 13.3492 118.05 13.3566C118.103 13.3687 118.152 13.3913 118.196 13.4231C118.241 13.455 118.278 13.4953 118.307 13.542C118.335 13.5886 118.354 13.6406 118.363 13.6948C118.372 13.749 118.37 13.8045 118.357 13.8579C118.198 14.5086 117.829 15.0865 117.31 15.4995C116.79 15.9126 116.149 16.1369 115.489 16.1369C114.829 16.1369 114.189 15.9126 113.669 15.4995C113.149 15.0865 112.78 14.5086 112.621 13.8579C112.618 13.8262 112.618 13.7941 112.621 13.7623C112.622 13.7076 112.632 13.6535 112.653 13.6031C112.674 13.5527 112.705 13.507 112.743 13.4685C112.781 13.43 112.827 13.3996 112.877 13.3791C112.927 13.3587 112.98 13.3487 113.034 13.3496H117.956V13.345Z" fill="#39D3C6"/>
<path d="M116.034 13.1467H114.742V13.5431C114.742 13.7169 114.81 13.8835 114.931 14.0064C115.052 14.1293 115.216 14.1983 115.387 14.1983C115.558 14.1983 115.722 14.1293 115.843 14.0064C115.964 13.8835 116.032 13.7169 116.032 13.5431V13.1467H116.034Z" fill="white"/>
<path d="M115.489 16.5789C115.777 16.5782 116.064 16.5414 116.343 16.4693C116.935 16.3147 117.476 16.0012 117.909 15.5615C118.342 15.1218 118.65 14.5721 118.802 13.9698C118.829 13.8565 118.833 13.739 118.815 13.624C118.797 13.509 118.757 13.3988 118.697 13.2996C118.637 13.2004 118.558 13.1142 118.465 13.046C118.372 12.9778 118.267 12.9288 118.155 12.902C118.087 12.8871 118.018 12.8792 117.949 12.8787H113.039C112.925 12.8759 112.811 12.8971 112.705 12.9408C112.6 12.9845 112.504 13.0499 112.424 13.1328C112.342 13.2136 112.277 13.3104 112.232 13.4173C112.188 13.5243 112.165 13.6392 112.165 13.7553C112.163 13.826 112.171 13.8966 112.188 13.9652C112.375 14.711 112.801 15.3724 113.399 15.8455C113.996 16.3185 114.732 16.5765 115.489 16.5789ZM117.956 13.345C117.987 13.3453 118.019 13.3492 118.05 13.3566C118.103 13.3687 118.152 13.3913 118.196 13.4231C118.241 13.455 118.278 13.4953 118.307 13.542C118.335 13.5886 118.354 13.6406 118.363 13.6948C118.372 13.749 118.37 13.8045 118.357 13.8579C118.198 14.5086 117.829 15.0865 117.31 15.4995C116.79 15.9126 116.149 16.1369 115.489 16.1369C114.829 16.1369 114.189 15.9126 113.669 15.4995C113.149 15.0865 112.78 14.5086 112.621 13.8579C112.618 13.8262 112.618 13.7941 112.621 13.7623C112.622 13.7076 112.632 13.6535 112.653 13.6031C112.674 13.5527 112.705 13.507 112.743 13.4685C112.781 13.43 112.827 13.3996 112.877 13.3791C112.927 13.3587 112.98 13.3487 113.034 13.3496H117.956V13.345Z" fill="#39D3C6"/>
<rect y="36" width="115.2" height="8" rx="4" fill="#39D3C6"/>
<defs>
<clipPath id="clip0_862_332">
<rect width="16" height="16" fill="white" transform="translate(272 20)"/>
</clipPath>
</defs>
</svg>
