<svg width="132" height="162" viewBox="0 0 132 162" fill="none" xmlns="http://www.w3.org/2000/svg">
<path d="M26.3448 120.449H6.41194C4.14153 120.449 3.27344 122.129 3.27344 123.68C3.27344 125.23 4.17492 127.007 6.41194 127.007H12.3551V150.559H20.4016V127.007H26.3448C28.5818 127.007 29.4833 125.198 29.4833 123.68C29.4833 122.129 28.6152 120.449 26.3448 120.449Z" fill="#39D3C6"/>
<path d="M35.5935 118.866C33.4232 118.866 31.5535 119.835 31.5535 122.323C31.5535 124.81 33.4232 125.78 35.5935 125.78C37.7637 125.78 39.6334 124.81 39.6334 122.323C39.6334 119.835 37.7637 118.866 35.5935 118.866Z" fill="#39D3C6"/>
<path d="M35.5933 127.363C33.423 127.363 31.5867 128.526 31.5867 131.11V150.527H39.5665V131.143C39.5999 128.526 37.7635 127.363 35.5933 127.363Z" fill="#39D3C6"/>
<path d="M56.7614 127.104C54.8249 127.104 52.6881 127.815 51.1856 129.172C50.5178 127.815 49.0821 127.104 47.5796 127.104C45.5096 127.104 43.6732 128.364 43.6732 130.852V157.15H51.5529V149.655C53.0219 150.624 54.8583 151.205 56.7948 151.205C61.9032 151.205 66.2437 148.782 66.2437 140.867V137.475C66.2103 129.56 61.8698 127.104 56.7614 127.104ZM58.2305 141.352C58.2305 143.904 56.2606 144.776 54.8917 144.776C53.5895 144.776 51.5862 143.936 51.5195 141.546V136.926C51.5195 134.373 53.5228 133.501 54.8917 133.501C56.2606 133.501 58.2305 134.373 58.2305 136.926V141.352Z" fill="#39D3C6"/>
<path d="M90.2835 132.92C91.7192 131.595 91.4855 128.946 89.8494 127.75C88.2134 126.555 85.7761 126.91 84.4739 128.364L77.5959 135.666V122.614C77.5959 120.126 75.7596 118.866 73.7563 118.866C71.753 118.866 69.8499 120.126 69.8499 122.614V150.559H77.5959V144.712L79.9331 142.547L84.9748 150.559H93.7225L85.1417 137.701L90.2835 132.92Z" fill="#39D3C6"/>
<path d="M99.2317 118.866C97.0615 118.866 95.2251 120.029 95.2251 122.614V150.559H103.205V122.614C103.238 120.029 101.402 118.866 99.2317 118.866Z" fill="#39D3C6"/>
<path d="M128.479 141.416C128.58 140.77 128.68 139.736 128.68 139.09C128.68 129.14 123.371 127.137 117.996 127.137C113.021 127.137 106.944 129.527 106.944 137.54V140.835C106.944 148.686 113.254 151.238 118.897 151.238C121.735 151.238 124.473 150.462 125.708 149.752C127.578 148.718 128.513 147.135 127.678 145.293C127.177 144.163 125.942 143.71 124.606 143.872C123.939 143.936 123.371 144.259 122.77 144.421C121.735 144.744 120.9 144.906 118.997 144.906C117.127 144.906 114.59 144.033 114.59 141.481V141.449H128.479V141.416ZM118.029 133.178C119.732 133.178 121.301 134.018 121.167 136.473H114.623C114.657 134.018 116.326 133.178 118.029 133.178Z" fill="#39D3C6"/>
<g clip-path="url(#clip0)">
<path d="M96.563 25.8338H102.458V29.1553C102.458 31.421 104.312 33.2749 106.577 33.2749C108.843 33.2749 110.697 31.421 110.697 29.1553V22.1005C110.697 19.6287 108.688 17.5947 106.191 17.5947H96.563C94.2975 17.5947 92.444 19.4485 92.444 21.7143C92.444 23.98 94.2718 25.8338 96.563 25.8338Z" fill="#39D3C6"/>
<path d="M66.0562 17.5946H83.9226C86.394 17.5946 88.4278 19.6029 88.4278 22.1004V29.1552C88.4278 31.421 86.5742 33.2748 84.3087 33.2748C82.0433 33.2748 80.1897 31.421 80.1897 29.1552V25.8338H66.0819H65.2839H42.9895V73.0804H54.909C56.1447 73.0804 57.3289 73.5696 58.2042 74.445C59.0795 75.3204 59.5687 76.5048 59.5429 77.7407L59.4399 87.7822L74.7834 74.2133C75.633 73.4666 76.7142 73.0546 77.847 73.0546H108.405C110.671 73.0546 112.524 74.9084 112.524 77.1742C112.524 79.44 110.671 81.2938 108.405 81.2938H79.2372L60.2895 98.0296C59.2597 98.9308 57.9725 99.42 56.6338 99.42C55.8615 99.42 55.0892 99.2655 54.3426 98.9308C52.3603 98.0296 51.0989 96.0471 51.1246 93.8843L51.2533 81.3195H41.4191C37.7377 81.3195 34.7514 78.3328 34.7514 74.651V25.8338H24.1191C21.8536 25.8338 20 23.98 20 21.7142C20 19.4485 21.8536 17.5946 24.1191 17.5946H34.7514V8.11959C34.7514 5.85382 36.6049 4 38.8704 4C41.1359 4 42.9895 5.85382 42.9895 8.11959V17.5946H65.2839H66.0562Z" fill="#39D3C6"/>
<path d="M106.706 38.9393H77.7439C75.4785 38.9393 73.6249 40.7931 73.6249 43.0589C73.6249 45.3246 75.4785 47.1785 77.7439 47.1785H93.4478L76.225 57.8121C74.5517 58.7648 73.6506 60.6959 74.0368 62.6269C74.4744 64.6867 76.3023 66.2058 78.4133 66.2058H108.431C110.696 66.2058 112.55 64.352 112.55 62.0862C112.55 59.8204 110.696 57.9666 108.431 57.9666H91.6715L108.894 47.3329C110.568 46.3803 111.469 44.4492 111.083 42.5182C110.671 40.4326 108.817 38.9393 106.706 38.9393Z" fill="#39D3C6"/>
</g>
<defs>
<clipPath id="clip0">
<rect width="92.55" height="95.42" fill="white" transform="translate(20 4)"/>
</clipPath>
</defs>
</svg>
